G04*
G04 #@! TF.GenerationSoftware,Altium Limited,Altium Designer,26.3.0 (6)*
G04*
G04 Layer_Color=8421504*
%FSLAX25Y25*%
%MOIN*%
G70*
G04*
G04 #@! TF.SameCoordinates,015A45BF-1CEB-4936-80CA-603E909B0F41*
G04*
G04*
G04 #@! TF.FilePolarity,Positive*
G04*
G01*
G75*
%ADD17R,0.03343X0.09643*%
%ADD18R,0.09643X0.03343*%
%ADD19R,0.04547X0.05344*%
%ADD20R,0.04524X0.04524*%
%ADD21R,0.04524X0.04524*%
%ADD22R,0.05312X0.06099*%
%ADD23R,0.06099X0.05312*%
%ADD24R,0.05344X0.04547*%
%ADD25R,0.04524X0.06887*%
%ADD26R,0.02162X0.05902*%
%ADD27R,0.02556X0.03343*%
%ADD28R,0.03343X0.02556*%
%ADD29C,0.05902*%
G36*
X80698Y105692D02*
X74600D01*
Y122025D01*
X80698D01*
Y105692D01*
D02*
G37*
G36*
X70697D02*
X64600D01*
Y122025D01*
X70697D01*
Y105692D01*
D02*
G37*
G36*
X60698D02*
X54600D01*
Y122025D01*
X60698D01*
Y105692D01*
D02*
G37*
G36*
X50697D02*
X44600D01*
Y122025D01*
X50697D01*
Y105692D01*
D02*
G37*
G36*
X40698D02*
X34600D01*
Y122025D01*
X40698D01*
Y105692D01*
D02*
G37*
G36*
X30698D02*
X24600D01*
Y122025D01*
X30698D01*
Y105692D01*
D02*
G37*
G36*
X20697D02*
X14600D01*
Y122025D01*
X20697D01*
Y105692D01*
D02*
G37*
G36*
X397995Y98614D02*
X398448Y98462D01*
X398870Y98240D01*
X399251Y97953D01*
X399581Y97609D01*
X399851Y97215D01*
X400055Y96784D01*
X400187Y96325D01*
X400243Y95852D01*
X400223Y95375D01*
X400126Y94908D01*
X399956Y94462D01*
X399715Y94050D01*
X399412Y93681D01*
X399054Y93366D01*
X398650Y93113D01*
X398210Y92928D01*
X397978Y92872D01*
X397977Y92872D01*
X397975Y92871D01*
X397964Y92867D01*
X397953Y92863D01*
X397952Y92862D01*
X397951Y92861D01*
X397942Y92854D01*
X397932Y92847D01*
X397931Y92846D01*
X397930Y92845D01*
X397923Y92836D01*
X397916Y92827D01*
X397915Y92825D01*
X397914Y92824D01*
X397910Y92814D01*
X397905Y92803D01*
X397905Y92801D01*
X397904Y92800D01*
X397903Y92788D01*
X397901Y92777D01*
X397901Y92775D01*
X397901Y92774D01*
X397902Y92762D01*
X397903Y92750D01*
X397904Y92749D01*
X397904Y92748D01*
X397909Y92737D01*
X397913Y92726D01*
X397914Y92725D01*
X397914Y92724D01*
X397921Y92714D01*
X397929Y92704D01*
X397930Y92704D01*
X397930Y92703D01*
X400935Y89698D01*
Y84341D01*
X393636D01*
Y89698D01*
X396641Y92703D01*
X396642Y92704D01*
X396643Y92704D01*
X396650Y92714D01*
X396657Y92724D01*
X396657Y92725D01*
X396658Y92726D01*
X396662Y92737D01*
X396667Y92748D01*
X396667Y92749D01*
X396668Y92750D01*
X396669Y92762D01*
X396671Y92774D01*
Y92774D01*
X396670Y92775D01*
X396671Y92777D01*
X396669Y92788D01*
X396667Y92800D01*
X396667Y92801D01*
X396666Y92803D01*
X396661Y92814D01*
X396657Y92824D01*
X396656Y92825D01*
X396656Y92827D01*
X396648Y92836D01*
X396641Y92845D01*
X396640Y92846D01*
X396639Y92847D01*
X396630Y92854D01*
X396620Y92861D01*
X396619Y92862D01*
X396618Y92863D01*
X396607Y92867D01*
X396600Y92870D01*
X396596Y92871D01*
X396595Y92872D01*
X396593Y92872D01*
X396361Y92928D01*
X395921Y93113D01*
X395517Y93366D01*
X395159Y93681D01*
X394856Y94050D01*
X394616Y94462D01*
X394445Y94908D01*
X394348Y95375D01*
X394328Y95852D01*
X394384Y96325D01*
X394516Y96784D01*
X394720Y97215D01*
X394990Y97609D01*
X395320Y97953D01*
X395701Y98240D01*
X396124Y98462D01*
X396576Y98614D01*
X397047Y98690D01*
X397524Y98690D01*
X397995Y98614D01*
D02*
G37*
G36*
X400935Y76109D02*
X397930Y73104D01*
X397930Y73103D01*
X397929Y73102D01*
X397922Y73093D01*
X397914Y73083D01*
X397914Y73082D01*
X397913Y73081D01*
X397909Y73070D01*
X397904Y73059D01*
X397904Y73058D01*
X397904Y73057D01*
X397902Y73045D01*
X397901Y73033D01*
Y73033D01*
X397901Y73032D01*
X397901Y73030D01*
X397903Y73019D01*
X397904Y73007D01*
X397905Y73006D01*
X397905Y73004D01*
X397910Y72993D01*
X397914Y72983D01*
X397915Y72982D01*
X397916Y72980D01*
X397923Y72971D01*
X397930Y72962D01*
X397931Y72961D01*
X397932Y72960D01*
X397942Y72953D01*
X397951Y72946D01*
X397952Y72945D01*
X397953Y72944D01*
X397965Y72940D01*
X397971Y72937D01*
X397975Y72935D01*
X397977Y72935D01*
X397978Y72935D01*
X398210Y72879D01*
X398650Y72694D01*
X399054Y72441D01*
X399412Y72126D01*
X399716Y71757D01*
X399956Y71345D01*
X400126Y70899D01*
X400223Y70432D01*
X400244Y69955D01*
X400187Y69481D01*
X400055Y69023D01*
X399852Y68591D01*
X399581Y68198D01*
X399251Y67854D01*
X398870Y67567D01*
X398448Y67345D01*
X397995Y67193D01*
X397524Y67117D01*
X397047Y67117D01*
X396576Y67193D01*
X396124Y67345D01*
X395701Y67567D01*
X395320Y67854D01*
X394990Y68198D01*
X394720Y68591D01*
X394516Y69023D01*
X394384Y69481D01*
X394328Y69955D01*
X394348Y70432D01*
X394445Y70899D01*
X394616Y71345D01*
X394856Y71757D01*
X395159Y72126D01*
X395517Y72441D01*
X395922Y72694D01*
X396361Y72879D01*
X396593Y72935D01*
X396595Y72935D01*
X396596Y72935D01*
X396607Y72940D01*
X396618Y72944D01*
X396619Y72945D01*
X396620Y72946D01*
X396630Y72953D01*
X396639Y72960D01*
X396640Y72961D01*
X396641Y72962D01*
X396648Y72971D01*
X396656Y72980D01*
X396656Y72982D01*
X396657Y72983D01*
X396661Y72993D01*
X396666Y73004D01*
X396667Y73006D01*
X396667Y73007D01*
X396669Y73019D01*
X396671Y73030D01*
X396670Y73032D01*
X396671Y73033D01*
X396669Y73045D01*
X396668Y73057D01*
X396667Y73058D01*
X396667Y73059D01*
X396662Y73070D01*
X396658Y73081D01*
X396657Y73082D01*
X396657Y73083D01*
X396650Y73093D01*
X396643Y73102D01*
X396642Y73103D01*
X396641Y73104D01*
X393636Y76109D01*
Y81466D01*
X400935D01*
Y76109D01*
D02*
G37*
G36*
X80698Y35455D02*
X74600D01*
Y51789D01*
X80698D01*
Y35455D01*
D02*
G37*
G36*
X70697D02*
X64600D01*
Y51789D01*
X70697D01*
Y35455D01*
D02*
G37*
G36*
X60698D02*
X54600D01*
Y51789D01*
X60698D01*
Y35455D01*
D02*
G37*
G36*
X50697D02*
X44600D01*
Y51789D01*
X50697D01*
Y35455D01*
D02*
G37*
G36*
X40698D02*
X34600D01*
Y51789D01*
X40698D01*
Y35455D01*
D02*
G37*
G36*
X30698D02*
X24600D01*
Y51789D01*
X30698D01*
Y35455D01*
D02*
G37*
G36*
X20697D02*
X14600D01*
Y51789D01*
X20697D01*
Y35455D01*
D02*
G37*
D17*
X382953Y67126D02*
D03*
X369961Y90354D02*
D03*
Y67126D02*
D03*
X382953Y90354D02*
D03*
X322953Y67126D02*
D03*
X309961Y90354D02*
D03*
Y67126D02*
D03*
X322953Y90354D02*
D03*
D18*
X358071Y115236D02*
D03*
X334842Y102244D02*
D03*
X358071D02*
D03*
X334842Y115236D02*
D03*
X358071Y85236D02*
D03*
X334842Y72244D02*
D03*
X358071D02*
D03*
X334842Y85236D02*
D03*
X358071Y55236D02*
D03*
X334842Y42244D02*
D03*
X358071D02*
D03*
X334842Y55236D02*
D03*
D19*
X353753Y147749D02*
D03*
X360259D02*
D03*
X360259Y130245D02*
D03*
X733253Y150000D02*
D03*
X353753Y130245D02*
D03*
X726747Y150000D02*
D03*
D20*
X758268Y140000D02*
D03*
X750000D02*
D03*
D21*
X700000Y110000D02*
D03*
Y118268D02*
D03*
D22*
X216063Y92913D02*
D03*
Y64567D02*
D03*
X276063Y92913D02*
D03*
Y64567D02*
D03*
X287874Y92913D02*
D03*
Y64567D02*
D03*
X227874D02*
D03*
Y92913D02*
D03*
D23*
X237795Y102835D02*
D03*
X266142D02*
D03*
X237795Y42835D02*
D03*
X266142D02*
D03*
X237795Y72835D02*
D03*
X266142D02*
D03*
X237795Y54646D02*
D03*
X266142D02*
D03*
Y84646D02*
D03*
X237795D02*
D03*
X266142Y114646D02*
D03*
X237795D02*
D03*
D24*
X710000Y123494D02*
D03*
Y130000D02*
D03*
D25*
X394929Y152256D02*
D03*
X372882D02*
D03*
D26*
X389811Y137000D02*
D03*
X385874D02*
D03*
X378000D02*
D03*
X381937D02*
D03*
D27*
X742756Y140000D02*
D03*
X737244D02*
D03*
D28*
X700000Y127244D02*
D03*
Y132756D02*
D03*
D29*
X38582Y60551D02*
D03*
X46456D02*
D03*
M02*
