G04*
G04 #@! TF.GenerationSoftware,Altium Limited,Altium Designer,26.3.0 (6)*
G04*
G04 Layer_Color=2752767*
%FSLAX25Y25*%
%MOIN*%
G70*
G04*
G04 #@! TF.SameCoordinates,015A45BF-1CEB-4936-80CA-603E909B0F41*
G04*
G04*
G04 #@! TF.FilePolarity,Positive*
G04*
G01*
G75*
%ADD93C,0.00200*%
%ADD94C,0.00267*%
D93*
X16849Y107940D02*
X17249D01*
X17649Y108340D01*
X18049Y107940D01*
X18449D01*
Y108340D01*
X18049Y108740D01*
X18449Y109140D01*
Y109540D01*
X18049D01*
X17649Y109140D01*
X17249Y109540D01*
X16849D01*
Y109140D01*
X17249Y108740D01*
X16849Y108340D01*
Y107940D01*
X26849D02*
X27249D01*
X27649Y108340D01*
X28049Y107940D01*
X28449D01*
Y108340D01*
X28049Y108740D01*
X28449Y109140D01*
Y109540D01*
X28049D01*
X27649Y109140D01*
X27249Y109540D01*
X26849D01*
Y109140D01*
X27249Y108740D01*
X26849Y108340D01*
Y107940D01*
X36849D02*
X37249D01*
X37649Y108340D01*
X38049Y107940D01*
X38449D01*
Y108340D01*
X38049Y108740D01*
X38449Y109140D01*
Y109540D01*
X38049D01*
X37649Y109140D01*
X37249Y109540D01*
X36849D01*
Y109140D01*
X37249Y108740D01*
X36849Y108340D01*
Y107940D01*
X46849D02*
X47249D01*
X47649Y108340D01*
X48049Y107940D01*
X48449D01*
Y108340D01*
X48049Y108740D01*
X48449Y109140D01*
Y109540D01*
X48049D01*
X47649Y109140D01*
X47249Y109540D01*
X46849D01*
Y109140D01*
X47249Y108740D01*
X46849Y108340D01*
Y107940D01*
X56849D02*
X57249D01*
X57649Y108340D01*
X58049Y107940D01*
X58449D01*
Y108340D01*
X58049Y108740D01*
X58449Y109140D01*
Y109540D01*
X58049D01*
X57649Y109140D01*
X57249Y109540D01*
X56849D01*
Y109140D01*
X57249Y108740D01*
X56849Y108340D01*
Y107940D01*
X66849D02*
X67249D01*
X67649Y108340D01*
X68049Y107940D01*
X68449D01*
Y108340D01*
X68049Y108740D01*
X68449Y109140D01*
Y109540D01*
X68049D01*
X67649Y109140D01*
X67249Y109540D01*
X66849D01*
Y109140D01*
X67249Y108740D01*
X66849Y108340D01*
Y107940D01*
X76849D02*
X77249D01*
X77649Y108340D01*
X78049Y107940D01*
X78449D01*
Y108340D01*
X78049Y108740D01*
X78449Y109140D01*
Y109540D01*
X78049D01*
X77649Y109140D01*
X77249Y109540D01*
X76849D01*
Y109140D01*
X77249Y108740D01*
X76849Y108340D01*
Y107940D01*
Y47940D02*
X77249D01*
X77649Y48340D01*
X78049Y47940D01*
X78449D01*
Y48340D01*
X78049Y48740D01*
X78449Y49140D01*
Y49540D01*
X78049D01*
X77649Y49140D01*
X77249Y49540D01*
X76849D01*
Y49140D01*
X77249Y48740D01*
X76849Y48340D01*
Y47940D01*
X66849D02*
X67249D01*
X67649Y48340D01*
X68049Y47940D01*
X68449D01*
Y48340D01*
X68049Y48740D01*
X68449Y49140D01*
Y49540D01*
X68049D01*
X67649Y49140D01*
X67249Y49540D01*
X66849D01*
Y49140D01*
X67249Y48740D01*
X66849Y48340D01*
Y47940D01*
X56849D02*
X57249D01*
X57649Y48340D01*
X58049Y47940D01*
X58449D01*
Y48340D01*
X58049Y48740D01*
X58449Y49140D01*
Y49540D01*
X58049D01*
X57649Y49140D01*
X57249Y49540D01*
X56849D01*
Y49140D01*
X57249Y48740D01*
X56849Y48340D01*
Y47940D01*
X46849D02*
X47249D01*
X47649Y48340D01*
X48049Y47940D01*
X48449D01*
Y48340D01*
X48049Y48740D01*
X48449Y49140D01*
Y49540D01*
X48049D01*
X47649Y49140D01*
X47249Y49540D01*
X46849D01*
Y49140D01*
X47249Y48740D01*
X46849Y48340D01*
Y47940D01*
X36849D02*
X37249D01*
X37649Y48340D01*
X38049Y47940D01*
X38449D01*
Y48340D01*
X38049Y48740D01*
X38449Y49140D01*
Y49540D01*
X38049D01*
X37649Y49140D01*
X37249Y49540D01*
X36849D01*
Y49140D01*
X37249Y48740D01*
X36849Y48340D01*
Y47940D01*
X26849D02*
X27249D01*
X27649Y48340D01*
X28049Y47940D01*
X28449D01*
Y48340D01*
X28049Y48740D01*
X28449Y49140D01*
Y49540D01*
X28049D01*
X27649Y49140D01*
X27249Y49540D01*
X26849D01*
Y49140D01*
X27249Y48740D01*
X26849Y48340D01*
Y47940D01*
X16849D02*
X17249D01*
X17649Y48340D01*
X18049Y47940D01*
X18449D01*
Y48340D01*
X18049Y48740D01*
X18449Y49140D01*
Y49540D01*
X18049D01*
X17649Y49140D01*
X17249Y49540D01*
X16849D01*
Y49140D01*
X17249Y48740D01*
X16849Y48340D01*
Y47940D01*
X38582Y59751D02*
X38982Y60151D01*
X39382D01*
X38982Y60551D01*
X39382Y60951D01*
X38982D01*
X38582Y61351D01*
X38182Y60951D01*
X37782D01*
X38182Y60551D01*
X37782Y60151D01*
X38182D01*
X38582Y59751D01*
X46456D02*
X46856Y60151D01*
X47256D01*
X46856Y60551D01*
X47256Y60951D01*
X46856D01*
X46456Y61351D01*
X46056Y60951D01*
X45656D01*
X46056Y60551D01*
X45656Y60151D01*
X46056D01*
X46456Y59751D01*
X740000Y99200D02*
X740400Y99600D01*
X740800D01*
X740400Y100000D01*
X740800Y100400D01*
X740400D01*
X740000Y100800D01*
X739600Y100400D01*
X739200D01*
X739600Y100000D01*
X739200Y99600D01*
X739600D01*
X740000Y99200D01*
Y109200D02*
X740400Y109600D01*
X740800D01*
X740400Y110000D01*
X740800Y110400D01*
X740400D01*
X740000Y110800D01*
X739600Y110400D01*
X739200D01*
X739600Y110000D01*
X739200Y109600D01*
X739600D01*
X740000Y109200D01*
Y119200D02*
X740400Y119600D01*
X740800D01*
X740400Y120000D01*
X740800Y120400D01*
X740400D01*
X740000Y120800D01*
X739600Y120400D01*
X739200D01*
X739600Y120000D01*
X739200Y119600D01*
X739600D01*
X740000Y119200D01*
Y129200D02*
X740400Y129600D01*
X740800D01*
X740400Y130000D01*
X740800Y130400D01*
X740400D01*
X740000Y130800D01*
X739600Y130400D01*
X739200D01*
X739600Y130000D01*
X739200Y129600D01*
X739600D01*
X740000Y129200D01*
X575000Y124200D02*
X575400Y124600D01*
X575800D01*
X575400Y125000D01*
X575800Y125400D01*
X575400D01*
X575000Y125800D01*
X574600Y125400D01*
X574200D01*
X574600Y125000D01*
X574200Y124600D01*
X574600D01*
X575000Y124200D01*
X565000D02*
X565400Y124600D01*
X565800D01*
X565400Y125000D01*
X565800Y125400D01*
X565400D01*
X565000Y125800D01*
X564600Y125400D01*
X564200D01*
X564600Y125000D01*
X564200Y124600D01*
X564600D01*
X565000Y124200D01*
X555000D02*
X555400Y124600D01*
X555800D01*
X555400Y125000D01*
X555800Y125400D01*
X555400D01*
X555000Y125800D01*
X554600Y125400D01*
X554200D01*
X554600Y125000D01*
X554200Y124600D01*
X554600D01*
X555000Y124200D01*
X545000D02*
X545400Y124600D01*
X545800D01*
X545400Y125000D01*
X545800Y125400D01*
X545400D01*
X545000Y125800D01*
X544600Y125400D01*
X544200D01*
X544600Y125000D01*
X544200Y124600D01*
X544600D01*
X545000Y124200D01*
X620319Y121752D02*
X619519Y123352D01*
X621118D01*
X620319Y121752D01*
Y96079D02*
X619519Y97679D01*
X621118D01*
X620319Y96079D01*
X790000Y69200D02*
X790400Y69600D01*
X790800D01*
X790400Y70000D01*
X790800Y70400D01*
X790400D01*
X790000Y70800D01*
X789600Y70400D01*
X789200D01*
X789600Y70000D01*
X789200Y69600D01*
X789600D01*
X790000Y69200D01*
X780000Y69200D02*
X780400Y69600D01*
X780800D01*
X780400Y70000D01*
X780800Y70400D01*
X780400D01*
X780000Y70800D01*
X779600Y70400D01*
X779200D01*
X779600Y70000D01*
X779200Y69600D01*
X779600D01*
X780000Y69200D01*
X790000Y79200D02*
X790400Y79600D01*
X790800D01*
X790400Y80000D01*
X790800Y80400D01*
X790400D01*
X790000Y80800D01*
X789600Y80400D01*
X789200D01*
X789600Y80000D01*
X789200Y79600D01*
X789600D01*
X790000Y79200D01*
X780000Y79200D02*
X780400Y79600D01*
X780800D01*
X780400Y80000D01*
X780800Y80400D01*
X780400D01*
X780000Y80800D01*
X779600Y80400D01*
X779200D01*
X779600Y80000D01*
X779200Y79600D01*
X779600D01*
X780000Y79200D01*
X565000Y144200D02*
X565400Y144600D01*
X565800D01*
X565400Y145000D01*
X565800Y145400D01*
X565400D01*
X565000Y145800D01*
X564600Y145400D01*
X564200D01*
X564600Y145000D01*
X564200Y144600D01*
X564600D01*
X565000Y144200D01*
X575000D02*
X575400Y144600D01*
X575800D01*
X575400Y145000D01*
X575800Y145400D01*
X575400D01*
X575000Y145800D01*
X574600Y145400D01*
X574200D01*
X574600Y145000D01*
X574200Y144600D01*
X574600D01*
X575000Y144200D01*
X545000D02*
X545400Y144600D01*
X545800D01*
X545400Y145000D01*
X545800Y145400D01*
X545400D01*
X545000Y145800D01*
X544600Y145400D01*
X544200D01*
X544600Y145000D01*
X544200Y144600D01*
X544600D01*
X545000Y144200D01*
X555000D02*
X555400Y144600D01*
X555800D01*
X555400Y145000D01*
X555800Y145400D01*
X555400D01*
X555000Y145800D01*
X554600Y145400D01*
X554200D01*
X554600Y145000D01*
X554200Y144600D01*
X554600D01*
X555000Y144200D01*
X730000Y129200D02*
X730400Y129600D01*
X730800D01*
X730400Y130000D01*
X730800Y130400D01*
X730400D01*
X730000Y130800D01*
X729600Y130400D01*
X729200D01*
X729600Y130000D01*
X729200Y129600D01*
X729600D01*
X730000Y129200D01*
Y119200D02*
X730400Y119600D01*
X730800D01*
X730400Y120000D01*
X730800Y120400D01*
X730400D01*
X730000Y120800D01*
X729600Y120400D01*
X729200D01*
X729600Y120000D01*
X729200Y119600D01*
X729600D01*
X730000Y119200D01*
Y109200D02*
X730400Y109600D01*
X730800D01*
X730400Y110000D01*
X730800Y110400D01*
X730400D01*
X730000Y110800D01*
X729600Y110400D01*
X729200D01*
X729600Y110000D01*
X729200Y109600D01*
X729600D01*
X730000Y109200D01*
Y99200D02*
X730400Y99600D01*
X730800D01*
X730400Y100000D01*
X730800Y100400D01*
X730400D01*
X730000Y100800D01*
X729600Y100400D01*
X729200D01*
X729600Y100000D01*
X729200Y99600D01*
X729600D01*
X730000Y99200D01*
X489843Y72940D02*
X490242Y73340D01*
X490642D01*
X490242Y73740D01*
X490642Y74140D01*
X490242D01*
X489843Y74540D01*
X489442Y74140D01*
X489043D01*
X489442Y73740D01*
X489043Y73340D01*
X489442D01*
X489843Y72940D01*
Y52940D02*
X490242Y53340D01*
X490642D01*
X490242Y53740D01*
X490642Y54140D01*
X490242D01*
X489843Y54540D01*
X489442Y54140D01*
X489043D01*
X489442Y53740D01*
X489043Y53340D01*
X489442D01*
X489843Y52940D01*
Y62940D02*
X490242Y63340D01*
X490642D01*
X490242Y63740D01*
X490642Y64140D01*
X490242D01*
X489843Y64540D01*
X489442Y64140D01*
X489043D01*
X489442Y63740D01*
X489043Y63340D01*
X489442D01*
X489843Y62940D01*
Y82940D02*
X490242Y83340D01*
X490642D01*
X490242Y83740D01*
X490642Y84140D01*
X490242D01*
X489843Y84540D01*
X489442Y84140D01*
X489043D01*
X489442Y83740D01*
X489043Y83340D01*
X489442D01*
X489843Y82940D01*
Y92940D02*
X490242Y93340D01*
X490642D01*
X490242Y93740D01*
X490642Y94140D01*
X490242D01*
X489843Y94540D01*
X489442Y94140D01*
X489043D01*
X489442Y93740D01*
X489043Y93340D01*
X489442D01*
X489843Y92940D01*
Y102940D02*
X490242Y103340D01*
X490642D01*
X490242Y103740D01*
X490642Y104140D01*
X490242D01*
X489843Y104540D01*
X489442Y104140D01*
X489043D01*
X489442Y103740D01*
X489043Y103340D01*
X489442D01*
X489843Y102940D01*
X720000Y99200D02*
X720400Y99600D01*
X720800D01*
X720400Y100000D01*
X720800Y100400D01*
X720400D01*
X720000Y100800D01*
X719600Y100400D01*
X719200D01*
X719600Y100000D01*
X719200Y99600D01*
X719600D01*
X720000Y99200D01*
Y109200D02*
X720400Y109600D01*
X720800D01*
X720400Y110000D01*
X720800Y110400D01*
X720400D01*
X720000Y110800D01*
X719600Y110400D01*
X719200D01*
X719600Y110000D01*
X719200Y109600D01*
X719600D01*
X720000Y109200D01*
Y119200D02*
X720400Y119600D01*
X720800D01*
X720400Y120000D01*
X720800Y120400D01*
X720400D01*
X720000Y120800D01*
X719600Y120400D01*
X719200D01*
X719600Y120000D01*
X719200Y119600D01*
X719600D01*
X720000Y119200D01*
Y129200D02*
X720400Y129600D01*
X720800D01*
X720400Y130000D01*
X720800Y130400D01*
X720400D01*
X720000Y130800D01*
X719600Y130400D01*
X719200D01*
X719600Y130000D01*
X719200Y129600D01*
X719600D01*
X720000Y129200D01*
X575000Y134200D02*
X575400Y134600D01*
X575800D01*
X575400Y135000D01*
X575800Y135400D01*
X575400D01*
X575000Y135800D01*
X574600Y135400D01*
X574200D01*
X574600Y135000D01*
X574200Y134600D01*
X574600D01*
X575000Y134200D01*
X565000D02*
X565400Y134600D01*
X565800D01*
X565400Y135000D01*
X565800Y135400D01*
X565400D01*
X565000Y135800D01*
X564600Y135400D01*
X564200D01*
X564600Y135000D01*
X564200Y134600D01*
X564600D01*
X565000Y134200D01*
X555000D02*
X555400Y134600D01*
X555800D01*
X555400Y135000D01*
X555800Y135400D01*
X555400D01*
X555000Y135800D01*
X554600Y135400D01*
X554200D01*
X554600Y135000D01*
X554200Y134600D01*
X554600D01*
X555000Y134200D01*
X545000D02*
X545400Y134600D01*
X545800D01*
X545400Y135000D01*
X545800Y135400D01*
X545400D01*
X545000Y135800D01*
X544600Y135400D01*
X544200D01*
X544600Y135000D01*
X544200Y134600D01*
X544600D01*
X545000Y134200D01*
X690318Y96079D02*
X689518Y97679D01*
X691118D01*
X690318Y96079D01*
Y121752D02*
X689518Y123352D01*
X691118D01*
X690318Y121752D01*
X680318Y96079D02*
X679519Y97679D01*
X681118D01*
X680318Y96079D01*
Y121752D02*
X679519Y123352D01*
X681118D01*
X680318Y121752D01*
X670319Y96079D02*
X669519Y97679D01*
X671118D01*
X670319Y96079D01*
Y121752D02*
X669519Y123352D01*
X671118D01*
X670319Y121752D01*
X660319Y96079D02*
X659518Y97679D01*
X661119D01*
X660319Y96079D01*
Y121752D02*
X659518Y123352D01*
X661119D01*
X660319Y121752D01*
X650318Y96079D02*
X649518Y97679D01*
X651119D01*
X650318Y96079D01*
Y121752D02*
X649518Y123352D01*
X651119D01*
X650318Y121752D01*
X640318Y96079D02*
X639518Y97679D01*
X641118D01*
X640318Y96079D01*
Y121752D02*
X639518Y123352D01*
X641118D01*
X640318Y121752D01*
X630318Y96079D02*
X629519Y97679D01*
X631118D01*
X630318Y96079D01*
Y121752D02*
X629519Y123352D01*
X631118D01*
X630318Y121752D01*
X610319Y96079D02*
X609518Y97679D01*
X611119D01*
X610319Y96079D01*
Y121752D02*
X609518Y123352D01*
X611119D01*
X610319Y121752D01*
X600318Y96079D02*
X599518Y97679D01*
X601119D01*
X600318Y96079D01*
Y121752D02*
X599518Y123352D01*
X601119D01*
X600318Y121752D01*
X590318Y96079D02*
X589518Y97679D01*
X591118D01*
X590318Y96079D01*
Y121752D02*
X589518Y123352D01*
X591118D01*
X590318Y121752D01*
X8748Y139210D02*
X9148Y140010D01*
X8748Y140810D01*
X9548Y140410D01*
X10348Y140810D01*
X9948Y140010D01*
X10348Y139210D01*
X9548Y139610D01*
X8748Y139210D01*
Y147084D02*
X9148Y147884D01*
X8748Y148684D01*
X9548Y148284D01*
X10348Y148684D01*
X9948Y147884D01*
X10348Y147084D01*
X9548Y147484D01*
X8748Y147084D01*
X500827Y72940D02*
X501227Y73340D01*
X501627D01*
X501227Y73740D01*
X501627Y74140D01*
X501227D01*
X500827Y74540D01*
X500427Y74140D01*
X500027D01*
X500427Y73740D01*
X500027Y73340D01*
X500427D01*
X500827Y72940D01*
Y102940D02*
X501227Y103340D01*
X501627D01*
X501227Y103740D01*
X501627Y104140D01*
X501227D01*
X500827Y104540D01*
X500427Y104140D01*
X500027D01*
X500427Y103740D01*
X500027Y103340D01*
X500427D01*
X500827Y102940D01*
Y52940D02*
X501227Y53340D01*
X501627D01*
X501227Y53740D01*
X501627Y54140D01*
X501227D01*
X500827Y54540D01*
X500427Y54140D01*
X500027D01*
X500427Y53740D01*
X500027Y53340D01*
X500427D01*
X500827Y52940D01*
Y62940D02*
X501227Y63340D01*
X501627D01*
X501227Y63740D01*
X501627Y64140D01*
X501227D01*
X500827Y64540D01*
X500427Y64140D01*
X500027D01*
X500427Y63740D01*
X500027Y63340D01*
X500427D01*
X500827Y62940D01*
Y92940D02*
X501227Y93340D01*
X501627D01*
X501227Y93740D01*
X501627Y94140D01*
X501227D01*
X500827Y94540D01*
X500427Y94140D01*
X500027D01*
X500427Y93740D01*
X500027Y93340D01*
X500427D01*
X500827Y92940D01*
Y82940D02*
X501227Y83340D01*
X501627D01*
X501227Y83740D01*
X501627Y84140D01*
X501227D01*
X500827Y84540D01*
X500427Y84140D01*
X500027D01*
X500427Y83740D01*
X500027Y83340D01*
X500427D01*
X500827Y82940D01*
X780000Y119200D02*
X780400Y119600D01*
X780800D01*
X780400Y120000D01*
X780800Y120400D01*
X780400D01*
X780000Y120800D01*
X779600Y120400D01*
X779200D01*
X779600Y120000D01*
X779200Y119600D01*
X779600D01*
X780000Y119200D01*
X790000Y119200D02*
X790400Y119600D01*
X790800D01*
X790400Y120000D01*
X790800Y120400D01*
X790400D01*
X790000Y120800D01*
X789600Y120400D01*
X789200D01*
X789600Y120000D01*
X789200Y119600D01*
X789600D01*
X790000Y119200D01*
X789991Y129177D02*
X790391Y129577D01*
X790791D01*
X790391Y129977D01*
X790791Y130377D01*
X790391D01*
X789991Y130777D01*
X789591Y130377D01*
X789191D01*
X789591Y129977D01*
X789191Y129577D01*
X789591D01*
X789991Y129177D01*
X779990Y129177D02*
X780390Y129577D01*
X780790D01*
X780390Y129977D01*
X780790Y130377D01*
X780390D01*
X779990Y130777D01*
X779590Y130377D01*
X779190D01*
X779590Y129977D01*
X779190Y129577D01*
X779590D01*
X779990Y129177D01*
X780000Y109200D02*
X780400Y109600D01*
X780800D01*
X780400Y110000D01*
X780800Y110400D01*
X780400D01*
X780000Y110800D01*
X779600Y110400D01*
X779200D01*
X779600Y110000D01*
X779200Y109600D01*
X779600D01*
X780000Y109200D01*
Y99200D02*
X780400Y99600D01*
X780800D01*
X780400Y100000D01*
X780800Y100400D01*
X780400D01*
X780000Y100800D01*
X779600Y100400D01*
X779200D01*
X779600Y100000D01*
X779200Y99600D01*
X779600D01*
X780000Y99200D01*
Y29200D02*
X780400Y29600D01*
X780800D01*
X780400Y30000D01*
X780800Y30400D01*
X780400D01*
X780000Y30800D01*
X779600Y30400D01*
X779200D01*
X779600Y30000D01*
X779200Y29600D01*
X779600D01*
X780000Y29200D01*
Y89200D02*
X780400Y89600D01*
X780800D01*
X780400Y90000D01*
X780800Y90400D01*
X780400D01*
X780000Y90800D01*
X779600Y90400D01*
X779200D01*
X779600Y90000D01*
X779200Y89600D01*
X779600D01*
X780000Y89200D01*
Y59200D02*
X780400Y59600D01*
X780800D01*
X780400Y60000D01*
X780800Y60400D01*
X780400D01*
X780000Y60800D01*
X779600Y60400D01*
X779200D01*
X779600Y60000D01*
X779200Y59600D01*
X779600D01*
X780000Y59200D01*
Y49200D02*
X780400Y49600D01*
X780800D01*
X780400Y50000D01*
X780800Y50400D01*
X780400D01*
X780000Y50800D01*
X779600Y50400D01*
X779200D01*
X779600Y50000D01*
X779200Y49600D01*
X779600D01*
X780000Y49200D01*
Y39200D02*
X780400Y39600D01*
X780800D01*
X780400Y40000D01*
X780800Y40400D01*
X780400D01*
X780000Y40800D01*
X779600Y40400D01*
X779200D01*
X779600Y40000D01*
X779200Y39600D01*
X779600D01*
X780000Y39200D01*
X211446Y124883D02*
X212246Y125683D01*
X213046Y124883D01*
X212246Y124083D01*
X211446Y124883D01*
X198847Y94489D02*
X199647Y95289D01*
X200447Y94489D01*
X199647Y93689D01*
X198847Y94489D01*
X178847Y68387D02*
X179647Y69187D01*
X180447Y68387D01*
X179647Y67587D01*
X178847Y68387D01*
X152745Y48387D02*
X153545Y49187D01*
X154345Y48387D01*
X153545Y47587D01*
X152745Y48387D01*
X122351Y35788D02*
X123151Y36588D01*
X123951Y35788D01*
X123151Y34988D01*
X122351Y35788D01*
X89753Y31497D02*
X90553Y32297D01*
X91353Y31497D01*
X90553Y30697D01*
X89753Y31497D01*
X850000Y149200D02*
X850400Y149600D01*
X850800D01*
X850400Y150000D01*
X850800Y150400D01*
X850400D01*
X850000Y150800D01*
X849600Y150400D01*
X849200D01*
X849600Y150000D01*
X849200Y149600D01*
X849600D01*
X850000Y149200D01*
Y139200D02*
X850400Y139600D01*
X850800D01*
X850400Y140000D01*
X850800Y140400D01*
X850400D01*
X850000Y140800D01*
X849600Y140400D01*
X849200D01*
X849600Y140000D01*
X849200Y139600D01*
X849600D01*
X850000Y139200D01*
Y129200D02*
X850400Y129600D01*
X850800D01*
X850400Y130000D01*
X850800Y130400D01*
X850400D01*
X850000Y130800D01*
X849600Y130400D01*
X849200D01*
X849600Y130000D01*
X849200Y129600D01*
X849600D01*
X850000Y129200D01*
Y119200D02*
X850400Y119600D01*
X850800D01*
X850400Y120000D01*
X850800Y120400D01*
X850400D01*
X850000Y120800D01*
X849600Y120400D01*
X849200D01*
X849600Y120000D01*
X849200Y119600D01*
X849600D01*
X850000Y119200D01*
Y109200D02*
X850400Y109600D01*
X850800D01*
X850400Y110000D01*
X850800Y110400D01*
X850400D01*
X850000Y110800D01*
X849600Y110400D01*
X849200D01*
X849600Y110000D01*
X849200Y109600D01*
X849600D01*
X850000Y109200D01*
Y99200D02*
X850400Y99600D01*
X850800D01*
X850400Y100000D01*
X850800Y100400D01*
X850400D01*
X850000Y100800D01*
X849600Y100400D01*
X849200D01*
X849600Y100000D01*
X849200Y99600D01*
X849600D01*
X850000Y99200D01*
Y89200D02*
X850400Y89600D01*
X850800D01*
X850400Y90000D01*
X850800Y90400D01*
X850400D01*
X850000Y90800D01*
X849600Y90400D01*
X849200D01*
X849600Y90000D01*
X849200Y89600D01*
X849600D01*
X850000Y89200D01*
Y79200D02*
X850400Y79600D01*
X850800D01*
X850400Y80000D01*
X850800Y80400D01*
X850400D01*
X850000Y80800D01*
X849600Y80400D01*
X849200D01*
X849600Y80000D01*
X849200Y79600D01*
X849600D01*
X850000Y79200D01*
Y69200D02*
X850400Y69600D01*
X850800D01*
X850400Y70000D01*
X850800Y70400D01*
X850400D01*
X850000Y70800D01*
X849600Y70400D01*
X849200D01*
X849600Y70000D01*
X849200Y69600D01*
X849600D01*
X850000Y69200D01*
Y59200D02*
X850400Y59600D01*
X850800D01*
X850400Y60000D01*
X850800Y60400D01*
X850400D01*
X850000Y60800D01*
X849600Y60400D01*
X849200D01*
X849600Y60000D01*
X849200Y59600D01*
X849600D01*
X850000Y59200D01*
Y49200D02*
X850400Y49600D01*
X850800D01*
X850400Y50000D01*
X850800Y50400D01*
X850400D01*
X850000Y50800D01*
X849600Y50400D01*
X849200D01*
X849600Y50000D01*
X849200Y49600D01*
X849600D01*
X850000Y49200D01*
Y39200D02*
X850400Y39600D01*
X850800D01*
X850400Y40000D01*
X850800Y40400D01*
X850400D01*
X850000Y40800D01*
X849600Y40400D01*
X849200D01*
X849600Y40000D01*
X849200Y39600D01*
X849600D01*
X850000Y39200D01*
Y29200D02*
X850400Y29600D01*
X850800D01*
X850400Y30000D01*
X850800Y30400D01*
X850400D01*
X850000Y30800D01*
X849600Y30400D01*
X849200D01*
X849600Y30000D01*
X849200Y29600D01*
X849600D01*
X850000Y29200D01*
X810000Y139201D02*
X809200Y140801D01*
X810800D01*
X810000Y139201D01*
X835673D02*
X834873Y140801D01*
X836473D01*
X835673Y139201D01*
X810000Y149201D02*
X809200Y150801D01*
X810800D01*
X810000Y149201D01*
X835673D02*
X834873Y150801D01*
X836473D01*
X835673Y149201D01*
Y29200D02*
X834873Y30800D01*
X836473D01*
X835673Y29200D01*
X810000D02*
X809200Y30800D01*
X810800D01*
X810000Y29200D01*
X590318Y136079D02*
X590719Y136479D01*
X591118D01*
X590719Y136879D01*
X591118Y137279D01*
X590719D01*
X590318Y137679D01*
X589919Y137279D01*
X589518D01*
X589919Y136879D01*
X589518Y136479D01*
X589919D01*
X590318Y136079D01*
X600318D02*
X600718Y136479D01*
X601119D01*
X600718Y136879D01*
X601119Y137279D01*
X600718D01*
X600318Y137679D01*
X599919Y137279D01*
X599518D01*
X599919Y136879D01*
X599518Y136479D01*
X599919D01*
X600318Y136079D01*
X610319D02*
X610718Y136479D01*
X611119D01*
X610718Y136879D01*
X611119Y137279D01*
X610718D01*
X610319Y137679D01*
X609918Y137279D01*
X609518D01*
X609918Y136879D01*
X609518Y136479D01*
X609918D01*
X610319Y136079D01*
X620319D02*
X620718Y136479D01*
X621118D01*
X620718Y136879D01*
X621118Y137279D01*
X620718D01*
X620319Y137679D01*
X619918Y137279D01*
X619519D01*
X619918Y136879D01*
X619519Y136479D01*
X619918D01*
X620319Y136079D01*
X630318D02*
X630719Y136479D01*
X631118D01*
X630719Y136879D01*
X631118Y137279D01*
X630719D01*
X630318Y137679D01*
X629918Y137279D01*
X629519D01*
X629918Y136879D01*
X629519Y136479D01*
X629918D01*
X630318Y136079D01*
X640318D02*
X640719Y136479D01*
X641118D01*
X640719Y136879D01*
X641118Y137279D01*
X640719D01*
X640318Y137679D01*
X639919Y137279D01*
X639518D01*
X639919Y136879D01*
X639518Y136479D01*
X639919D01*
X640318Y136079D01*
X650318D02*
X650718Y136479D01*
X651119D01*
X650718Y136879D01*
X651119Y137279D01*
X650718D01*
X650318Y137679D01*
X649919Y137279D01*
X649518D01*
X649919Y136879D01*
X649518Y136479D01*
X649919D01*
X650318Y136079D01*
X660319D02*
X660718Y136479D01*
X661119D01*
X660718Y136879D01*
X661119Y137279D01*
X660718D01*
X660319Y137679D01*
X659918Y137279D01*
X659518D01*
X659918Y136879D01*
X659518Y136479D01*
X659918D01*
X660319Y136079D01*
X670319D02*
X670718Y136479D01*
X671118D01*
X670718Y136879D01*
X671118Y137279D01*
X670718D01*
X670319Y137679D01*
X669918Y137279D01*
X669519D01*
X669918Y136879D01*
X669519Y136479D01*
X669918D01*
X670319Y136079D01*
X680318D02*
X680719Y136479D01*
X681118D01*
X680719Y136879D01*
X681118Y137279D01*
X680719D01*
X680318Y137679D01*
X679918Y137279D01*
X679519D01*
X679918Y136879D01*
X679519Y136479D01*
X679918D01*
X680318Y136079D01*
X690295Y136088D02*
X690695Y136488D01*
X691095D01*
X690695Y136888D01*
X691095Y137288D01*
X690695D01*
X690295Y137688D01*
X689895Y137288D01*
X689495D01*
X689895Y136888D01*
X689495Y136488D01*
X689895D01*
X690295Y136088D01*
X835673Y89200D02*
X834873Y90800D01*
X836473D01*
X835673Y89200D01*
X810000D02*
X809200Y90800D01*
X810800D01*
X810000Y89200D01*
X835673Y109200D02*
X834873Y110800D01*
X836473D01*
X835673Y109200D01*
X810000D02*
X809200Y110800D01*
X810800D01*
X810000Y109200D01*
X835673Y129200D02*
X834873Y130800D01*
X836473D01*
X835673Y129200D01*
X810000D02*
X809200Y130800D01*
X810800D01*
X810000Y129200D01*
X790000Y89200D02*
X790400Y89600D01*
X790800D01*
X790400Y90000D01*
X790800Y90400D01*
X790400D01*
X790000Y90800D01*
X789600Y90400D01*
X789200D01*
X789600Y90000D01*
X789200Y89600D01*
X789600D01*
X790000Y89200D01*
Y59200D02*
X790400Y59600D01*
X790800D01*
X790400Y60000D01*
X790800Y60400D01*
X790400D01*
X790000Y60800D01*
X789600Y60400D01*
X789200D01*
X789600Y60000D01*
X789200Y59600D01*
X789600D01*
X790000Y59200D01*
Y29200D02*
X790400Y29600D01*
X790800D01*
X790400Y30000D01*
X790800Y30400D01*
X790400D01*
X790000Y30800D01*
X789600Y30400D01*
X789200D01*
X789600Y30000D01*
X789200Y29600D01*
X789600D01*
X790000Y29200D01*
Y49200D02*
X790400Y49600D01*
X790800D01*
X790400Y50000D01*
X790800Y50400D01*
X790400D01*
X790000Y50800D01*
X789600Y50400D01*
X789200D01*
X789600Y50000D01*
X789200Y49600D01*
X789600D01*
X790000Y49200D01*
Y39200D02*
X790400Y39600D01*
X790800D01*
X790400Y40000D01*
X790800Y40400D01*
X790400D01*
X790000Y40800D01*
X789600Y40400D01*
X789200D01*
X789600Y40000D01*
X789200Y39600D01*
X789600D01*
X790000Y39200D01*
Y99200D02*
X790400Y99600D01*
X790800D01*
X790400Y100000D01*
X790800Y100400D01*
X790400D01*
X790000Y100800D01*
X789600Y100400D01*
X789200D01*
X789600Y100000D01*
X789200Y99600D01*
X789600D01*
X790000Y99200D01*
Y109200D02*
X790400Y109600D01*
X790800D01*
X790400Y110000D01*
X790800Y110400D01*
X790400D01*
X790000Y110800D01*
X789600Y110400D01*
X789200D01*
X789600Y110000D01*
X789200Y109600D01*
X789600D01*
X790000Y109200D01*
X810000Y39200D02*
X809200Y40800D01*
X810800D01*
X810000Y39200D01*
X835673D02*
X834873Y40800D01*
X836473D01*
X835673Y39200D01*
X810000Y49200D02*
X809200Y50800D01*
X810800D01*
X810000Y49200D01*
X835673D02*
X834873Y50800D01*
X836473D01*
X835673Y49200D01*
X810000Y59200D02*
X809200Y60800D01*
X810800D01*
X810000Y59200D01*
X835673D02*
X834873Y60800D01*
X836473D01*
X835673Y59200D01*
X810000Y69200D02*
X809200Y70800D01*
X810800D01*
X810000Y69200D01*
X835673D02*
X834873Y70800D01*
X836473D01*
X835673Y69200D01*
X810000Y79200D02*
X809200Y80800D01*
X810800D01*
X810000Y79200D01*
X835673D02*
X834873Y80800D01*
X836473D01*
X835673Y79200D01*
X810000Y99200D02*
X809200Y100800D01*
X810800D01*
X810000Y99200D01*
X835673D02*
X834873Y100800D01*
X836473D01*
X835673Y99200D01*
X810000Y119200D02*
X809200Y120800D01*
X810800D01*
X810000Y119200D01*
X835673D02*
X834873Y120800D01*
X836473D01*
X835673Y119200D01*
X394529Y151856D02*
Y151456D01*
X395329D01*
Y151856D01*
X395729D01*
Y152656D01*
X395329D01*
Y153056D01*
X394529D01*
Y152656D01*
X394129D01*
Y151856D01*
X394529D01*
X372482D02*
Y151456D01*
X373282D01*
Y151856D01*
X373682D01*
Y152656D01*
X373282D01*
Y153056D01*
X372482D01*
Y152656D01*
X372082D01*
Y151856D01*
X372482D01*
D94*
X740800Y150000D02*
G03*
X740800Y150000I-800J0D01*
G01*
X763321Y139858D02*
G03*
X763321Y139858I-800J0D01*
G01*
X700707Y105759D02*
G03*
X700707Y105759I-800J0D01*
G01*
X365656Y130223D02*
G03*
X365656Y130223I-800J0D01*
G01*
X216800Y99434D02*
G03*
X216800Y99434I-800J0D01*
G01*
X89449Y141750D02*
G03*
X89449Y141750I-800J0D01*
G01*
X113837Y124438D02*
G03*
X113837Y124438I-800J0D01*
G01*
X89044Y132094D02*
G03*
X89044Y132094I-800J0D01*
G01*
X705300Y56500D02*
G03*
X705300Y56500I-800J0D01*
G01*
X700800Y80000D02*
G03*
X700800Y80000I-800J0D01*
G01*
X95863Y144230D02*
G03*
X95863Y144230I-800J0D01*
G01*
X585075Y12075D02*
G03*
X585075Y12075I-800J0D01*
G01*
X583686Y8475D02*
G03*
X583686Y8475I-800J0D01*
G01*
X583718Y4875D02*
G03*
X583718Y4875I-800J0D01*
G01*
X677300Y40500D02*
G03*
X677300Y40500I-800J0D01*
G01*
X668610Y37275D02*
G03*
X668610Y37275I-800J0D01*
G01*
X342300Y48500D02*
G03*
X342300Y48500I-800J0D01*
G01*
X326800Y102000D02*
G03*
X326800Y102000I-800J0D01*
G01*
X216800Y58500D02*
G03*
X216800Y58500I-800J0D01*
G01*
X238800Y67000D02*
G03*
X238800Y67000I-800J0D01*
G01*
X267300D02*
G03*
X267300Y67000I-800J0D01*
G01*
X276800Y58000D02*
G03*
X276800Y58000I-800J0D01*
G01*
X232800Y103000D02*
G03*
X232800Y103000I-800J0D01*
G01*
X272800Y104000D02*
G03*
X272800Y104000I-800J0D01*
G01*
X280800Y98500D02*
G03*
X280800Y98500I-800J0D01*
G01*
X273800Y42500D02*
G03*
X273800Y42500I-800J0D01*
G01*
X232739Y43016D02*
G03*
X232739Y43016I-800J0D01*
G01*
X710800Y120000D02*
G03*
X710800Y120000I-800J0D01*
G01*
X42800Y139500D02*
G03*
X42800Y139500I-800J0D01*
G01*
X36737Y147439D02*
G03*
X36737Y147439I-800J0D01*
G01*
X26300Y148500D02*
G03*
X26300Y148500I-800J0D01*
G01*
X784300Y64500D02*
G03*
X784300Y64500I-800J0D01*
G01*
X182727Y12029D02*
G03*
X182727Y12029I-800J0D01*
G01*
X384695Y15629D02*
G03*
X384695Y15629I-800J0D01*
G01*
X586695D02*
G03*
X586695Y15629I-800J0D01*
G01*
X784284Y44802D02*
G03*
X784284Y44802I-800J0D01*
G01*
X179718Y4875D02*
G03*
X179718Y4875I-800J0D01*
G01*
X381686Y8475D02*
G03*
X381686Y8475I-800J0D01*
G01*
X784300Y55000D02*
G03*
X784300Y55000I-800J0D01*
G01*
X181107Y8475D02*
G03*
X181107Y8475I-800J0D01*
G01*
X383075Y12075D02*
G03*
X383075Y12075I-800J0D01*
G01*
X785555Y35492D02*
G03*
X785555Y35492I-800J0D01*
G01*
X383150Y4875D02*
G03*
X383150Y4875I-800J0D01*
G01*
X784800Y95000D02*
G03*
X784800Y95000I-800J0D01*
G01*
X592936Y22825D02*
G03*
X592936Y22825I-800J0D01*
G01*
X390936D02*
G03*
X390936Y22825I-800J0D01*
G01*
X188935D02*
G03*
X188935Y22825I-800J0D01*
G01*
X390903Y26425D02*
G03*
X390903Y26425I-800J0D01*
G01*
X592904D02*
G03*
X592904Y26425I-800J0D01*
G01*
X282800Y47500D02*
G03*
X282800Y47500I-800J0D01*
G01*
X475414Y40875D02*
G03*
X475414Y40875I-800J0D01*
G01*
X475446Y37275D02*
G03*
X475446Y37275I-800J0D01*
G01*
X273577Y44541D02*
G03*
X273577Y44541I-800J0D01*
G01*
X264610Y37275D02*
G03*
X264610Y37275I-800J0D01*
G01*
X466610D02*
G03*
X466610Y37275I-800J0D01*
G01*
X466642Y33675D02*
G03*
X466642Y33675I-800J0D01*
G01*
X264642D02*
G03*
X264642Y33675I-800J0D01*
G01*
X260679D02*
G03*
X260679Y33675I-800J0D01*
G01*
X462679D02*
G03*
X462679Y33675I-800J0D01*
G01*
X664679D02*
G03*
X664679Y33675I-800J0D01*
G01*
X462711Y30075D02*
G03*
X462711Y30075I-800J0D01*
G01*
X260711D02*
G03*
X260711Y30075I-800J0D01*
G01*
X277437Y29975D02*
G03*
X277437Y29975I-800J0D01*
G01*
X479437D02*
G03*
X479437Y29975I-800J0D01*
G01*
X681437D02*
G03*
X681437Y29975I-800J0D01*
G01*
X479469Y26375D02*
G03*
X479469Y26375I-800J0D01*
G01*
X277469D02*
G03*
X277469Y26375I-800J0D01*
G01*
X368274Y152207D02*
G03*
X368274Y152207I-800J0D01*
G01*
X350177Y147441D02*
G03*
X350177Y147441I-800J0D01*
G01*
X393707Y135490D02*
G03*
X393707Y135490I-800J0D01*
G01*
X517332Y116026D02*
G03*
X517332Y116026I-800J0D01*
G01*
X539528Y133711D02*
G03*
X539528Y133711I-800J0D01*
G01*
X129507Y91000D02*
G03*
X129507Y91000I-800J0D01*
G01*
Y101000D02*
G03*
X129507Y101000I-800J0D01*
G01*
Y111000D02*
G03*
X129507Y111000I-800J0D01*
G01*
Y120000D02*
G03*
X129507Y120000I-800J0D01*
G01*
Y130000D02*
G03*
X129507Y130000I-800J0D01*
G01*
X432800Y61000D02*
G03*
X432800Y61000I-800J0D01*
G01*
X382681Y131889D02*
G03*
X382681Y131889I-800J0D01*
G01*
X422713Y17505D02*
G03*
X422713Y17505I-800J0D01*
G01*
X430300Y70000D02*
G03*
X430300Y70000I-800J0D01*
G01*
X378839Y130069D02*
G03*
X378839Y130069I-800J0D01*
G01*
X408087Y21039D02*
G03*
X408087Y21039I-800J0D01*
G01*
X117800Y127000D02*
G03*
X117800Y127000I-800J0D01*
G01*
X111800Y118000D02*
G03*
X111800Y118000I-800J0D01*
G01*
X105800Y108000D02*
G03*
X105800Y108000I-800J0D01*
G01*
X99800Y98000D02*
G03*
X99800Y98000I-800J0D01*
G01*
X93800Y88000D02*
G03*
X93800Y88000I-800J0D01*
G01*
X151168Y13829D02*
G03*
X151168Y13829I-800J0D01*
G01*
X150800Y27000D02*
G03*
X150800Y27000I-800J0D01*
G01*
M02*
