M48
;Layer_Color=9474304
;FILE_FORMAT=2:5
INCH,TZ
;TYPE=PLATED
T01F00S00C0.00800
T02F00S00C0.01000
T03F00S00C0.02756
T04F00S00C0.03937
T05F00S00C0.04000
T06F00S00C0.04016
;TYPE=NON_PLATED
T07F00S00C0.10630
%
T01
X372882Y152256
X394929
T02
X150367Y13829
X150000Y27000
X188136Y22825
X181927Y12029
X180307Y8475
X178919Y4875
X231939Y43016
X259879Y33675
X259911Y30075
X263842Y33675
X263810Y37275
X273000Y42500
X272777Y44541
X282000Y47500
X276637Y29975
X276670Y26375
X341500Y48500
X390104Y26425
X390136Y22825
X383895Y15629
X382275Y12075
X380886Y8475
X382349Y4875
X407287Y21039
X421913Y17505
X461911Y30075
X461879Y33675
X465842
X465810Y37275
X474646Y37275
X474614Y40875
X478637Y29975
X478670Y26375
X592103Y26425
X592135Y22825
X585895Y15629
X584275Y12075
X582886Y8475
X582919Y4875
X663879Y33675
X667810Y37275
X676500Y40500
X680637Y29975
X784755Y35492
X783484Y44802
X783500Y55000
Y64500
X784000Y95000
X762521Y139858
X740000Y150000
X710000Y120000
X699907Y105759
X700000Y80000
X704500Y56500
X538728Y133711
X516532Y116026
X429500Y70000
X432000Y61000
X392907Y135490
X381881Y131889
X378039Y130069
X364856Y130223
X367474Y152207
X349377Y147441
X326000Y102000
X280000Y98500
X272000Y104000
X232000Y103000
X216000Y99434
Y58500
X238000Y67000
X266500
X276000Y58000
X128707Y91000
Y101000
Y111000
Y120000
Y130000
X117000Y127000
X113037Y124438
X111000Y118000
X105000Y108000
X99000Y98000
X93000Y88000
X88244Y132094
X88649Y141750
X95063Y144230
X42000Y139500
X35937Y147439
X25500Y148500
T03
X9548Y140010
Y147884
T04
X17649Y48740
X27649
X37649
X47649
X57649
X67649
X77649
Y108740
X67649
X57649
X47649
X37649
X27649
X17649
T05
X489843Y53740
X500827
X780000Y50000
Y40000
Y30000
X790000Y30000
Y40000
Y50000
X850000
Y40000
Y30000
Y60000
Y70000
Y80000
Y90000
Y100000
Y110000
Y120000
Y130000
Y140000
Y150000
X789991Y129977
X790000Y120000
Y110000
Y100000
Y90000
Y80000
Y70000
Y60000
X780000Y60000
Y70000
Y80000
Y90000
Y100000
Y110000
Y120000
X779990Y129977
X740000Y130000
Y120000
Y110000
Y100000
X730000
Y110000
Y120000
Y130000
X720000
Y120000
Y110000
Y100000
X690295Y136888
X680318Y136879
X670319
X660319
X650318
X640318
X630318
X620319
X610319
X600318
X590318
X575000Y135000
Y125000
X565000
X555000
X545000
Y135000
Y145000
X555000
X565000
X575000
X565000Y135000
X555000
X500827Y103740
Y93740
Y83740
Y73740
Y63740
X489843
Y73740
Y83740
Y93740
Y103740
X46456Y60551
X38582
T06
X810000Y30000
Y40000
Y50000
X835673
Y40000
Y30000
Y60000
Y70000
Y80000
Y90000
Y100000
Y110000
Y120000
Y130000
Y140001
Y150001
X810000
Y140001
Y130000
Y120000
Y110000
Y100000
Y90000
Y80000
Y70000
Y60000
X690318Y96879
Y122552
X680318
X670319
X660319
X650318
X640318
X630318
X620319
X610319
X600318
X590318
Y96879
X600318
X610319
X620319
X630318
X640318
X650318
X660319
X670319
X680318
T07
X90553Y31497
X123151Y35788
X153545Y48387
X179647Y68387
X199647Y94489
X212246Y124883
M30
