G04*
G04 #@! TF.GenerationSoftware,Altium Limited,Altium Designer,26.3.0 (6)*
G04*
G04 Layer_Color=8388736*
%FSLAX25Y25*%
%MOIN*%
G70*
G04*
G04 #@! TF.SameCoordinates,015A45BF-1CEB-4936-80CA-603E909B0F41*
G04*
G04*
G04 #@! TF.FilePolarity,Negative*
G04*
G01*
G75*
%ADD30C,0.03000*%
%ADD31R,0.05250X0.07000*%
%ADD32R,0.04000X0.04000*%
%ADD33R,0.07000X0.05250*%
%ADD34R,0.01300X0.02556*%
G04:AMPARAMS|DCode=35|XSize=25.56mil|YSize=13mil|CornerRadius=0mil|HoleSize=0mil|Usage=FLASHONLY|Rotation=90.000|XOffset=0mil|YOffset=0mil|HoleType=Round|Shape=Octagon|*
%AMOCTAGOND35*
4,1,8,0.00325,0.01278,-0.00325,0.01278,-0.00650,0.00953,-0.00650,-0.00953,-0.00325,-0.01278,0.00325,-0.01278,0.00650,-0.00953,0.00650,0.00953,0.00325,0.01278,0.0*
%
%ADD35OCTAGOND35*%

G04:AMPARAMS|DCode=36|XSize=25.56mil|YSize=13mil|CornerRadius=2.75mil|HoleSize=0mil|Usage=FLASHONLY|Rotation=90.000|XOffset=0mil|YOffset=0mil|HoleType=Round|Shape=RoundedRectangle|*
%AMROUNDEDRECTD36*
21,1,0.02556,0.00750,0,0,90.0*
21,1,0.02006,0.01300,0,0,90.0*
1,1,0.00550,0.00375,0.01003*
1,1,0.00550,0.00375,-0.01003*
1,1,0.00550,-0.00375,-0.01003*
1,1,0.00550,-0.00375,0.01003*
%
%ADD36ROUNDEDRECTD36*%
%ADD37R,0.02556X0.02556*%
G04:AMPARAMS|DCode=38|XSize=25.56mil|YSize=25.56mil|CornerRadius=5.89mil|HoleSize=0mil|Usage=FLASHONLY|Rotation=90.000|XOffset=0mil|YOffset=0mil|HoleType=Round|Shape=RoundedRectangle|*
%AMROUNDEDRECTD38*
21,1,0.02556,0.01378,0,0,90.0*
21,1,0.01378,0.02556,0,0,90.0*
1,1,0.01178,0.00689,0.00689*
1,1,0.01178,0.00689,-0.00689*
1,1,0.01178,-0.00689,-0.00689*
1,1,0.01178,-0.00689,0.00689*
%
%ADD38ROUNDEDRECTD38*%
G04:AMPARAMS|DCode=39|XSize=25.56mil|YSize=25.56mil|CornerRadius=0mil|HoleSize=0mil|Usage=FLASHONLY|Rotation=90.000|XOffset=0mil|YOffset=0mil|HoleType=Round|Shape=Octagon|*
%AMOCTAGOND39*
4,1,8,0.00639,0.01278,-0.00639,0.01278,-0.01278,0.00639,-0.01278,-0.00639,-0.00639,-0.01278,0.00639,-0.01278,0.01278,-0.00639,0.01278,0.00639,0.00639,0.01278,0.0*
%
%ADD39OCTAGOND39*%

%ADD40C,0.02556*%
%ADD41R,0.04343X0.10642*%
%ADD42R,0.10642X0.04343*%
%ADD43R,0.05547X0.06344*%
%ADD44R,0.05524X0.05524*%
%ADD45R,0.05524X0.05524*%
%ADD46R,0.06312X0.07099*%
%ADD47R,0.07099X0.06312*%
%ADD48R,0.06344X0.05547*%
%ADD49C,0.04300*%
%ADD50R,0.05524X0.07887*%
%ADD51R,0.03162X0.06902*%
%ADD52R,0.03556X0.04343*%
%ADD53R,0.04343X0.03556*%
G04:AMPARAMS|DCode=54|XSize=48mil|YSize=48mil|CornerRadius=14mil|HoleSize=0mil|Usage=FLASHONLY|Rotation=180.000|XOffset=0mil|YOffset=0mil|HoleType=Round|Shape=RoundedRectangle|*
%AMROUNDEDRECTD54*
21,1,0.04800,0.02000,0,0,180.0*
21,1,0.02000,0.04800,0,0,180.0*
1,1,0.02800,-0.01000,0.01000*
1,1,0.02800,0.01000,0.01000*
1,1,0.02800,0.01000,-0.01000*
1,1,0.02800,-0.01000,-0.01000*
%
%ADD54ROUNDEDRECTD54*%
%ADD55C,0.06902*%
%ADD56R,0.06902X0.06902*%
%ADD57R,0.06902X0.06902*%
%ADD58C,0.05524*%
%ADD59C,0.00800*%
G36*
X835683Y150050D02*
X835691Y150048D01*
X835699Y150045D01*
X835705Y150040D01*
X835711Y150034D01*
X835716Y150028D01*
X835720Y150021D01*
X835722Y150013D01*
X835724Y150005D01*
X835724Y149997D01*
X835722Y149989D01*
X835720Y149981D01*
X835716Y149974D01*
X835711Y149968D01*
X835705Y149962D01*
X835699Y149957D01*
X835691Y149954D01*
X835683Y149952D01*
X835675Y149951D01*
X835667Y149951D01*
X835659Y149953D01*
X835652Y149955D01*
X835645Y149960D01*
X835638Y149965D01*
X835633Y149971D01*
X835629Y149978D01*
X835625Y149985D01*
X835625Y149989D01*
X835621Y150001D01*
X835625Y150013D01*
X835625Y150017D01*
X835629Y150024D01*
X835633Y150031D01*
X835638Y150037D01*
X835645Y150042D01*
X835652Y150047D01*
X835659Y150049D01*
X835667Y150051D01*
X835675Y150051D01*
X835683Y150050D01*
D02*
G37*
G36*
X810007Y150051D02*
X810015Y150049D01*
X810022Y150047D01*
X810029Y150042D01*
X810036Y150037D01*
X810041Y150031D01*
X810045Y150024D01*
X810048Y150017D01*
X810049Y150013D01*
X810052Y150001D01*
X810049Y149989D01*
X810048Y149985D01*
X810045Y149978D01*
X810041Y149971D01*
X810036Y149965D01*
X810029Y149960D01*
X810022Y149955D01*
X810015Y149953D01*
X810007Y149951D01*
X809999Y149951D01*
X809990Y149952D01*
X809983Y149954D01*
X809975Y149957D01*
X809969Y149962D01*
X809963Y149968D01*
X809958Y149974D01*
X809954Y149981D01*
X809951Y149989D01*
X809950Y149997D01*
X809950Y150005D01*
X809951Y150013D01*
X809954Y150021D01*
X809958Y150028D01*
X809963Y150034D01*
X809969Y150040D01*
X809975Y150045D01*
X809983Y150048D01*
X809990Y150050D01*
X809999Y150051D01*
X810007Y150051D01*
D02*
G37*
G36*
X829179Y150001D02*
X828430Y149252D01*
X827174D01*
Y150750D01*
X828430D01*
X829179Y150001D01*
D02*
G37*
G36*
X818499Y149252D02*
X817243D01*
X816494Y150001D01*
X817243Y150750D01*
X818499D01*
Y149252D01*
D02*
G37*
G36*
X342045Y146033D02*
X342208Y145986D01*
X342362Y145914D01*
X342502Y145817D01*
X342624Y145700D01*
X342726Y145564D01*
X342806Y145414D01*
X342860Y145253D01*
X342887Y145085D01*
X342887Y144915D01*
X342860Y144747D01*
X342806Y144586D01*
X342726Y144436D01*
X342624Y144300D01*
X342502Y144183D01*
X342362Y144087D01*
X342208Y144014D01*
X342045Y143967D01*
X341876Y143947D01*
X341706Y143954D01*
X341540Y143989D01*
X341382Y144050D01*
X341235Y144135D01*
X341104Y144243D01*
X340991Y144370D01*
X340901Y144515D01*
X340835Y144671D01*
X340816Y144754D01*
X340814Y144758D01*
X340813Y144763D01*
X340798Y144818D01*
X340784Y144870D01*
X340782Y144875D01*
X340781Y144879D01*
X340762Y144934D01*
X340745Y144985D01*
X340743Y144989D01*
X340741Y144994D01*
X340739Y145000D01*
X340741Y145007D01*
X340743Y145011D01*
X340745Y145016D01*
X340763Y145069D01*
X340781Y145121D01*
X340782Y145125D01*
X340784Y145130D01*
X340798Y145183D01*
X340813Y145237D01*
X340814Y145242D01*
X340816Y145247D01*
X340835Y145329D01*
X340901Y145486D01*
X340991Y145630D01*
X341104Y145757D01*
X341235Y145865D01*
X341382Y145950D01*
X341540Y146011D01*
X341706Y146046D01*
X341876Y146053D01*
X342045Y146033D01*
D02*
G37*
G36*
X316294Y146046D02*
X316460Y146011D01*
X316618Y145950D01*
X316765Y145865D01*
X316896Y145757D01*
X317008Y145630D01*
X317099Y145485D01*
X317164Y145329D01*
X317184Y145246D01*
X317186Y145242D01*
X317187Y145237D01*
X317202Y145182D01*
X317216Y145130D01*
X317218Y145125D01*
X317219Y145121D01*
X317238Y145066D01*
X317255Y145015D01*
X317257Y145011D01*
X317259Y145006D01*
X317261Y145000D01*
X317259Y144993D01*
X317257Y144989D01*
X317255Y144984D01*
X317237Y144931D01*
X317219Y144879D01*
X317218Y144875D01*
X317216Y144870D01*
X317202Y144817D01*
X317187Y144763D01*
X317186Y144758D01*
X317184Y144754D01*
X317164Y144671D01*
X317099Y144514D01*
X317008Y144370D01*
X316896Y144243D01*
X316765Y144135D01*
X316618Y144050D01*
X316460Y143989D01*
X316294Y143954D01*
X316124Y143947D01*
X315955Y143967D01*
X315792Y144014D01*
X315638Y144087D01*
X315498Y144183D01*
X315376Y144300D01*
X315273Y144436D01*
X315194Y144586D01*
X315141Y144747D01*
X315113Y144915D01*
X315113Y145085D01*
X315141Y145253D01*
X315194Y145414D01*
X315273Y145564D01*
X315376Y145700D01*
X315498Y145817D01*
X315638Y145913D01*
X315792Y145986D01*
X315955Y146033D01*
X316124Y146053D01*
X316294Y146046D01*
D02*
G37*
G36*
X336757Y145000D02*
X335008Y143251D01*
X332337D01*
Y146749D01*
X335008D01*
X336757Y145000D01*
D02*
G37*
G36*
X325663Y143251D02*
X322992D01*
X321243Y145000D01*
X322992Y146749D01*
X325663D01*
Y143251D01*
D02*
G37*
G36*
X835683Y140050D02*
X835691Y140048D01*
X835699Y140045D01*
X835705Y140040D01*
X835711Y140034D01*
X835716Y140028D01*
X835720Y140021D01*
X835722Y140013D01*
X835724Y140005D01*
X835724Y139997D01*
X835722Y139989D01*
X835720Y139981D01*
X835716Y139974D01*
X835711Y139968D01*
X835705Y139962D01*
X835699Y139957D01*
X835691Y139954D01*
X835683Y139952D01*
X835675Y139951D01*
X835667Y139951D01*
X835659Y139953D01*
X835652Y139955D01*
X835645Y139960D01*
X835638Y139965D01*
X835633Y139971D01*
X835629Y139978D01*
X835625Y139985D01*
X835625Y139989D01*
X835621Y140001D01*
X835625Y140013D01*
X835625Y140017D01*
X835629Y140024D01*
X835633Y140031D01*
X835638Y140037D01*
X835645Y140042D01*
X835652Y140047D01*
X835659Y140049D01*
X835667Y140051D01*
X835675Y140051D01*
X835683Y140050D01*
D02*
G37*
G36*
X810007Y140051D02*
X810015Y140049D01*
X810022Y140047D01*
X810029Y140042D01*
X810036Y140037D01*
X810041Y140031D01*
X810045Y140024D01*
X810048Y140017D01*
X810049Y140013D01*
X810052Y140001D01*
X810049Y139989D01*
X810048Y139985D01*
X810045Y139978D01*
X810041Y139971D01*
X810036Y139965D01*
X810029Y139960D01*
X810022Y139955D01*
X810015Y139953D01*
X810007Y139951D01*
X809999Y139951D01*
X809990Y139952D01*
X809983Y139954D01*
X809975Y139957D01*
X809969Y139962D01*
X809963Y139968D01*
X809958Y139974D01*
X809954Y139981D01*
X809951Y139989D01*
X809950Y139997D01*
X809950Y140005D01*
X809951Y140013D01*
X809954Y140021D01*
X809958Y140028D01*
X809963Y140034D01*
X809969Y140040D01*
X809975Y140045D01*
X809983Y140048D01*
X809990Y140050D01*
X809999Y140051D01*
X810007Y140051D01*
D02*
G37*
G36*
X829179Y140001D02*
X828430Y139252D01*
X827174D01*
Y140750D01*
X828430D01*
X829179Y140001D01*
D02*
G37*
G36*
X818499Y139252D02*
X817243D01*
X816494Y140001D01*
X817243Y140750D01*
X818499D01*
Y139252D01*
D02*
G37*
G36*
X160208Y141033D02*
X160372Y140986D01*
X160525Y140913D01*
X160665Y140817D01*
X160788Y140700D01*
X160890Y140564D01*
X160969Y140414D01*
X161023Y140253D01*
X161050Y140085D01*
X161050Y139915D01*
X161023Y139748D01*
X160969Y139586D01*
X160890Y139436D01*
X160788Y139300D01*
X160665Y139183D01*
X160525Y139087D01*
X160372Y139014D01*
X160208Y138967D01*
X160040Y138947D01*
X159870Y138954D01*
X159704Y138989D01*
X159545Y139050D01*
X159398Y139135D01*
X159267Y139243D01*
X159155Y139371D01*
X159065Y139515D01*
X158999Y139671D01*
X158979Y139754D01*
X158978Y139758D01*
X158977Y139763D01*
X158961Y139818D01*
X158947Y139870D01*
X158946Y139874D01*
X158944Y139879D01*
X158926Y139934D01*
X158908Y139985D01*
X158906Y139989D01*
X158905Y139994D01*
X158902Y140000D01*
X158905Y140006D01*
X158906Y140011D01*
X158908Y140015D01*
X158926Y140069D01*
X158944Y140121D01*
X158946Y140125D01*
X158947Y140130D01*
X158962Y140183D01*
X158977Y140237D01*
X158978Y140242D01*
X158979Y140246D01*
X158999Y140329D01*
X159065Y140486D01*
X159155Y140629D01*
X159267Y140757D01*
X159398Y140865D01*
X159545Y140951D01*
X159704Y141011D01*
X159870Y141046D01*
X160040Y141053D01*
X160208Y141033D01*
D02*
G37*
G36*
X134457Y141046D02*
X134623Y141011D01*
X134782Y140950D01*
X134929Y140865D01*
X135060Y140757D01*
X135172Y140629D01*
X135262Y140486D01*
X135328Y140329D01*
X135348Y140246D01*
X135349Y140242D01*
X135350Y140237D01*
X135365Y140182D01*
X135380Y140130D01*
X135381Y140126D01*
X135383Y140121D01*
X135401Y140066D01*
X135419Y140015D01*
X135421Y140011D01*
X135422Y140006D01*
X135425Y140000D01*
X135422Y139994D01*
X135421Y139989D01*
X135419Y139985D01*
X135401Y139931D01*
X135383Y139879D01*
X135381Y139875D01*
X135380Y139870D01*
X135365Y139817D01*
X135350Y139763D01*
X135349Y139758D01*
X135348Y139753D01*
X135328Y139671D01*
X135262Y139514D01*
X135172Y139371D01*
X135060Y139243D01*
X134929Y139135D01*
X134782Y139049D01*
X134623Y138989D01*
X134457Y138954D01*
X134287Y138947D01*
X134119Y138967D01*
X133955Y139014D01*
X133802Y139086D01*
X133662Y139183D01*
X133539Y139300D01*
X133437Y139436D01*
X133358Y139586D01*
X133304Y139747D01*
X133277Y139915D01*
X133277Y140085D01*
X133304Y140252D01*
X133358Y140414D01*
X133437Y140564D01*
X133539Y140700D01*
X133662Y140817D01*
X133802Y140913D01*
X133955Y140986D01*
X134119Y141033D01*
X134287Y141053D01*
X134457Y141046D01*
D02*
G37*
G36*
X154920Y140000D02*
X153171Y138251D01*
X150501D01*
Y141749D01*
X153171D01*
X154920Y140000D01*
D02*
G37*
G36*
X143826Y138251D02*
X141156D01*
X139407Y140000D01*
X141156Y141749D01*
X143826D01*
Y138251D01*
D02*
G37*
G36*
X342045Y135033D02*
X342208Y134986D01*
X342362Y134914D01*
X342502Y134817D01*
X342624Y134700D01*
X342726Y134564D01*
X342806Y134414D01*
X342860Y134253D01*
X342887Y134085D01*
X342887Y133915D01*
X342860Y133747D01*
X342806Y133586D01*
X342726Y133436D01*
X342624Y133300D01*
X342502Y133183D01*
X342362Y133087D01*
X342208Y133014D01*
X342045Y132967D01*
X341876Y132947D01*
X341706Y132954D01*
X341540Y132989D01*
X341382Y133050D01*
X341235Y133135D01*
X341104Y133243D01*
X340991Y133370D01*
X340901Y133514D01*
X340835Y133671D01*
X340816Y133754D01*
X340814Y133758D01*
X340813Y133763D01*
X340798Y133818D01*
X340784Y133870D01*
X340782Y133874D01*
X340781Y133879D01*
X340762Y133934D01*
X340745Y133985D01*
X340743Y133989D01*
X340741Y133994D01*
X340739Y134000D01*
X340741Y134007D01*
X340743Y134011D01*
X340745Y134016D01*
X340763Y134069D01*
X340781Y134121D01*
X340782Y134125D01*
X340784Y134130D01*
X340798Y134183D01*
X340813Y134237D01*
X340814Y134242D01*
X340816Y134247D01*
X340835Y134329D01*
X340901Y134486D01*
X340991Y134629D01*
X341104Y134757D01*
X341235Y134865D01*
X341382Y134950D01*
X341540Y135011D01*
X341706Y135046D01*
X341876Y135053D01*
X342045Y135033D01*
D02*
G37*
G36*
X316294Y135046D02*
X316460Y135011D01*
X316618Y134950D01*
X316765Y134865D01*
X316896Y134757D01*
X317008Y134629D01*
X317099Y134485D01*
X317164Y134329D01*
X317184Y134246D01*
X317186Y134242D01*
X317187Y134237D01*
X317202Y134182D01*
X317216Y134130D01*
X317218Y134125D01*
X317219Y134121D01*
X317238Y134066D01*
X317255Y134015D01*
X317257Y134011D01*
X317259Y134006D01*
X317261Y134000D01*
X317259Y133993D01*
X317257Y133989D01*
X317255Y133984D01*
X317237Y133931D01*
X317219Y133879D01*
X317218Y133875D01*
X317216Y133870D01*
X317202Y133817D01*
X317187Y133763D01*
X317186Y133758D01*
X317184Y133754D01*
X317164Y133671D01*
X317099Y133514D01*
X317008Y133370D01*
X316896Y133243D01*
X316765Y133135D01*
X316618Y133049D01*
X316460Y132989D01*
X316294Y132954D01*
X316124Y132947D01*
X315955Y132967D01*
X315792Y133014D01*
X315638Y133087D01*
X315498Y133183D01*
X315376Y133300D01*
X315273Y133436D01*
X315194Y133586D01*
X315141Y133747D01*
X315113Y133915D01*
X315113Y134085D01*
X315141Y134253D01*
X315194Y134414D01*
X315273Y134564D01*
X315376Y134700D01*
X315498Y134817D01*
X315638Y134913D01*
X315792Y134986D01*
X315955Y135033D01*
X316124Y135053D01*
X316294Y135046D01*
D02*
G37*
G36*
X336757Y134000D02*
X335008Y132251D01*
X332337D01*
Y135749D01*
X335008D01*
X336757Y134000D01*
D02*
G37*
G36*
X325663Y132251D02*
X322992D01*
X321243Y134000D01*
X322992Y135749D01*
X325663D01*
Y132251D01*
D02*
G37*
G36*
X835683Y130049D02*
X835691Y130047D01*
X835699Y130044D01*
X835705Y130039D01*
X835711Y130034D01*
X835716Y130027D01*
X835720Y130020D01*
X835722Y130012D01*
X835724Y130004D01*
X835724Y129996D01*
X835722Y129988D01*
X835720Y129980D01*
X835716Y129973D01*
X835711Y129966D01*
X835705Y129961D01*
X835699Y129956D01*
X835691Y129953D01*
X835683Y129951D01*
X835675Y129950D01*
X835667Y129950D01*
X835659Y129952D01*
X835652Y129955D01*
X835645Y129959D01*
X835638Y129964D01*
X835633Y129970D01*
X835629Y129977D01*
X835625Y129984D01*
X835625Y129988D01*
X835621Y130000D01*
X835625Y130012D01*
X835625Y130016D01*
X835629Y130023D01*
X835633Y130030D01*
X835638Y130036D01*
X835645Y130041D01*
X835652Y130045D01*
X835659Y130048D01*
X835667Y130050D01*
X835675Y130050D01*
X835683Y130049D01*
D02*
G37*
G36*
X810007Y130050D02*
X810015Y130048D01*
X810022Y130045D01*
X810029Y130041D01*
X810036Y130036D01*
X810041Y130030D01*
X810045Y130023D01*
X810048Y130016D01*
X810049Y130012D01*
X810052Y130000D01*
X810049Y129988D01*
X810048Y129984D01*
X810045Y129977D01*
X810041Y129970D01*
X810036Y129964D01*
X810029Y129959D01*
X810022Y129955D01*
X810015Y129952D01*
X810007Y129950D01*
X809999Y129950D01*
X809990Y129950D01*
X809983Y129953D01*
X809975Y129956D01*
X809969Y129961D01*
X809963Y129966D01*
X809958Y129973D01*
X809954Y129980D01*
X809951Y129988D01*
X809950Y129996D01*
X809950Y130004D01*
X809951Y130012D01*
X809954Y130020D01*
X809958Y130027D01*
X809963Y130033D01*
X809969Y130039D01*
X809975Y130044D01*
X809983Y130047D01*
X809990Y130049D01*
X809999Y130050D01*
X810007Y130050D01*
D02*
G37*
G36*
X829179Y130000D02*
X828430Y129251D01*
X827174D01*
Y130749D01*
X828430D01*
X829179Y130000D01*
D02*
G37*
G36*
X818499Y129251D02*
X817243D01*
X816494Y130000D01*
X817243Y130749D01*
X818499D01*
Y129251D01*
D02*
G37*
G36*
X160208Y131033D02*
X160372Y130986D01*
X160525Y130913D01*
X160665Y130817D01*
X160788Y130700D01*
X160890Y130564D01*
X160969Y130414D01*
X161023Y130253D01*
X161050Y130085D01*
X161050Y129915D01*
X161023Y129747D01*
X160969Y129586D01*
X160890Y129436D01*
X160788Y129300D01*
X160665Y129183D01*
X160525Y129087D01*
X160372Y129014D01*
X160208Y128967D01*
X160040Y128947D01*
X159870Y128954D01*
X159704Y128989D01*
X159545Y129050D01*
X159398Y129135D01*
X159267Y129243D01*
X159155Y129370D01*
X159065Y129515D01*
X158999Y129671D01*
X158979Y129754D01*
X158978Y129758D01*
X158977Y129763D01*
X158961Y129818D01*
X158947Y129870D01*
X158946Y129875D01*
X158944Y129879D01*
X158926Y129934D01*
X158908Y129985D01*
X158906Y129989D01*
X158905Y129994D01*
X158902Y130000D01*
X158905Y130007D01*
X158906Y130011D01*
X158908Y130016D01*
X158926Y130069D01*
X158944Y130121D01*
X158946Y130125D01*
X158947Y130130D01*
X158962Y130183D01*
X158977Y130237D01*
X158978Y130242D01*
X158979Y130246D01*
X158999Y130329D01*
X159065Y130486D01*
X159155Y130630D01*
X159267Y130757D01*
X159398Y130865D01*
X159545Y130950D01*
X159704Y131011D01*
X159870Y131046D01*
X160040Y131053D01*
X160208Y131033D01*
D02*
G37*
G36*
X134457Y131046D02*
X134623Y131011D01*
X134782Y130950D01*
X134929Y130865D01*
X135060Y130757D01*
X135172Y130630D01*
X135262Y130485D01*
X135328Y130329D01*
X135348Y130246D01*
X135349Y130242D01*
X135350Y130237D01*
X135365Y130182D01*
X135380Y130130D01*
X135381Y130125D01*
X135383Y130121D01*
X135401Y130066D01*
X135419Y130015D01*
X135421Y130011D01*
X135422Y130006D01*
X135425Y130000D01*
X135422Y129993D01*
X135421Y129989D01*
X135419Y129984D01*
X135401Y129931D01*
X135383Y129879D01*
X135381Y129875D01*
X135380Y129870D01*
X135365Y129817D01*
X135350Y129763D01*
X135349Y129758D01*
X135348Y129753D01*
X135328Y129671D01*
X135262Y129514D01*
X135172Y129370D01*
X135060Y129243D01*
X134929Y129135D01*
X134782Y129050D01*
X134623Y128989D01*
X134457Y128954D01*
X134287Y128947D01*
X134119Y128967D01*
X133955Y129014D01*
X133802Y129086D01*
X133662Y129183D01*
X133539Y129300D01*
X133437Y129436D01*
X133358Y129586D01*
X133304Y129747D01*
X133277Y129915D01*
X133277Y130085D01*
X133304Y130253D01*
X133358Y130414D01*
X133437Y130564D01*
X133539Y130700D01*
X133662Y130817D01*
X133802Y130913D01*
X133955Y130986D01*
X134119Y131033D01*
X134287Y131053D01*
X134457Y131046D01*
D02*
G37*
G36*
X154920Y130000D02*
X153171Y128251D01*
X150501D01*
Y131749D01*
X153171D01*
X154920Y130000D01*
D02*
G37*
G36*
X143826Y128251D02*
X141156D01*
X139407Y130000D01*
X141156Y131749D01*
X143826D01*
Y128251D01*
D02*
G37*
G36*
X690331Y122601D02*
X690338Y122598D01*
X690345Y122594D01*
X690352Y122590D01*
X690358Y122584D01*
X690362Y122577D01*
X690366Y122570D01*
X690368Y122562D01*
X690369Y122554D01*
X690369Y122546D01*
X690367Y122538D01*
X690364Y122530D01*
X690360Y122523D01*
X690355Y122517D01*
X690349Y122511D01*
X690342Y122507D01*
X690334Y122504D01*
X690330Y122503D01*
X690318Y122500D01*
X690307Y122503D01*
X690303Y122504D01*
X690295Y122507D01*
X690288Y122511D01*
X690282Y122517D01*
X690277Y122523D01*
X690273Y122530D01*
X690270Y122538D01*
X690268Y122546D01*
X690268Y122554D01*
X690269Y122562D01*
X690271Y122570D01*
X690275Y122577D01*
X690279Y122584D01*
X690285Y122590D01*
X690292Y122594D01*
X690299Y122598D01*
X690306Y122601D01*
X690314Y122602D01*
X690322Y122602D01*
X690331Y122601D01*
D02*
G37*
G36*
X680331D02*
X680338Y122598D01*
X680345Y122594D01*
X680352Y122590D01*
X680358Y122584D01*
X680362Y122577D01*
X680366Y122570D01*
X680368Y122562D01*
X680369Y122554D01*
X680369Y122546D01*
X680367Y122538D01*
X680364Y122530D01*
X680360Y122523D01*
X680355Y122517D01*
X680349Y122511D01*
X680342Y122507D01*
X680334Y122504D01*
X680330Y122503D01*
X680318Y122500D01*
X680307Y122503D01*
X680303Y122504D01*
X680295Y122507D01*
X680288Y122511D01*
X680282Y122517D01*
X680277Y122523D01*
X680273Y122530D01*
X680270Y122538D01*
X680268Y122546D01*
X680268Y122554D01*
X680269Y122562D01*
X680271Y122570D01*
X680275Y122577D01*
X680279Y122584D01*
X680285Y122590D01*
X680292Y122594D01*
X680299Y122598D01*
X680306Y122601D01*
X680314Y122602D01*
X680323Y122602D01*
X680331Y122601D01*
D02*
G37*
G36*
X670331D02*
X670338Y122598D01*
X670345Y122594D01*
X670352Y122590D01*
X670358Y122584D01*
X670362Y122577D01*
X670366Y122570D01*
X670368Y122562D01*
X670369Y122554D01*
X670368Y122546D01*
X670367Y122538D01*
X670364Y122530D01*
X670360Y122523D01*
X670355Y122517D01*
X670349Y122511D01*
X670342Y122507D01*
X670334Y122504D01*
X670330Y122503D01*
X670319Y122500D01*
X670307Y122503D01*
X670303Y122504D01*
X670295Y122507D01*
X670288Y122511D01*
X670282Y122517D01*
X670277Y122523D01*
X670273Y122530D01*
X670270Y122538D01*
X670268Y122546D01*
X670268Y122554D01*
X670269Y122562D01*
X670271Y122570D01*
X670275Y122577D01*
X670279Y122584D01*
X670285Y122590D01*
X670292Y122594D01*
X670299Y122598D01*
X670306Y122601D01*
X670314Y122602D01*
X670323Y122602D01*
X670331Y122601D01*
D02*
G37*
G36*
X660331D02*
X660338Y122598D01*
X660346Y122594D01*
X660352Y122590D01*
X660358Y122584D01*
X660362Y122577D01*
X660366Y122570D01*
X660368Y122562D01*
X660369Y122554D01*
X660368Y122546D01*
X660367Y122538D01*
X660364Y122530D01*
X660360Y122523D01*
X660355Y122517D01*
X660349Y122511D01*
X660342Y122507D01*
X660334Y122504D01*
X660330Y122503D01*
X660319Y122500D01*
X660307Y122503D01*
X660303Y122504D01*
X660295Y122507D01*
X660288Y122511D01*
X660282Y122517D01*
X660277Y122523D01*
X660273Y122530D01*
X660270Y122538D01*
X660268Y122546D01*
X660268Y122554D01*
X660269Y122562D01*
X660271Y122570D01*
X660275Y122577D01*
X660279Y122584D01*
X660285Y122590D01*
X660291Y122594D01*
X660299Y122598D01*
X660306Y122601D01*
X660314Y122602D01*
X660323Y122602D01*
X660331Y122601D01*
D02*
G37*
G36*
X650331D02*
X650338Y122598D01*
X650346Y122594D01*
X650352Y122590D01*
X650358Y122584D01*
X650362Y122577D01*
X650366Y122570D01*
X650368Y122562D01*
X650369Y122554D01*
X650368Y122546D01*
X650367Y122538D01*
X650364Y122530D01*
X650360Y122523D01*
X650355Y122517D01*
X650349Y122511D01*
X650342Y122507D01*
X650334Y122504D01*
X650330Y122503D01*
X650318Y122500D01*
X650307Y122503D01*
X650303Y122504D01*
X650295Y122507D01*
X650288Y122511D01*
X650282Y122517D01*
X650277Y122523D01*
X650273Y122530D01*
X650270Y122538D01*
X650268Y122546D01*
X650268Y122554D01*
X650269Y122562D01*
X650271Y122570D01*
X650275Y122577D01*
X650279Y122584D01*
X650285Y122590D01*
X650291Y122594D01*
X650299Y122598D01*
X650306Y122601D01*
X650314Y122602D01*
X650322Y122602D01*
X650331Y122601D01*
D02*
G37*
G36*
X640331D02*
X640338Y122598D01*
X640345Y122594D01*
X640352Y122590D01*
X640358Y122584D01*
X640362Y122577D01*
X640366Y122570D01*
X640368Y122562D01*
X640369Y122554D01*
X640369Y122546D01*
X640367Y122538D01*
X640364Y122530D01*
X640360Y122523D01*
X640355Y122517D01*
X640349Y122511D01*
X640342Y122507D01*
X640334Y122504D01*
X640330Y122503D01*
X640318Y122500D01*
X640307Y122503D01*
X640303Y122504D01*
X640295Y122507D01*
X640288Y122511D01*
X640282Y122517D01*
X640277Y122523D01*
X640273Y122530D01*
X640270Y122538D01*
X640268Y122546D01*
X640268Y122554D01*
X640269Y122562D01*
X640271Y122570D01*
X640275Y122577D01*
X640279Y122584D01*
X640285Y122590D01*
X640292Y122594D01*
X640299Y122598D01*
X640306Y122601D01*
X640314Y122602D01*
X640322Y122602D01*
X640331Y122601D01*
D02*
G37*
G36*
X630331D02*
X630338Y122598D01*
X630345Y122594D01*
X630352Y122590D01*
X630358Y122584D01*
X630362Y122577D01*
X630366Y122570D01*
X630368Y122562D01*
X630369Y122554D01*
X630369Y122546D01*
X630367Y122538D01*
X630364Y122530D01*
X630360Y122523D01*
X630355Y122517D01*
X630349Y122511D01*
X630342Y122507D01*
X630334Y122504D01*
X630330Y122503D01*
X630318Y122500D01*
X630307Y122503D01*
X630303Y122504D01*
X630295Y122507D01*
X630288Y122511D01*
X630282Y122517D01*
X630277Y122523D01*
X630273Y122530D01*
X630270Y122538D01*
X630268Y122546D01*
X630268Y122554D01*
X630269Y122562D01*
X630271Y122570D01*
X630275Y122577D01*
X630279Y122584D01*
X630285Y122590D01*
X630292Y122594D01*
X630299Y122598D01*
X630306Y122601D01*
X630314Y122602D01*
X630323Y122602D01*
X630331Y122601D01*
D02*
G37*
G36*
X620331D02*
X620338Y122598D01*
X620345Y122594D01*
X620352Y122590D01*
X620358Y122584D01*
X620362Y122577D01*
X620366Y122570D01*
X620368Y122562D01*
X620369Y122554D01*
X620368Y122546D01*
X620367Y122538D01*
X620364Y122530D01*
X620360Y122523D01*
X620355Y122517D01*
X620349Y122511D01*
X620342Y122507D01*
X620334Y122504D01*
X620330Y122503D01*
X620319Y122500D01*
X620307Y122503D01*
X620303Y122504D01*
X620295Y122507D01*
X620288Y122511D01*
X620282Y122517D01*
X620277Y122523D01*
X620273Y122530D01*
X620270Y122538D01*
X620268Y122546D01*
X620268Y122554D01*
X620269Y122562D01*
X620271Y122570D01*
X620275Y122577D01*
X620279Y122584D01*
X620285Y122590D01*
X620292Y122594D01*
X620299Y122598D01*
X620306Y122601D01*
X620314Y122602D01*
X620323Y122602D01*
X620331Y122601D01*
D02*
G37*
G36*
X610331D02*
X610338Y122598D01*
X610346Y122594D01*
X610352Y122590D01*
X610358Y122584D01*
X610362Y122577D01*
X610366Y122570D01*
X610368Y122562D01*
X610369Y122554D01*
X610368Y122546D01*
X610367Y122538D01*
X610364Y122530D01*
X610360Y122523D01*
X610355Y122517D01*
X610349Y122511D01*
X610342Y122507D01*
X610334Y122504D01*
X610330Y122503D01*
X610319Y122500D01*
X610307Y122503D01*
X610303Y122504D01*
X610295Y122507D01*
X610288Y122511D01*
X610282Y122517D01*
X610277Y122523D01*
X610273Y122530D01*
X610270Y122538D01*
X610268Y122546D01*
X610268Y122554D01*
X610269Y122562D01*
X610271Y122570D01*
X610275Y122577D01*
X610279Y122584D01*
X610285Y122590D01*
X610291Y122594D01*
X610299Y122598D01*
X610306Y122601D01*
X610314Y122602D01*
X610323Y122602D01*
X610331Y122601D01*
D02*
G37*
G36*
X600331D02*
X600338Y122598D01*
X600346Y122594D01*
X600352Y122590D01*
X600358Y122584D01*
X600362Y122577D01*
X600366Y122570D01*
X600368Y122562D01*
X600369Y122554D01*
X600368Y122546D01*
X600367Y122538D01*
X600364Y122530D01*
X600360Y122523D01*
X600355Y122517D01*
X600349Y122511D01*
X600342Y122507D01*
X600334Y122504D01*
X600330Y122503D01*
X600318Y122500D01*
X600307Y122503D01*
X600303Y122504D01*
X600295Y122507D01*
X600288Y122511D01*
X600282Y122517D01*
X600277Y122523D01*
X600273Y122530D01*
X600270Y122538D01*
X600268Y122546D01*
X600268Y122554D01*
X600269Y122562D01*
X600271Y122570D01*
X600275Y122577D01*
X600279Y122584D01*
X600285Y122590D01*
X600291Y122594D01*
X600299Y122598D01*
X600306Y122601D01*
X600314Y122602D01*
X600322Y122602D01*
X600331Y122601D01*
D02*
G37*
G36*
X590331D02*
X590338Y122598D01*
X590345Y122594D01*
X590352Y122590D01*
X590358Y122584D01*
X590362Y122577D01*
X590366Y122570D01*
X590368Y122562D01*
X590369Y122554D01*
X590369Y122546D01*
X590367Y122538D01*
X590364Y122530D01*
X590360Y122523D01*
X590355Y122517D01*
X590349Y122511D01*
X590342Y122507D01*
X590334Y122504D01*
X590330Y122503D01*
X590318Y122500D01*
X590307Y122503D01*
X590303Y122504D01*
X590295Y122507D01*
X590288Y122511D01*
X590282Y122517D01*
X590277Y122523D01*
X590273Y122530D01*
X590270Y122538D01*
X590268Y122546D01*
X590268Y122554D01*
X590269Y122562D01*
X590271Y122570D01*
X590275Y122577D01*
X590279Y122584D01*
X590285Y122590D01*
X590292Y122594D01*
X590299Y122598D01*
X590306Y122601D01*
X590314Y122602D01*
X590322Y122602D01*
X590331Y122601D01*
D02*
G37*
G36*
X835683Y120049D02*
X835691Y120047D01*
X835699Y120044D01*
X835705Y120039D01*
X835711Y120034D01*
X835716Y120027D01*
X835720Y120020D01*
X835722Y120012D01*
X835724Y120004D01*
X835724Y119996D01*
X835722Y119988D01*
X835720Y119980D01*
X835716Y119973D01*
X835711Y119966D01*
X835705Y119961D01*
X835699Y119956D01*
X835691Y119953D01*
X835683Y119951D01*
X835675Y119950D01*
X835667Y119950D01*
X835659Y119952D01*
X835652Y119955D01*
X835645Y119959D01*
X835638Y119964D01*
X835633Y119970D01*
X835629Y119977D01*
X835625Y119984D01*
X835625Y119988D01*
X835621Y120000D01*
X835625Y120012D01*
X835625Y120016D01*
X835629Y120023D01*
X835633Y120030D01*
X835638Y120036D01*
X835645Y120041D01*
X835652Y120045D01*
X835659Y120048D01*
X835667Y120050D01*
X835675Y120050D01*
X835683Y120049D01*
D02*
G37*
G36*
X810007Y120050D02*
X810015Y120048D01*
X810022Y120045D01*
X810029Y120041D01*
X810036Y120036D01*
X810041Y120030D01*
X810045Y120023D01*
X810048Y120016D01*
X810049Y120012D01*
X810052Y120000D01*
X810049Y119988D01*
X810048Y119984D01*
X810045Y119977D01*
X810041Y119970D01*
X810036Y119964D01*
X810029Y119959D01*
X810022Y119955D01*
X810015Y119952D01*
X810007Y119950D01*
X809999Y119950D01*
X809990Y119950D01*
X809983Y119953D01*
X809975Y119956D01*
X809969Y119961D01*
X809963Y119966D01*
X809958Y119973D01*
X809954Y119980D01*
X809951Y119988D01*
X809950Y119996D01*
X809950Y120004D01*
X809951Y120012D01*
X809954Y120020D01*
X809958Y120027D01*
X809963Y120033D01*
X809969Y120039D01*
X809975Y120044D01*
X809983Y120047D01*
X809990Y120049D01*
X809999Y120050D01*
X810007Y120050D01*
D02*
G37*
G36*
X829179Y120000D02*
X828430Y119251D01*
X827174D01*
Y120749D01*
X828430D01*
X829179Y120000D01*
D02*
G37*
G36*
X818499Y119251D02*
X817243D01*
X816494Y120000D01*
X817243Y120749D01*
X818499D01*
Y119251D01*
D02*
G37*
G36*
X160208Y121033D02*
X160372Y120986D01*
X160525Y120914D01*
X160665Y120817D01*
X160788Y120700D01*
X160890Y120564D01*
X160969Y120414D01*
X161023Y120253D01*
X161050Y120085D01*
X161050Y119915D01*
X161023Y119747D01*
X160969Y119586D01*
X160890Y119436D01*
X160788Y119300D01*
X160665Y119183D01*
X160525Y119087D01*
X160372Y119014D01*
X160208Y118967D01*
X160040Y118947D01*
X159870Y118954D01*
X159704Y118989D01*
X159545Y119050D01*
X159398Y119135D01*
X159267Y119243D01*
X159155Y119370D01*
X159065Y119515D01*
X158999Y119671D01*
X158979Y119754D01*
X158978Y119758D01*
X158977Y119763D01*
X158961Y119818D01*
X158947Y119870D01*
X158946Y119875D01*
X158944Y119879D01*
X158926Y119934D01*
X158908Y119985D01*
X158906Y119989D01*
X158905Y119994D01*
X158902Y120000D01*
X158905Y120007D01*
X158906Y120011D01*
X158908Y120016D01*
X158926Y120069D01*
X158944Y120121D01*
X158946Y120125D01*
X158947Y120130D01*
X158962Y120183D01*
X158977Y120237D01*
X158978Y120242D01*
X158979Y120247D01*
X158999Y120329D01*
X159065Y120486D01*
X159155Y120630D01*
X159267Y120757D01*
X159398Y120865D01*
X159545Y120950D01*
X159704Y121011D01*
X159870Y121046D01*
X160040Y121053D01*
X160208Y121033D01*
D02*
G37*
G36*
X134457Y121046D02*
X134623Y121011D01*
X134782Y120950D01*
X134929Y120865D01*
X135060Y120757D01*
X135172Y120630D01*
X135262Y120485D01*
X135328Y120329D01*
X135348Y120246D01*
X135349Y120242D01*
X135350Y120237D01*
X135365Y120182D01*
X135380Y120130D01*
X135381Y120125D01*
X135383Y120121D01*
X135401Y120066D01*
X135419Y120015D01*
X135421Y120011D01*
X135422Y120006D01*
X135425Y120000D01*
X135422Y119993D01*
X135421Y119989D01*
X135419Y119984D01*
X135401Y119931D01*
X135383Y119879D01*
X135381Y119875D01*
X135380Y119870D01*
X135365Y119817D01*
X135350Y119763D01*
X135349Y119758D01*
X135348Y119754D01*
X135328Y119671D01*
X135262Y119514D01*
X135172Y119370D01*
X135060Y119243D01*
X134929Y119135D01*
X134782Y119050D01*
X134623Y118989D01*
X134457Y118954D01*
X134287Y118947D01*
X134119Y118967D01*
X133955Y119014D01*
X133802Y119087D01*
X133662Y119183D01*
X133539Y119300D01*
X133437Y119436D01*
X133358Y119586D01*
X133304Y119747D01*
X133277Y119915D01*
X133277Y120085D01*
X133304Y120253D01*
X133358Y120414D01*
X133437Y120564D01*
X133539Y120700D01*
X133662Y120817D01*
X133802Y120913D01*
X133955Y120986D01*
X134119Y121033D01*
X134287Y121053D01*
X134457Y121046D01*
D02*
G37*
G36*
X154920Y120000D02*
X153171Y118251D01*
X150501D01*
Y121749D01*
X153171D01*
X154920Y120000D01*
D02*
G37*
G36*
X143826Y118251D02*
X141156D01*
X139407Y120000D01*
X141156Y121749D01*
X143826D01*
Y118251D01*
D02*
G37*
G36*
X691068Y115309D02*
Y114053D01*
X689569D01*
Y115309D01*
X690318Y116058D01*
X691068Y115309D01*
D02*
G37*
G36*
X681068D02*
Y114053D01*
X679569D01*
Y115309D01*
X680318Y116058D01*
X681068Y115309D01*
D02*
G37*
G36*
X671068D02*
Y114053D01*
X669569D01*
Y115309D01*
X670319Y116058D01*
X671068Y115309D01*
D02*
G37*
G36*
X661068D02*
Y114053D01*
X659569D01*
Y115309D01*
X660319Y116058D01*
X661068Y115309D01*
D02*
G37*
G36*
X651068D02*
Y114053D01*
X649569D01*
Y115309D01*
X650318Y116058D01*
X651068Y115309D01*
D02*
G37*
G36*
X641068D02*
Y114053D01*
X639569D01*
Y115309D01*
X640318Y116058D01*
X641068Y115309D01*
D02*
G37*
G36*
X631068D02*
Y114053D01*
X629569D01*
Y115309D01*
X630318Y116058D01*
X631068Y115309D01*
D02*
G37*
G36*
X621068D02*
Y114053D01*
X619569D01*
Y115309D01*
X620319Y116058D01*
X621068Y115309D01*
D02*
G37*
G36*
X611068D02*
Y114053D01*
X609569D01*
Y115309D01*
X610319Y116058D01*
X611068Y115309D01*
D02*
G37*
G36*
X601068D02*
Y114053D01*
X599569D01*
Y115309D01*
X600318Y116058D01*
X601068Y115309D01*
D02*
G37*
G36*
X591068D02*
Y114053D01*
X589569D01*
Y115309D01*
X590318Y116058D01*
X591068Y115309D01*
D02*
G37*
G36*
X835683Y110049D02*
X835691Y110047D01*
X835699Y110044D01*
X835705Y110039D01*
X835711Y110034D01*
X835716Y110027D01*
X835720Y110020D01*
X835722Y110012D01*
X835724Y110004D01*
X835724Y109996D01*
X835722Y109988D01*
X835720Y109980D01*
X835716Y109973D01*
X835711Y109967D01*
X835705Y109961D01*
X835699Y109956D01*
X835691Y109953D01*
X835683Y109951D01*
X835675Y109950D01*
X835667Y109950D01*
X835659Y109952D01*
X835652Y109955D01*
X835645Y109959D01*
X835638Y109964D01*
X835633Y109970D01*
X835629Y109977D01*
X835625Y109984D01*
X835625Y109988D01*
X835621Y110000D01*
X835625Y110012D01*
X835625Y110016D01*
X835629Y110023D01*
X835633Y110030D01*
X835638Y110036D01*
X835645Y110041D01*
X835652Y110046D01*
X835659Y110048D01*
X835667Y110050D01*
X835675Y110050D01*
X835683Y110049D01*
D02*
G37*
G36*
X810007Y110050D02*
X810015Y110048D01*
X810022Y110046D01*
X810029Y110041D01*
X810036Y110036D01*
X810041Y110030D01*
X810045Y110023D01*
X810048Y110016D01*
X810049Y110012D01*
X810052Y110000D01*
X810049Y109988D01*
X810048Y109984D01*
X810045Y109977D01*
X810041Y109970D01*
X810036Y109964D01*
X810029Y109959D01*
X810022Y109955D01*
X810015Y109952D01*
X810007Y109950D01*
X809999Y109950D01*
X809990Y109950D01*
X809983Y109953D01*
X809975Y109956D01*
X809969Y109961D01*
X809963Y109967D01*
X809958Y109973D01*
X809954Y109980D01*
X809951Y109988D01*
X809950Y109996D01*
X809950Y110004D01*
X809951Y110012D01*
X809954Y110020D01*
X809958Y110027D01*
X809963Y110033D01*
X809969Y110039D01*
X809975Y110044D01*
X809983Y110047D01*
X809990Y110049D01*
X809999Y110050D01*
X810007Y110050D01*
D02*
G37*
G36*
X829179Y110000D02*
X828430Y109251D01*
X827174D01*
Y110749D01*
X828430D01*
X829179Y110000D01*
D02*
G37*
G36*
X818499Y109251D02*
X817243D01*
X816494Y110000D01*
X817243Y110749D01*
X818499D01*
Y109251D01*
D02*
G37*
G36*
X160208Y111033D02*
X160372Y110986D01*
X160525Y110914D01*
X160665Y110817D01*
X160788Y110700D01*
X160890Y110564D01*
X160969Y110414D01*
X161023Y110253D01*
X161050Y110085D01*
X161050Y109915D01*
X161023Y109748D01*
X160969Y109586D01*
X160890Y109436D01*
X160788Y109300D01*
X160665Y109183D01*
X160525Y109087D01*
X160372Y109014D01*
X160208Y108967D01*
X160040Y108947D01*
X159870Y108954D01*
X159704Y108989D01*
X159545Y109050D01*
X159398Y109135D01*
X159267Y109243D01*
X159155Y109371D01*
X159065Y109514D01*
X158999Y109671D01*
X158979Y109754D01*
X158978Y109758D01*
X158977Y109763D01*
X158961Y109818D01*
X158947Y109870D01*
X158946Y109874D01*
X158944Y109879D01*
X158926Y109934D01*
X158908Y109985D01*
X158906Y109989D01*
X158905Y109994D01*
X158902Y110000D01*
X158905Y110006D01*
X158906Y110011D01*
X158908Y110015D01*
X158926Y110069D01*
X158944Y110121D01*
X158946Y110125D01*
X158947Y110130D01*
X158962Y110183D01*
X158977Y110237D01*
X158978Y110242D01*
X158979Y110247D01*
X158999Y110329D01*
X159065Y110486D01*
X159155Y110629D01*
X159267Y110757D01*
X159398Y110865D01*
X159545Y110951D01*
X159704Y111011D01*
X159870Y111046D01*
X160040Y111053D01*
X160208Y111033D01*
D02*
G37*
G36*
X134457Y111046D02*
X134623Y111011D01*
X134782Y110950D01*
X134929Y110865D01*
X135060Y110757D01*
X135172Y110629D01*
X135262Y110485D01*
X135328Y110329D01*
X135348Y110246D01*
X135349Y110242D01*
X135350Y110237D01*
X135365Y110182D01*
X135380Y110130D01*
X135381Y110126D01*
X135383Y110121D01*
X135401Y110066D01*
X135419Y110015D01*
X135421Y110011D01*
X135422Y110006D01*
X135425Y110000D01*
X135422Y109994D01*
X135421Y109989D01*
X135419Y109985D01*
X135401Y109931D01*
X135383Y109879D01*
X135381Y109875D01*
X135380Y109870D01*
X135365Y109817D01*
X135350Y109763D01*
X135349Y109758D01*
X135348Y109754D01*
X135328Y109671D01*
X135262Y109514D01*
X135172Y109371D01*
X135060Y109243D01*
X134929Y109135D01*
X134782Y109049D01*
X134623Y108989D01*
X134457Y108954D01*
X134287Y108947D01*
X134119Y108967D01*
X133955Y109014D01*
X133802Y109087D01*
X133662Y109183D01*
X133539Y109300D01*
X133437Y109436D01*
X133358Y109586D01*
X133304Y109747D01*
X133277Y109915D01*
X133277Y110085D01*
X133304Y110252D01*
X133358Y110414D01*
X133437Y110564D01*
X133539Y110700D01*
X133662Y110817D01*
X133802Y110913D01*
X133955Y110986D01*
X134119Y111033D01*
X134287Y111053D01*
X134457Y111046D01*
D02*
G37*
G36*
X154920Y110000D02*
X153171Y108251D01*
X150501D01*
Y111749D01*
X153171D01*
X154920Y110000D01*
D02*
G37*
G36*
X143826Y108251D02*
X141156D01*
X139407Y110000D01*
X141156Y111749D01*
X143826D01*
Y108251D01*
D02*
G37*
G36*
X80851Y122523D02*
X80902Y122513D01*
X80952Y122496D01*
X80999Y122473D01*
X81042Y122444D01*
X81082Y122409D01*
X81116Y122370D01*
X81146Y122327D01*
X81169Y122280D01*
X81186Y122230D01*
X81196Y122178D01*
X81199Y122126D01*
Y105591D01*
X81196Y105538D01*
X81186Y105487D01*
X81169Y105437D01*
X81146Y105390D01*
X81116Y105347D01*
X81082Y105307D01*
X81042Y105273D01*
X80999Y105244D01*
X80952Y105220D01*
X80902Y105203D01*
X80851Y105193D01*
X80798Y105190D01*
X74499D01*
X74447Y105193D01*
X74396Y105203D01*
X74346Y105220D01*
X74299Y105244D01*
X74255Y105273D01*
X74216Y105307D01*
X74181Y105347D01*
X74152Y105390D01*
X74129Y105437D01*
X74112Y105487D01*
X74102Y105538D01*
X74098Y105591D01*
Y122126D01*
X74102Y122178D01*
X74112Y122230D01*
X74129Y122280D01*
X74152Y122327D01*
X74181Y122370D01*
X74216Y122409D01*
X74255Y122444D01*
X74299Y122473D01*
X74346Y122496D01*
X74396Y122513D01*
X74447Y122523D01*
X74499Y122527D01*
X80798D01*
X80851Y122523D01*
D02*
G37*
G36*
X70851D02*
X70902Y122513D01*
X70952Y122496D01*
X70999Y122473D01*
X71042Y122444D01*
X71082Y122409D01*
X71116Y122370D01*
X71145Y122327D01*
X71169Y122280D01*
X71185Y122230D01*
X71196Y122178D01*
X71199Y122126D01*
Y105591D01*
X71196Y105538D01*
X71185Y105487D01*
X71169Y105437D01*
X71145Y105390D01*
X71116Y105347D01*
X71082Y105307D01*
X71042Y105273D01*
X70999Y105244D01*
X70952Y105220D01*
X70902Y105203D01*
X70851Y105193D01*
X70798Y105190D01*
X64499D01*
X64447Y105193D01*
X64396Y105203D01*
X64346Y105220D01*
X64299Y105244D01*
X64255Y105273D01*
X64216Y105307D01*
X64181Y105347D01*
X64152Y105390D01*
X64129Y105437D01*
X64112Y105487D01*
X64102Y105538D01*
X64099Y105591D01*
Y122126D01*
X64102Y122178D01*
X64112Y122230D01*
X64129Y122280D01*
X64152Y122327D01*
X64181Y122370D01*
X64216Y122409D01*
X64255Y122444D01*
X64299Y122473D01*
X64346Y122496D01*
X64396Y122513D01*
X64447Y122523D01*
X64499Y122527D01*
X70798D01*
X70851Y122523D01*
D02*
G37*
G36*
X60851D02*
X60902Y122513D01*
X60952Y122496D01*
X60999Y122473D01*
X61042Y122444D01*
X61082Y122409D01*
X61116Y122370D01*
X61146Y122327D01*
X61169Y122280D01*
X61185Y122230D01*
X61196Y122178D01*
X61199Y122126D01*
Y105591D01*
X61196Y105538D01*
X61185Y105487D01*
X61169Y105437D01*
X61146Y105390D01*
X61116Y105347D01*
X61082Y105307D01*
X61042Y105273D01*
X60999Y105244D01*
X60952Y105220D01*
X60902Y105203D01*
X60851Y105193D01*
X60798Y105190D01*
X54499D01*
X54447Y105193D01*
X54396Y105203D01*
X54346Y105220D01*
X54299Y105244D01*
X54255Y105273D01*
X54216Y105307D01*
X54181Y105347D01*
X54152Y105390D01*
X54129Y105437D01*
X54112Y105487D01*
X54102Y105538D01*
X54098Y105591D01*
Y122126D01*
X54102Y122178D01*
X54112Y122230D01*
X54129Y122280D01*
X54152Y122327D01*
X54181Y122370D01*
X54216Y122409D01*
X54255Y122444D01*
X54299Y122473D01*
X54346Y122496D01*
X54396Y122513D01*
X54447Y122523D01*
X54499Y122527D01*
X60798D01*
X60851Y122523D01*
D02*
G37*
G36*
X50851D02*
X50902Y122513D01*
X50952Y122496D01*
X50999Y122473D01*
X51042Y122444D01*
X51082Y122409D01*
X51116Y122370D01*
X51145Y122327D01*
X51169Y122280D01*
X51186Y122230D01*
X51196Y122178D01*
X51199Y122126D01*
Y105591D01*
X51196Y105538D01*
X51186Y105487D01*
X51169Y105437D01*
X51145Y105390D01*
X51116Y105347D01*
X51082Y105307D01*
X51042Y105273D01*
X50999Y105244D01*
X50952Y105220D01*
X50902Y105203D01*
X50851Y105193D01*
X50798Y105190D01*
X44499D01*
X44447Y105193D01*
X44396Y105203D01*
X44346Y105220D01*
X44299Y105244D01*
X44255Y105273D01*
X44216Y105307D01*
X44181Y105347D01*
X44152Y105390D01*
X44129Y105437D01*
X44112Y105487D01*
X44102Y105538D01*
X44098Y105591D01*
Y122126D01*
X44102Y122178D01*
X44112Y122230D01*
X44129Y122280D01*
X44152Y122327D01*
X44181Y122370D01*
X44216Y122409D01*
X44255Y122444D01*
X44299Y122473D01*
X44346Y122496D01*
X44396Y122513D01*
X44447Y122523D01*
X44499Y122527D01*
X50798D01*
X50851Y122523D01*
D02*
G37*
G36*
X40851D02*
X40902Y122513D01*
X40952Y122496D01*
X40999Y122473D01*
X41042Y122444D01*
X41082Y122409D01*
X41116Y122370D01*
X41146Y122327D01*
X41169Y122280D01*
X41186Y122230D01*
X41196Y122178D01*
X41199Y122126D01*
Y105591D01*
X41196Y105538D01*
X41186Y105487D01*
X41169Y105437D01*
X41146Y105390D01*
X41116Y105347D01*
X41082Y105307D01*
X41042Y105273D01*
X40999Y105244D01*
X40952Y105220D01*
X40902Y105203D01*
X40851Y105193D01*
X40798Y105190D01*
X34499D01*
X34447Y105193D01*
X34396Y105203D01*
X34346Y105220D01*
X34299Y105244D01*
X34255Y105273D01*
X34216Y105307D01*
X34181Y105347D01*
X34152Y105390D01*
X34129Y105437D01*
X34112Y105487D01*
X34102Y105538D01*
X34099Y105591D01*
Y122126D01*
X34102Y122178D01*
X34112Y122230D01*
X34129Y122280D01*
X34152Y122327D01*
X34181Y122370D01*
X34216Y122409D01*
X34255Y122444D01*
X34299Y122473D01*
X34346Y122496D01*
X34396Y122513D01*
X34447Y122523D01*
X34499Y122527D01*
X40798D01*
X40851Y122523D01*
D02*
G37*
G36*
X30851D02*
X30902Y122513D01*
X30952Y122496D01*
X30999Y122473D01*
X31042Y122444D01*
X31082Y122409D01*
X31116Y122370D01*
X31146Y122327D01*
X31169Y122280D01*
X31185Y122230D01*
X31196Y122178D01*
X31199Y122126D01*
Y105591D01*
X31196Y105538D01*
X31185Y105487D01*
X31169Y105437D01*
X31146Y105390D01*
X31116Y105347D01*
X31082Y105307D01*
X31042Y105273D01*
X30999Y105244D01*
X30952Y105220D01*
X30902Y105203D01*
X30851Y105193D01*
X30798Y105190D01*
X24499D01*
X24447Y105193D01*
X24396Y105203D01*
X24346Y105220D01*
X24299Y105244D01*
X24255Y105273D01*
X24216Y105307D01*
X24181Y105347D01*
X24152Y105390D01*
X24129Y105437D01*
X24112Y105487D01*
X24102Y105538D01*
X24099Y105591D01*
Y122126D01*
X24102Y122178D01*
X24112Y122230D01*
X24129Y122280D01*
X24152Y122327D01*
X24181Y122370D01*
X24216Y122409D01*
X24255Y122444D01*
X24299Y122473D01*
X24346Y122496D01*
X24396Y122513D01*
X24447Y122523D01*
X24499Y122527D01*
X30798D01*
X30851Y122523D01*
D02*
G37*
G36*
X20851D02*
X20902Y122513D01*
X20952Y122496D01*
X20999Y122473D01*
X21042Y122444D01*
X21082Y122409D01*
X21116Y122370D01*
X21146Y122327D01*
X21169Y122280D01*
X21185Y122230D01*
X21196Y122178D01*
X21199Y122126D01*
Y105591D01*
X21196Y105538D01*
X21185Y105487D01*
X21169Y105437D01*
X21146Y105390D01*
X21116Y105347D01*
X21082Y105307D01*
X21042Y105273D01*
X20999Y105244D01*
X20952Y105220D01*
X20902Y105203D01*
X20851Y105193D01*
X20798Y105190D01*
X14499D01*
X14447Y105193D01*
X14396Y105203D01*
X14346Y105220D01*
X14299Y105244D01*
X14255Y105273D01*
X14216Y105307D01*
X14181Y105347D01*
X14152Y105390D01*
X14129Y105437D01*
X14112Y105487D01*
X14102Y105538D01*
X14098Y105591D01*
Y122126D01*
X14102Y122178D01*
X14112Y122230D01*
X14129Y122280D01*
X14152Y122327D01*
X14181Y122370D01*
X14216Y122409D01*
X14255Y122444D01*
X14299Y122473D01*
X14346Y122496D01*
X14396Y122513D01*
X14447Y122523D01*
X14499Y122527D01*
X20798D01*
X20851Y122523D01*
D02*
G37*
G36*
X691068Y104122D02*
X690318Y103373D01*
X689569Y104122D01*
Y105378D01*
X691068D01*
Y104122D01*
D02*
G37*
G36*
X681068D02*
X680318Y103373D01*
X679569Y104122D01*
Y105378D01*
X681068D01*
Y104122D01*
D02*
G37*
G36*
X671068D02*
X670319Y103373D01*
X669569Y104122D01*
Y105378D01*
X671068D01*
Y104122D01*
D02*
G37*
G36*
X661068D02*
X660319Y103373D01*
X659569Y104122D01*
Y105378D01*
X661068D01*
Y104122D01*
D02*
G37*
G36*
X651068D02*
X650318Y103373D01*
X649569Y104122D01*
Y105378D01*
X651068D01*
Y104122D01*
D02*
G37*
G36*
X641068D02*
X640318Y103373D01*
X639569Y104122D01*
Y105378D01*
X641068D01*
Y104122D01*
D02*
G37*
G36*
X631068D02*
X630318Y103373D01*
X629569Y104122D01*
Y105378D01*
X631068D01*
Y104122D01*
D02*
G37*
G36*
X621068D02*
X620319Y103373D01*
X619569Y104122D01*
Y105378D01*
X621068D01*
Y104122D01*
D02*
G37*
G36*
X611068D02*
X610319Y103373D01*
X609569Y104122D01*
Y105378D01*
X611068D01*
Y104122D01*
D02*
G37*
G36*
X601068D02*
X600318Y103373D01*
X599569Y104122D01*
Y105378D01*
X601068D01*
Y104122D01*
D02*
G37*
G36*
X591068D02*
X590318Y103373D01*
X589569Y104122D01*
Y105378D01*
X591068D01*
Y104122D01*
D02*
G37*
G36*
X473832Y104773D02*
X473996Y104726D01*
X474149Y104654D01*
X474289Y104557D01*
X474412Y104440D01*
X474514Y104304D01*
X474593Y104154D01*
X474647Y103993D01*
X474674Y103825D01*
X474674Y103655D01*
X474647Y103488D01*
X474593Y103326D01*
X474514Y103176D01*
X474412Y103041D01*
X474289Y102923D01*
X474149Y102827D01*
X473996Y102754D01*
X473832Y102707D01*
X473664Y102687D01*
X473494Y102695D01*
X473328Y102729D01*
X473169Y102790D01*
X473022Y102875D01*
X472891Y102983D01*
X472779Y103111D01*
X472689Y103255D01*
X472623Y103411D01*
X472603Y103494D01*
X472602Y103498D01*
X472601Y103503D01*
X472585Y103558D01*
X472571Y103610D01*
X472570Y103615D01*
X472568Y103620D01*
X472549Y103674D01*
X472532Y103725D01*
X472530Y103729D01*
X472529Y103734D01*
X472526Y103740D01*
X472529Y103747D01*
X472530Y103751D01*
X472532Y103756D01*
X472550Y103809D01*
X472568Y103861D01*
X472570Y103866D01*
X472571Y103870D01*
X472586Y103923D01*
X472601Y103977D01*
X472602Y103982D01*
X472603Y103987D01*
X472623Y104069D01*
X472689Y104226D01*
X472779Y104370D01*
X472891Y104497D01*
X473022Y104605D01*
X473169Y104691D01*
X473328Y104751D01*
X473494Y104786D01*
X473664Y104793D01*
X473832Y104773D01*
D02*
G37*
G36*
X448081Y104786D02*
X448247Y104751D01*
X448406Y104691D01*
X448553Y104605D01*
X448684Y104497D01*
X448796Y104370D01*
X448886Y104226D01*
X448952Y104069D01*
X448972Y103987D01*
X448973Y103982D01*
X448974Y103977D01*
X448989Y103922D01*
X449004Y103870D01*
X449005Y103866D01*
X449007Y103861D01*
X449025Y103807D01*
X449043Y103755D01*
X449044Y103751D01*
X449046Y103747D01*
X449049Y103740D01*
X449046Y103734D01*
X449045Y103729D01*
X449043Y103725D01*
X449024Y103672D01*
X449007Y103620D01*
X449005Y103615D01*
X449004Y103610D01*
X448989Y103557D01*
X448974Y103503D01*
X448973Y103498D01*
X448972Y103494D01*
X448952Y103411D01*
X448886Y103255D01*
X448796Y103111D01*
X448684Y102983D01*
X448553Y102875D01*
X448406Y102790D01*
X448247Y102729D01*
X448081Y102694D01*
X447911Y102687D01*
X447743Y102707D01*
X447579Y102754D01*
X447426Y102827D01*
X447286Y102923D01*
X447163Y103041D01*
X447061Y103176D01*
X446982Y103326D01*
X446928Y103488D01*
X446901Y103655D01*
X446901Y103825D01*
X446928Y103993D01*
X446982Y104154D01*
X447061Y104304D01*
X447163Y104440D01*
X447286Y104557D01*
X447426Y104654D01*
X447579Y104726D01*
X447743Y104773D01*
X447911Y104793D01*
X448081Y104786D01*
D02*
G37*
G36*
X468544Y103740D02*
X466795Y101991D01*
X464125D01*
Y105489D01*
X466795D01*
X468544Y103740D01*
D02*
G37*
G36*
X457450Y101991D02*
X454780D01*
X453031Y103740D01*
X454780Y105489D01*
X457450D01*
Y101991D01*
D02*
G37*
G36*
X835683Y100049D02*
X835691Y100047D01*
X835699Y100044D01*
X835705Y100039D01*
X835711Y100033D01*
X835716Y100027D01*
X835720Y100020D01*
X835722Y100012D01*
X835724Y100004D01*
X835724Y99996D01*
X835722Y99988D01*
X835720Y99980D01*
X835716Y99973D01*
X835711Y99967D01*
X835705Y99961D01*
X835699Y99956D01*
X835691Y99953D01*
X835683Y99951D01*
X835675Y99950D01*
X835667Y99950D01*
X835659Y99952D01*
X835652Y99954D01*
X835645Y99959D01*
X835638Y99964D01*
X835633Y99970D01*
X835629Y99977D01*
X835625Y99984D01*
X835625Y99988D01*
X835621Y100000D01*
X835625Y100012D01*
X835625Y100016D01*
X835629Y100023D01*
X835633Y100030D01*
X835638Y100036D01*
X835645Y100041D01*
X835652Y100046D01*
X835659Y100048D01*
X835667Y100050D01*
X835675Y100050D01*
X835683Y100049D01*
D02*
G37*
G36*
X810007Y100050D02*
X810015Y100048D01*
X810022Y100046D01*
X810029Y100041D01*
X810036Y100036D01*
X810041Y100030D01*
X810045Y100023D01*
X810048Y100016D01*
X810049Y100012D01*
X810052Y100000D01*
X810049Y99988D01*
X810048Y99984D01*
X810045Y99977D01*
X810041Y99970D01*
X810036Y99964D01*
X810029Y99959D01*
X810022Y99954D01*
X810015Y99952D01*
X810007Y99950D01*
X809999Y99950D01*
X809990Y99950D01*
X809983Y99953D01*
X809975Y99956D01*
X809969Y99961D01*
X809963Y99967D01*
X809958Y99973D01*
X809954Y99980D01*
X809951Y99988D01*
X809950Y99996D01*
X809950Y100004D01*
X809951Y100012D01*
X809954Y100020D01*
X809958Y100027D01*
X809963Y100033D01*
X809969Y100039D01*
X809975Y100044D01*
X809983Y100047D01*
X809990Y100049D01*
X809999Y100050D01*
X810007Y100050D01*
D02*
G37*
G36*
X829179Y100000D02*
X828430Y99251D01*
X827174D01*
Y100749D01*
X828430D01*
X829179Y100000D01*
D02*
G37*
G36*
X818499Y99251D02*
X817243D01*
X816494Y100000D01*
X817243Y100749D01*
X818499D01*
Y99251D01*
D02*
G37*
G36*
X160208Y101033D02*
X160372Y100986D01*
X160525Y100914D01*
X160665Y100817D01*
X160788Y100700D01*
X160890Y100564D01*
X160969Y100414D01*
X161023Y100253D01*
X161050Y100085D01*
X161050Y99915D01*
X161023Y99748D01*
X160969Y99586D01*
X160890Y99436D01*
X160788Y99300D01*
X160665Y99183D01*
X160525Y99087D01*
X160372Y99014D01*
X160208Y98967D01*
X160040Y98947D01*
X159870Y98954D01*
X159704Y98989D01*
X159545Y99050D01*
X159398Y99135D01*
X159267Y99243D01*
X159155Y99370D01*
X159065Y99514D01*
X158999Y99671D01*
X158979Y99754D01*
X158978Y99758D01*
X158977Y99763D01*
X158961Y99818D01*
X158947Y99870D01*
X158946Y99875D01*
X158944Y99879D01*
X158926Y99934D01*
X158908Y99985D01*
X158906Y99989D01*
X158905Y99994D01*
X158902Y100000D01*
X158905Y100006D01*
X158906Y100011D01*
X158908Y100015D01*
X158926Y100069D01*
X158944Y100121D01*
X158946Y100125D01*
X158947Y100130D01*
X158962Y100183D01*
X158977Y100237D01*
X158978Y100242D01*
X158979Y100247D01*
X158999Y100329D01*
X159065Y100486D01*
X159155Y100629D01*
X159267Y100757D01*
X159398Y100865D01*
X159545Y100951D01*
X159704Y101011D01*
X159870Y101046D01*
X160040Y101053D01*
X160208Y101033D01*
D02*
G37*
G36*
X134457Y101046D02*
X134623Y101011D01*
X134782Y100950D01*
X134929Y100865D01*
X135060Y100757D01*
X135172Y100629D01*
X135262Y100486D01*
X135328Y100329D01*
X135348Y100246D01*
X135349Y100242D01*
X135350Y100237D01*
X135365Y100182D01*
X135380Y100130D01*
X135381Y100126D01*
X135383Y100121D01*
X135401Y100066D01*
X135419Y100015D01*
X135421Y100011D01*
X135422Y100006D01*
X135425Y100000D01*
X135422Y99993D01*
X135421Y99989D01*
X135419Y99985D01*
X135401Y99931D01*
X135383Y99879D01*
X135381Y99875D01*
X135380Y99870D01*
X135365Y99817D01*
X135350Y99763D01*
X135349Y99758D01*
X135348Y99753D01*
X135328Y99671D01*
X135262Y99514D01*
X135172Y99370D01*
X135060Y99243D01*
X134929Y99135D01*
X134782Y99050D01*
X134623Y98989D01*
X134457Y98954D01*
X134287Y98947D01*
X134119Y98967D01*
X133955Y99014D01*
X133802Y99086D01*
X133662Y99183D01*
X133539Y99300D01*
X133437Y99436D01*
X133358Y99586D01*
X133304Y99747D01*
X133277Y99915D01*
X133277Y100085D01*
X133304Y100252D01*
X133358Y100414D01*
X133437Y100564D01*
X133539Y100700D01*
X133662Y100817D01*
X133802Y100913D01*
X133955Y100986D01*
X134119Y101033D01*
X134287Y101053D01*
X134457Y101046D01*
D02*
G37*
G36*
X154920Y100000D02*
X153171Y98251D01*
X150501D01*
Y101749D01*
X153171D01*
X154920Y100000D01*
D02*
G37*
G36*
X143826Y98251D02*
X141156D01*
X139407Y100000D01*
X141156Y101749D01*
X143826D01*
Y98251D01*
D02*
G37*
G36*
X690330Y96928D02*
X690334Y96927D01*
X690342Y96924D01*
X690349Y96919D01*
X690355Y96914D01*
X690360Y96908D01*
X690364Y96900D01*
X690367Y96893D01*
X690369Y96885D01*
X690369Y96877D01*
X690368Y96869D01*
X690366Y96861D01*
X690362Y96854D01*
X690358Y96847D01*
X690352Y96841D01*
X690345Y96836D01*
X690338Y96832D01*
X690331Y96830D01*
X690322Y96829D01*
X690314Y96829D01*
X690306Y96830D01*
X690299Y96832D01*
X690292Y96836D01*
X690285Y96841D01*
X690279Y96847D01*
X690275Y96854D01*
X690271Y96861D01*
X690269Y96869D01*
X690268Y96877D01*
X690269Y96885D01*
X690270Y96893D01*
X690273Y96900D01*
X690277Y96908D01*
X690282Y96914D01*
X690288Y96919D01*
X690295Y96924D01*
X690303Y96927D01*
X690307Y96928D01*
X690318Y96931D01*
X690330Y96928D01*
D02*
G37*
G36*
X680330D02*
X680334Y96927D01*
X680342Y96924D01*
X680349Y96919D01*
X680355Y96914D01*
X680360Y96908D01*
X680364Y96900D01*
X680367Y96893D01*
X680369Y96885D01*
X680369Y96877D01*
X680368Y96869D01*
X680366Y96861D01*
X680362Y96854D01*
X680358Y96847D01*
X680352Y96841D01*
X680345Y96836D01*
X680338Y96832D01*
X680331Y96830D01*
X680323Y96829D01*
X680314Y96829D01*
X680306Y96830D01*
X680299Y96832D01*
X680292Y96836D01*
X680285Y96841D01*
X680279Y96847D01*
X680275Y96854D01*
X680271Y96861D01*
X680269Y96869D01*
X680268Y96877D01*
X680268Y96885D01*
X680270Y96893D01*
X680273Y96900D01*
X680277Y96908D01*
X680282Y96914D01*
X680288Y96919D01*
X680295Y96924D01*
X680303Y96927D01*
X680307Y96928D01*
X680318Y96931D01*
X680330Y96928D01*
D02*
G37*
G36*
X670330D02*
X670334Y96927D01*
X670342Y96924D01*
X670349Y96919D01*
X670355Y96914D01*
X670360Y96908D01*
X670364Y96900D01*
X670367Y96893D01*
X670368Y96885D01*
X670369Y96877D01*
X670368Y96869D01*
X670366Y96861D01*
X670362Y96854D01*
X670358Y96847D01*
X670352Y96841D01*
X670345Y96836D01*
X670338Y96832D01*
X670331Y96830D01*
X670323Y96829D01*
X670315Y96829D01*
X670306Y96830D01*
X670299Y96832D01*
X670292Y96836D01*
X670285Y96841D01*
X670279Y96847D01*
X670275Y96854D01*
X670271Y96861D01*
X670269Y96869D01*
X670268Y96877D01*
X670268Y96885D01*
X670270Y96893D01*
X670273Y96900D01*
X670277Y96908D01*
X670282Y96914D01*
X670288Y96919D01*
X670295Y96924D01*
X670303Y96927D01*
X670307Y96928D01*
X670319Y96931D01*
X670330Y96928D01*
D02*
G37*
G36*
X660330D02*
X660334Y96927D01*
X660342Y96924D01*
X660349Y96919D01*
X660355Y96914D01*
X660360Y96908D01*
X660364Y96900D01*
X660367Y96893D01*
X660368Y96885D01*
X660369Y96877D01*
X660368Y96869D01*
X660366Y96861D01*
X660362Y96854D01*
X660358Y96847D01*
X660352Y96841D01*
X660346Y96836D01*
X660338Y96832D01*
X660331Y96830D01*
X660323Y96829D01*
X660315Y96829D01*
X660306Y96830D01*
X660299Y96832D01*
X660291Y96836D01*
X660285Y96841D01*
X660279Y96847D01*
X660275Y96854D01*
X660271Y96861D01*
X660269Y96869D01*
X660268Y96877D01*
X660268Y96885D01*
X660270Y96893D01*
X660273Y96900D01*
X660277Y96908D01*
X660282Y96914D01*
X660288Y96919D01*
X660295Y96924D01*
X660303Y96927D01*
X660307Y96928D01*
X660319Y96931D01*
X660330Y96928D01*
D02*
G37*
G36*
X650330D02*
X650334Y96927D01*
X650342Y96924D01*
X650349Y96919D01*
X650355Y96914D01*
X650360Y96908D01*
X650364Y96900D01*
X650367Y96893D01*
X650368Y96885D01*
X650369Y96877D01*
X650368Y96869D01*
X650366Y96861D01*
X650362Y96854D01*
X650358Y96847D01*
X650352Y96841D01*
X650346Y96836D01*
X650338Y96832D01*
X650331Y96830D01*
X650322Y96829D01*
X650315Y96829D01*
X650306Y96830D01*
X650299Y96832D01*
X650291Y96836D01*
X650285Y96841D01*
X650279Y96847D01*
X650275Y96854D01*
X650271Y96861D01*
X650269Y96869D01*
X650268Y96877D01*
X650269Y96885D01*
X650270Y96893D01*
X650273Y96900D01*
X650277Y96908D01*
X650282Y96914D01*
X650288Y96919D01*
X650295Y96924D01*
X650303Y96927D01*
X650307Y96928D01*
X650318Y96931D01*
X650330Y96928D01*
D02*
G37*
G36*
X640330D02*
X640334Y96927D01*
X640342Y96924D01*
X640349Y96919D01*
X640355Y96914D01*
X640360Y96908D01*
X640364Y96900D01*
X640367Y96893D01*
X640369Y96885D01*
X640369Y96877D01*
X640368Y96869D01*
X640366Y96861D01*
X640362Y96854D01*
X640358Y96847D01*
X640352Y96841D01*
X640345Y96836D01*
X640338Y96832D01*
X640331Y96830D01*
X640322Y96829D01*
X640314Y96829D01*
X640306Y96830D01*
X640299Y96832D01*
X640292Y96836D01*
X640285Y96841D01*
X640279Y96847D01*
X640275Y96854D01*
X640271Y96861D01*
X640269Y96869D01*
X640268Y96877D01*
X640269Y96885D01*
X640270Y96893D01*
X640273Y96900D01*
X640277Y96908D01*
X640282Y96914D01*
X640288Y96919D01*
X640295Y96924D01*
X640303Y96927D01*
X640307Y96928D01*
X640318Y96931D01*
X640330Y96928D01*
D02*
G37*
G36*
X630330D02*
X630334Y96927D01*
X630342Y96924D01*
X630349Y96919D01*
X630355Y96914D01*
X630360Y96908D01*
X630364Y96900D01*
X630367Y96893D01*
X630369Y96885D01*
X630369Y96877D01*
X630368Y96869D01*
X630366Y96861D01*
X630362Y96854D01*
X630358Y96847D01*
X630352Y96841D01*
X630345Y96836D01*
X630338Y96832D01*
X630331Y96830D01*
X630323Y96829D01*
X630314Y96829D01*
X630306Y96830D01*
X630299Y96832D01*
X630292Y96836D01*
X630285Y96841D01*
X630279Y96847D01*
X630275Y96854D01*
X630271Y96861D01*
X630269Y96869D01*
X630268Y96877D01*
X630268Y96885D01*
X630270Y96893D01*
X630273Y96900D01*
X630277Y96908D01*
X630282Y96914D01*
X630288Y96919D01*
X630295Y96924D01*
X630303Y96927D01*
X630307Y96928D01*
X630318Y96931D01*
X630330Y96928D01*
D02*
G37*
G36*
X620330D02*
X620334Y96927D01*
X620342Y96924D01*
X620349Y96919D01*
X620355Y96914D01*
X620360Y96908D01*
X620364Y96900D01*
X620367Y96893D01*
X620368Y96885D01*
X620369Y96877D01*
X620368Y96869D01*
X620366Y96861D01*
X620362Y96854D01*
X620358Y96847D01*
X620352Y96841D01*
X620345Y96836D01*
X620338Y96832D01*
X620331Y96830D01*
X620323Y96829D01*
X620315Y96829D01*
X620306Y96830D01*
X620299Y96832D01*
X620292Y96836D01*
X620285Y96841D01*
X620279Y96847D01*
X620275Y96854D01*
X620271Y96861D01*
X620269Y96869D01*
X620268Y96877D01*
X620268Y96885D01*
X620270Y96893D01*
X620273Y96900D01*
X620277Y96908D01*
X620282Y96914D01*
X620288Y96919D01*
X620295Y96924D01*
X620303Y96927D01*
X620307Y96928D01*
X620319Y96931D01*
X620330Y96928D01*
D02*
G37*
G36*
X610330D02*
X610334Y96927D01*
X610342Y96924D01*
X610349Y96919D01*
X610355Y96914D01*
X610360Y96908D01*
X610364Y96900D01*
X610367Y96893D01*
X610368Y96885D01*
X610369Y96877D01*
X610368Y96869D01*
X610366Y96861D01*
X610362Y96854D01*
X610358Y96847D01*
X610352Y96841D01*
X610346Y96836D01*
X610338Y96832D01*
X610331Y96830D01*
X610323Y96829D01*
X610315Y96829D01*
X610306Y96830D01*
X610299Y96832D01*
X610291Y96836D01*
X610285Y96841D01*
X610279Y96847D01*
X610275Y96854D01*
X610271Y96861D01*
X610269Y96869D01*
X610268Y96877D01*
X610268Y96885D01*
X610270Y96893D01*
X610273Y96900D01*
X610277Y96908D01*
X610282Y96914D01*
X610288Y96919D01*
X610295Y96924D01*
X610303Y96927D01*
X610307Y96928D01*
X610319Y96931D01*
X610330Y96928D01*
D02*
G37*
G36*
X600330D02*
X600334Y96927D01*
X600342Y96924D01*
X600349Y96919D01*
X600355Y96914D01*
X600360Y96908D01*
X600364Y96900D01*
X600367Y96893D01*
X600368Y96885D01*
X600369Y96877D01*
X600368Y96869D01*
X600366Y96861D01*
X600362Y96854D01*
X600358Y96847D01*
X600352Y96841D01*
X600346Y96836D01*
X600338Y96832D01*
X600331Y96830D01*
X600322Y96829D01*
X600315Y96829D01*
X600306Y96830D01*
X600299Y96832D01*
X600291Y96836D01*
X600285Y96841D01*
X600279Y96847D01*
X600275Y96854D01*
X600271Y96861D01*
X600269Y96869D01*
X600268Y96877D01*
X600269Y96885D01*
X600270Y96893D01*
X600273Y96900D01*
X600277Y96908D01*
X600282Y96914D01*
X600288Y96919D01*
X600295Y96924D01*
X600303Y96927D01*
X600307Y96928D01*
X600318Y96931D01*
X600330Y96928D01*
D02*
G37*
G36*
X590330D02*
X590334Y96927D01*
X590342Y96924D01*
X590349Y96919D01*
X590355Y96914D01*
X590360Y96908D01*
X590364Y96900D01*
X590367Y96893D01*
X590369Y96885D01*
X590369Y96877D01*
X590368Y96869D01*
X590366Y96861D01*
X590362Y96854D01*
X590358Y96847D01*
X590352Y96841D01*
X590345Y96836D01*
X590338Y96832D01*
X590331Y96830D01*
X590322Y96829D01*
X590314Y96829D01*
X590306Y96830D01*
X590299Y96832D01*
X590292Y96836D01*
X590285Y96841D01*
X590279Y96847D01*
X590275Y96854D01*
X590271Y96861D01*
X590269Y96869D01*
X590268Y96877D01*
X590269Y96885D01*
X590270Y96893D01*
X590273Y96900D01*
X590277Y96908D01*
X590282Y96914D01*
X590288Y96919D01*
X590295Y96924D01*
X590303Y96927D01*
X590307Y96928D01*
X590318Y96931D01*
X590330Y96928D01*
D02*
G37*
G36*
X397538Y96763D02*
X397699Y96709D01*
X397850Y96630D01*
X397985Y96528D01*
X398103Y96405D01*
X398199Y96265D01*
X398271Y96112D01*
X398319Y95948D01*
X398339Y95780D01*
X398331Y95610D01*
X398297Y95444D01*
X398236Y95285D01*
X398151Y95138D01*
X398043Y95007D01*
X397915Y94895D01*
X397771Y94805D01*
X397615Y94739D01*
X397532Y94719D01*
X397528Y94718D01*
X397523Y94717D01*
X397468Y94701D01*
X397415Y94687D01*
X397411Y94686D01*
X397406Y94684D01*
X397352Y94666D01*
X397301Y94648D01*
X397297Y94647D01*
X397292Y94645D01*
X397286Y94642D01*
X397279Y94645D01*
X397275Y94646D01*
X397270Y94648D01*
X397217Y94666D01*
X397165Y94684D01*
X397160Y94686D01*
X397156Y94687D01*
X397102Y94702D01*
X397048Y94717D01*
X397044Y94718D01*
X397039Y94719D01*
X396957Y94739D01*
X396800Y94805D01*
X396656Y94895D01*
X396529Y95007D01*
X396421Y95138D01*
X396335Y95285D01*
X396274Y95444D01*
X396240Y95610D01*
X396233Y95780D01*
X396253Y95948D01*
X396300Y96112D01*
X396372Y96265D01*
X396468Y96405D01*
X396586Y96528D01*
X396722Y96630D01*
X396872Y96709D01*
X397033Y96763D01*
X397201Y96790D01*
X397371Y96790D01*
X397538Y96763D01*
D02*
G37*
G36*
X473832Y94773D02*
X473996Y94726D01*
X474149Y94654D01*
X474289Y94557D01*
X474412Y94440D01*
X474514Y94304D01*
X474593Y94154D01*
X474647Y93993D01*
X474674Y93825D01*
X474674Y93655D01*
X474647Y93488D01*
X474593Y93326D01*
X474514Y93176D01*
X474412Y93041D01*
X474289Y92923D01*
X474149Y92827D01*
X473996Y92754D01*
X473832Y92707D01*
X473664Y92687D01*
X473494Y92695D01*
X473328Y92729D01*
X473169Y92790D01*
X473022Y92875D01*
X472891Y92983D01*
X472779Y93111D01*
X472689Y93255D01*
X472623Y93411D01*
X472603Y93494D01*
X472602Y93498D01*
X472601Y93503D01*
X472585Y93558D01*
X472571Y93610D01*
X472570Y93615D01*
X472568Y93620D01*
X472549Y93674D01*
X472532Y93725D01*
X472530Y93729D01*
X472529Y93734D01*
X472526Y93740D01*
X472529Y93747D01*
X472530Y93751D01*
X472532Y93756D01*
X472550Y93809D01*
X472568Y93861D01*
X472570Y93866D01*
X472571Y93870D01*
X472586Y93923D01*
X472601Y93977D01*
X472602Y93982D01*
X472603Y93987D01*
X472623Y94069D01*
X472689Y94226D01*
X472779Y94370D01*
X472891Y94497D01*
X473022Y94605D01*
X473169Y94691D01*
X473328Y94751D01*
X473494Y94786D01*
X473664Y94793D01*
X473832Y94773D01*
D02*
G37*
G36*
X448081Y94786D02*
X448247Y94751D01*
X448406Y94691D01*
X448553Y94605D01*
X448684Y94497D01*
X448796Y94370D01*
X448886Y94226D01*
X448952Y94069D01*
X448972Y93987D01*
X448973Y93982D01*
X448974Y93977D01*
X448989Y93922D01*
X449004Y93870D01*
X449005Y93866D01*
X449007Y93861D01*
X449025Y93807D01*
X449043Y93756D01*
X449044Y93751D01*
X449046Y93747D01*
X449049Y93740D01*
X449046Y93734D01*
X449045Y93729D01*
X449043Y93725D01*
X449024Y93672D01*
X449007Y93619D01*
X449005Y93615D01*
X449004Y93610D01*
X448989Y93557D01*
X448974Y93503D01*
X448973Y93498D01*
X448972Y93494D01*
X448952Y93411D01*
X448886Y93255D01*
X448796Y93111D01*
X448684Y92983D01*
X448553Y92875D01*
X448406Y92790D01*
X448247Y92729D01*
X448081Y92694D01*
X447911Y92687D01*
X447743Y92707D01*
X447579Y92754D01*
X447426Y92827D01*
X447286Y92923D01*
X447163Y93041D01*
X447061Y93176D01*
X446982Y93326D01*
X446928Y93488D01*
X446901Y93655D01*
X446901Y93825D01*
X446928Y93993D01*
X446982Y94154D01*
X447061Y94304D01*
X447163Y94440D01*
X447286Y94557D01*
X447426Y94654D01*
X447579Y94726D01*
X447743Y94773D01*
X447911Y94793D01*
X448081Y94786D01*
D02*
G37*
G36*
X468544Y93740D02*
X466795Y91991D01*
X464125D01*
Y95489D01*
X466795D01*
X468544Y93740D01*
D02*
G37*
G36*
X457450Y91991D02*
X454780D01*
X453031Y93740D01*
X454780Y95489D01*
X457450D01*
Y91991D01*
D02*
G37*
G36*
X835683Y90049D02*
X835691Y90047D01*
X835699Y90044D01*
X835705Y90039D01*
X835711Y90034D01*
X835716Y90027D01*
X835720Y90020D01*
X835722Y90012D01*
X835724Y90004D01*
X835724Y89996D01*
X835722Y89988D01*
X835720Y89980D01*
X835716Y89973D01*
X835711Y89966D01*
X835705Y89961D01*
X835699Y89956D01*
X835691Y89953D01*
X835683Y89951D01*
X835675Y89950D01*
X835667Y89950D01*
X835659Y89952D01*
X835652Y89955D01*
X835645Y89959D01*
X835638Y89964D01*
X835633Y89970D01*
X835629Y89977D01*
X835625Y89984D01*
X835625Y89988D01*
X835621Y90000D01*
X835625Y90012D01*
X835625Y90016D01*
X835629Y90023D01*
X835633Y90030D01*
X835638Y90036D01*
X835645Y90041D01*
X835652Y90045D01*
X835659Y90048D01*
X835667Y90050D01*
X835675Y90050D01*
X835683Y90049D01*
D02*
G37*
G36*
X810007Y90050D02*
X810015Y90048D01*
X810022Y90045D01*
X810029Y90041D01*
X810036Y90036D01*
X810041Y90030D01*
X810045Y90023D01*
X810048Y90016D01*
X810049Y90012D01*
X810052Y90000D01*
X810049Y89988D01*
X810048Y89984D01*
X810045Y89977D01*
X810041Y89970D01*
X810036Y89964D01*
X810029Y89959D01*
X810022Y89955D01*
X810015Y89952D01*
X810007Y89950D01*
X809999Y89950D01*
X809990Y89951D01*
X809983Y89953D01*
X809975Y89956D01*
X809969Y89961D01*
X809963Y89966D01*
X809958Y89973D01*
X809954Y89980D01*
X809951Y89988D01*
X809950Y89996D01*
X809950Y90004D01*
X809951Y90012D01*
X809954Y90020D01*
X809958Y90027D01*
X809963Y90033D01*
X809969Y90039D01*
X809975Y90044D01*
X809983Y90047D01*
X809990Y90049D01*
X809999Y90050D01*
X810007Y90050D01*
D02*
G37*
G36*
X829179Y90000D02*
X828430Y89251D01*
X827174D01*
Y90749D01*
X828430D01*
X829179Y90000D01*
D02*
G37*
G36*
X818499Y89251D02*
X817243D01*
X816494Y90000D01*
X817243Y90749D01*
X818499D01*
Y89251D01*
D02*
G37*
G36*
X160208Y91033D02*
X160372Y90986D01*
X160525Y90913D01*
X160665Y90817D01*
X160788Y90700D01*
X160890Y90564D01*
X160969Y90414D01*
X161023Y90253D01*
X161050Y90085D01*
X161050Y89915D01*
X161023Y89748D01*
X160969Y89586D01*
X160890Y89436D01*
X160788Y89300D01*
X160665Y89183D01*
X160525Y89087D01*
X160372Y89014D01*
X160208Y88967D01*
X160040Y88947D01*
X159870Y88954D01*
X159704Y88989D01*
X159545Y89050D01*
X159398Y89135D01*
X159267Y89243D01*
X159155Y89371D01*
X159065Y89514D01*
X158999Y89671D01*
X158979Y89754D01*
X158978Y89758D01*
X158977Y89763D01*
X158961Y89818D01*
X158947Y89870D01*
X158946Y89875D01*
X158944Y89879D01*
X158926Y89934D01*
X158908Y89985D01*
X158906Y89989D01*
X158905Y89994D01*
X158902Y90000D01*
X158905Y90007D01*
X158906Y90011D01*
X158908Y90016D01*
X158926Y90069D01*
X158944Y90121D01*
X158946Y90125D01*
X158947Y90130D01*
X158962Y90183D01*
X158977Y90237D01*
X158978Y90242D01*
X158979Y90246D01*
X158999Y90329D01*
X159065Y90486D01*
X159155Y90630D01*
X159267Y90757D01*
X159398Y90865D01*
X159545Y90951D01*
X159704Y91011D01*
X159870Y91046D01*
X160040Y91053D01*
X160208Y91033D01*
D02*
G37*
G36*
X134457Y91046D02*
X134623Y91011D01*
X134782Y90950D01*
X134929Y90865D01*
X135060Y90757D01*
X135172Y90630D01*
X135262Y90486D01*
X135328Y90329D01*
X135348Y90246D01*
X135349Y90242D01*
X135350Y90237D01*
X135365Y90182D01*
X135380Y90130D01*
X135381Y90126D01*
X135383Y90121D01*
X135401Y90066D01*
X135419Y90015D01*
X135421Y90011D01*
X135422Y90006D01*
X135425Y90000D01*
X135422Y89994D01*
X135421Y89989D01*
X135419Y89985D01*
X135401Y89931D01*
X135383Y89879D01*
X135381Y89875D01*
X135380Y89870D01*
X135365Y89817D01*
X135350Y89763D01*
X135349Y89758D01*
X135348Y89754D01*
X135328Y89671D01*
X135262Y89514D01*
X135172Y89371D01*
X135060Y89243D01*
X134929Y89135D01*
X134782Y89050D01*
X134623Y88989D01*
X134457Y88954D01*
X134287Y88947D01*
X134119Y88967D01*
X133955Y89014D01*
X133802Y89087D01*
X133662Y89183D01*
X133539Y89300D01*
X133437Y89436D01*
X133358Y89586D01*
X133304Y89747D01*
X133277Y89915D01*
X133277Y90085D01*
X133304Y90253D01*
X133358Y90414D01*
X133437Y90564D01*
X133539Y90700D01*
X133662Y90817D01*
X133802Y90913D01*
X133955Y90986D01*
X134119Y91033D01*
X134287Y91053D01*
X134457Y91046D01*
D02*
G37*
G36*
X154920Y90000D02*
X153171Y88251D01*
X150501D01*
Y91749D01*
X153171D01*
X154920Y90000D01*
D02*
G37*
G36*
X143826Y88251D02*
X141156D01*
X139407Y90000D01*
X141156Y91749D01*
X143826D01*
Y88251D01*
D02*
G37*
G36*
X399035Y88911D02*
Y86241D01*
X395536D01*
Y88911D01*
X397286Y90660D01*
X399035Y88911D01*
D02*
G37*
G36*
X473832Y84773D02*
X473996Y84726D01*
X474149Y84654D01*
X474289Y84557D01*
X474412Y84440D01*
X474514Y84304D01*
X474593Y84154D01*
X474647Y83993D01*
X474674Y83825D01*
X474674Y83655D01*
X474647Y83488D01*
X474593Y83327D01*
X474514Y83176D01*
X474412Y83040D01*
X474289Y82923D01*
X474149Y82827D01*
X473996Y82754D01*
X473832Y82707D01*
X473664Y82687D01*
X473494Y82695D01*
X473328Y82729D01*
X473169Y82790D01*
X473022Y82875D01*
X472891Y82983D01*
X472779Y83111D01*
X472689Y83255D01*
X472623Y83411D01*
X472603Y83494D01*
X472602Y83498D01*
X472601Y83503D01*
X472585Y83558D01*
X472571Y83610D01*
X472570Y83615D01*
X472568Y83619D01*
X472549Y83674D01*
X472532Y83725D01*
X472530Y83729D01*
X472529Y83734D01*
X472526Y83740D01*
X472529Y83747D01*
X472530Y83751D01*
X472532Y83756D01*
X472550Y83809D01*
X472568Y83861D01*
X472570Y83865D01*
X472571Y83870D01*
X472586Y83923D01*
X472601Y83977D01*
X472602Y83982D01*
X472603Y83987D01*
X472623Y84069D01*
X472689Y84226D01*
X472779Y84370D01*
X472891Y84497D01*
X473022Y84605D01*
X473169Y84691D01*
X473328Y84751D01*
X473494Y84786D01*
X473664Y84793D01*
X473832Y84773D01*
D02*
G37*
G36*
X448081Y84786D02*
X448247Y84751D01*
X448406Y84691D01*
X448553Y84605D01*
X448684Y84497D01*
X448796Y84370D01*
X448886Y84226D01*
X448952Y84069D01*
X448972Y83987D01*
X448973Y83982D01*
X448974Y83977D01*
X448989Y83922D01*
X449004Y83870D01*
X449005Y83866D01*
X449007Y83861D01*
X449025Y83807D01*
X449043Y83755D01*
X449044Y83751D01*
X449046Y83747D01*
X449049Y83740D01*
X449046Y83734D01*
X449045Y83729D01*
X449043Y83725D01*
X449024Y83672D01*
X449007Y83619D01*
X449005Y83615D01*
X449004Y83610D01*
X448989Y83557D01*
X448974Y83503D01*
X448973Y83498D01*
X448972Y83494D01*
X448952Y83411D01*
X448886Y83255D01*
X448796Y83111D01*
X448684Y82983D01*
X448553Y82875D01*
X448406Y82790D01*
X448247Y82729D01*
X448081Y82695D01*
X447911Y82687D01*
X447743Y82707D01*
X447579Y82754D01*
X447426Y82827D01*
X447286Y82923D01*
X447163Y83040D01*
X447061Y83176D01*
X446982Y83327D01*
X446928Y83487D01*
X446901Y83655D01*
X446901Y83825D01*
X446928Y83993D01*
X446982Y84154D01*
X447061Y84304D01*
X447163Y84440D01*
X447286Y84557D01*
X447426Y84654D01*
X447579Y84726D01*
X447743Y84773D01*
X447911Y84793D01*
X448081Y84786D01*
D02*
G37*
G36*
X468544Y83740D02*
X466795Y81991D01*
X464125D01*
Y85489D01*
X466795D01*
X468544Y83740D01*
D02*
G37*
G36*
X457450Y81991D02*
X454780D01*
X453031Y83740D01*
X454780Y85489D01*
X457450D01*
Y81991D01*
D02*
G37*
G36*
X835683Y80049D02*
X835691Y80047D01*
X835699Y80044D01*
X835705Y80039D01*
X835711Y80033D01*
X835716Y80027D01*
X835720Y80020D01*
X835722Y80012D01*
X835724Y80004D01*
X835724Y79996D01*
X835722Y79988D01*
X835720Y79980D01*
X835716Y79973D01*
X835711Y79966D01*
X835705Y79961D01*
X835699Y79956D01*
X835691Y79953D01*
X835683Y79951D01*
X835675Y79950D01*
X835667Y79950D01*
X835659Y79952D01*
X835652Y79954D01*
X835645Y79959D01*
X835638Y79964D01*
X835633Y79970D01*
X835629Y79977D01*
X835625Y79984D01*
X835625Y79988D01*
X835621Y80000D01*
X835625Y80012D01*
X835625Y80016D01*
X835629Y80023D01*
X835633Y80030D01*
X835638Y80036D01*
X835645Y80041D01*
X835652Y80045D01*
X835659Y80048D01*
X835667Y80050D01*
X835675Y80050D01*
X835683Y80049D01*
D02*
G37*
G36*
X810007Y80050D02*
X810015Y80048D01*
X810022Y80045D01*
X810029Y80041D01*
X810036Y80036D01*
X810041Y80030D01*
X810045Y80023D01*
X810048Y80016D01*
X810049Y80012D01*
X810052Y80000D01*
X810049Y79988D01*
X810048Y79984D01*
X810045Y79977D01*
X810041Y79970D01*
X810036Y79964D01*
X810029Y79959D01*
X810022Y79954D01*
X810015Y79952D01*
X810007Y79950D01*
X809999Y79950D01*
X809990Y79950D01*
X809983Y79953D01*
X809975Y79956D01*
X809969Y79961D01*
X809963Y79966D01*
X809958Y79973D01*
X809954Y79980D01*
X809951Y79988D01*
X809950Y79996D01*
X809950Y80004D01*
X809951Y80012D01*
X809954Y80020D01*
X809958Y80027D01*
X809963Y80033D01*
X809969Y80039D01*
X809975Y80044D01*
X809983Y80047D01*
X809990Y80049D01*
X809999Y80050D01*
X810007Y80050D01*
D02*
G37*
G36*
X829179Y80000D02*
X828430Y79251D01*
X827174D01*
Y80749D01*
X828430D01*
X829179Y80000D01*
D02*
G37*
G36*
X818499Y79251D02*
X817243D01*
X816494Y80000D01*
X817243Y80749D01*
X818499D01*
Y79251D01*
D02*
G37*
G36*
X399035Y76896D02*
X397286Y75147D01*
X395536Y76896D01*
Y79566D01*
X399035D01*
Y76896D01*
D02*
G37*
G36*
X473832Y74773D02*
X473996Y74726D01*
X474149Y74654D01*
X474289Y74557D01*
X474412Y74440D01*
X474514Y74304D01*
X474593Y74154D01*
X474647Y73993D01*
X474674Y73825D01*
X474674Y73655D01*
X474647Y73488D01*
X474593Y73326D01*
X474514Y73176D01*
X474412Y73040D01*
X474289Y72923D01*
X474149Y72827D01*
X473996Y72754D01*
X473832Y72707D01*
X473664Y72687D01*
X473494Y72695D01*
X473328Y72729D01*
X473169Y72790D01*
X473022Y72875D01*
X472891Y72983D01*
X472779Y73111D01*
X472689Y73255D01*
X472623Y73411D01*
X472603Y73494D01*
X472602Y73498D01*
X472601Y73503D01*
X472585Y73558D01*
X472571Y73610D01*
X472570Y73615D01*
X472568Y73620D01*
X472549Y73674D01*
X472532Y73725D01*
X472530Y73729D01*
X472529Y73734D01*
X472526Y73740D01*
X472529Y73747D01*
X472530Y73751D01*
X472532Y73756D01*
X472550Y73809D01*
X472568Y73861D01*
X472570Y73865D01*
X472571Y73870D01*
X472586Y73923D01*
X472601Y73977D01*
X472602Y73982D01*
X472603Y73987D01*
X472623Y74069D01*
X472689Y74226D01*
X472779Y74370D01*
X472891Y74497D01*
X473022Y74605D01*
X473169Y74691D01*
X473328Y74751D01*
X473494Y74786D01*
X473664Y74793D01*
X473832Y74773D01*
D02*
G37*
G36*
X448081Y74786D02*
X448247Y74751D01*
X448406Y74691D01*
X448553Y74605D01*
X448684Y74497D01*
X448796Y74370D01*
X448886Y74226D01*
X448952Y74069D01*
X448972Y73987D01*
X448973Y73982D01*
X448974Y73977D01*
X448989Y73922D01*
X449004Y73870D01*
X449005Y73866D01*
X449007Y73861D01*
X449025Y73807D01*
X449043Y73756D01*
X449044Y73751D01*
X449046Y73747D01*
X449049Y73740D01*
X449046Y73734D01*
X449045Y73729D01*
X449043Y73725D01*
X449024Y73672D01*
X449007Y73619D01*
X449005Y73615D01*
X449004Y73610D01*
X448989Y73557D01*
X448974Y73503D01*
X448973Y73498D01*
X448972Y73494D01*
X448952Y73411D01*
X448886Y73255D01*
X448796Y73111D01*
X448684Y72983D01*
X448553Y72875D01*
X448406Y72790D01*
X448247Y72729D01*
X448081Y72694D01*
X447911Y72687D01*
X447743Y72707D01*
X447579Y72754D01*
X447426Y72827D01*
X447286Y72923D01*
X447163Y73040D01*
X447061Y73176D01*
X446982Y73326D01*
X446928Y73488D01*
X446901Y73655D01*
X446901Y73825D01*
X446928Y73993D01*
X446982Y74154D01*
X447061Y74304D01*
X447163Y74440D01*
X447286Y74557D01*
X447426Y74654D01*
X447579Y74726D01*
X447743Y74773D01*
X447911Y74793D01*
X448081Y74786D01*
D02*
G37*
G36*
X468544Y73740D02*
X466795Y71991D01*
X464125D01*
Y75489D01*
X466795D01*
X468544Y73740D01*
D02*
G37*
G36*
X457450Y71991D02*
X454780D01*
X453031Y73740D01*
X454780Y75489D01*
X457450D01*
Y71991D01*
D02*
G37*
G36*
X835683Y70049D02*
X835691Y70047D01*
X835699Y70044D01*
X835705Y70039D01*
X835711Y70034D01*
X835716Y70027D01*
X835720Y70020D01*
X835722Y70012D01*
X835724Y70004D01*
X835724Y69996D01*
X835722Y69988D01*
X835720Y69980D01*
X835716Y69973D01*
X835711Y69967D01*
X835705Y69961D01*
X835699Y69956D01*
X835691Y69953D01*
X835683Y69951D01*
X835675Y69950D01*
X835667Y69950D01*
X835659Y69952D01*
X835652Y69955D01*
X835645Y69959D01*
X835638Y69964D01*
X835633Y69970D01*
X835629Y69977D01*
X835625Y69984D01*
X835625Y69988D01*
X835621Y70000D01*
X835625Y70012D01*
X835625Y70016D01*
X835629Y70023D01*
X835633Y70030D01*
X835638Y70036D01*
X835645Y70041D01*
X835652Y70046D01*
X835659Y70048D01*
X835667Y70050D01*
X835675Y70050D01*
X835683Y70049D01*
D02*
G37*
G36*
X810007Y70050D02*
X810015Y70048D01*
X810022Y70046D01*
X810029Y70041D01*
X810036Y70036D01*
X810041Y70030D01*
X810045Y70023D01*
X810048Y70016D01*
X810049Y70012D01*
X810052Y70000D01*
X810049Y69988D01*
X810048Y69984D01*
X810045Y69977D01*
X810041Y69970D01*
X810036Y69964D01*
X810029Y69959D01*
X810022Y69955D01*
X810015Y69952D01*
X810007Y69950D01*
X809999Y69950D01*
X809990Y69950D01*
X809983Y69953D01*
X809975Y69956D01*
X809969Y69961D01*
X809963Y69967D01*
X809958Y69973D01*
X809954Y69980D01*
X809951Y69988D01*
X809950Y69996D01*
X809950Y70004D01*
X809951Y70012D01*
X809954Y70020D01*
X809958Y70027D01*
X809963Y70033D01*
X809969Y70039D01*
X809975Y70044D01*
X809983Y70047D01*
X809990Y70049D01*
X809999Y70050D01*
X810007Y70050D01*
D02*
G37*
G36*
X829179Y70000D02*
X828430Y69251D01*
X827174D01*
Y70749D01*
X828430D01*
X829179Y70000D01*
D02*
G37*
G36*
X818499Y69251D02*
X817243D01*
X816494Y70000D01*
X817243Y70749D01*
X818499D01*
Y69251D01*
D02*
G37*
G36*
X397292Y71162D02*
X397297Y71161D01*
X397301Y71159D01*
X397354Y71141D01*
X397406Y71123D01*
X397411Y71121D01*
X397415Y71120D01*
X397469Y71105D01*
X397523Y71090D01*
X397528Y71089D01*
X397532Y71088D01*
X397615Y71068D01*
X397771Y71002D01*
X397915Y70912D01*
X398043Y70800D01*
X398151Y70669D01*
X398236Y70522D01*
X398297Y70363D01*
X398331Y70197D01*
X398339Y70027D01*
X398319Y69858D01*
X398272Y69695D01*
X398199Y69542D01*
X398103Y69402D01*
X397985Y69279D01*
X397850Y69177D01*
X397699Y69098D01*
X397538Y69044D01*
X397371Y69017D01*
X397201Y69017D01*
X397033Y69044D01*
X396872Y69098D01*
X396722Y69177D01*
X396586Y69279D01*
X396468Y69402D01*
X396372Y69542D01*
X396300Y69695D01*
X396253Y69858D01*
X396233Y70027D01*
X396240Y70197D01*
X396274Y70363D01*
X396335Y70522D01*
X396421Y70669D01*
X396529Y70800D01*
X396656Y70912D01*
X396800Y71002D01*
X396957Y71068D01*
X397039Y71088D01*
X397044Y71089D01*
X397048Y71090D01*
X397104Y71105D01*
X397156Y71120D01*
X397160Y71121D01*
X397165Y71123D01*
X397219Y71141D01*
X397270Y71159D01*
X397275Y71161D01*
X397279Y71162D01*
X397286Y71165D01*
X397292Y71162D01*
D02*
G37*
G36*
X473832Y64773D02*
X473996Y64726D01*
X474149Y64654D01*
X474289Y64557D01*
X474412Y64440D01*
X474514Y64304D01*
X474593Y64154D01*
X474647Y63993D01*
X474674Y63825D01*
X474674Y63655D01*
X474647Y63488D01*
X474593Y63327D01*
X474514Y63176D01*
X474412Y63041D01*
X474289Y62923D01*
X474149Y62827D01*
X473996Y62754D01*
X473832Y62707D01*
X473664Y62687D01*
X473494Y62695D01*
X473328Y62729D01*
X473169Y62790D01*
X473022Y62875D01*
X472891Y62983D01*
X472779Y63111D01*
X472689Y63255D01*
X472623Y63411D01*
X472603Y63494D01*
X472602Y63498D01*
X472601Y63503D01*
X472585Y63558D01*
X472571Y63610D01*
X472570Y63615D01*
X472568Y63620D01*
X472549Y63674D01*
X472532Y63725D01*
X472530Y63729D01*
X472529Y63734D01*
X472526Y63740D01*
X472529Y63747D01*
X472530Y63751D01*
X472532Y63756D01*
X472550Y63809D01*
X472568Y63861D01*
X472570Y63866D01*
X472571Y63870D01*
X472586Y63923D01*
X472601Y63977D01*
X472602Y63982D01*
X472603Y63987D01*
X472623Y64069D01*
X472689Y64226D01*
X472779Y64370D01*
X472891Y64497D01*
X473022Y64605D01*
X473169Y64691D01*
X473328Y64751D01*
X473494Y64786D01*
X473664Y64793D01*
X473832Y64773D01*
D02*
G37*
G36*
X448081Y64786D02*
X448247Y64751D01*
X448406Y64691D01*
X448553Y64605D01*
X448684Y64497D01*
X448796Y64370D01*
X448886Y64226D01*
X448952Y64069D01*
X448972Y63987D01*
X448973Y63982D01*
X448974Y63977D01*
X448989Y63922D01*
X449004Y63870D01*
X449005Y63866D01*
X449007Y63861D01*
X449025Y63807D01*
X449043Y63756D01*
X449044Y63751D01*
X449046Y63747D01*
X449049Y63740D01*
X449046Y63734D01*
X449045Y63729D01*
X449043Y63725D01*
X449024Y63672D01*
X449007Y63619D01*
X449005Y63615D01*
X449004Y63610D01*
X448989Y63557D01*
X448974Y63503D01*
X448973Y63498D01*
X448972Y63494D01*
X448952Y63411D01*
X448886Y63255D01*
X448796Y63111D01*
X448684Y62983D01*
X448553Y62875D01*
X448406Y62790D01*
X448247Y62729D01*
X448081Y62695D01*
X447911Y62687D01*
X447743Y62707D01*
X447579Y62754D01*
X447426Y62827D01*
X447286Y62923D01*
X447163Y63041D01*
X447061Y63176D01*
X446982Y63327D01*
X446928Y63487D01*
X446901Y63655D01*
X446901Y63825D01*
X446928Y63993D01*
X446982Y64154D01*
X447061Y64304D01*
X447163Y64440D01*
X447286Y64557D01*
X447426Y64654D01*
X447579Y64726D01*
X447743Y64773D01*
X447911Y64793D01*
X448081Y64786D01*
D02*
G37*
G36*
X468544Y63740D02*
X466795Y61991D01*
X464125D01*
Y65489D01*
X466795D01*
X468544Y63740D01*
D02*
G37*
G36*
X457450Y61991D02*
X454780D01*
X453031Y63740D01*
X454780Y65489D01*
X457450D01*
Y61991D01*
D02*
G37*
G36*
X835683Y60049D02*
X835691Y60047D01*
X835699Y60044D01*
X835705Y60039D01*
X835711Y60034D01*
X835716Y60027D01*
X835720Y60020D01*
X835722Y60012D01*
X835724Y60004D01*
X835724Y59996D01*
X835722Y59988D01*
X835720Y59980D01*
X835716Y59973D01*
X835711Y59966D01*
X835705Y59961D01*
X835699Y59956D01*
X835691Y59953D01*
X835683Y59951D01*
X835675Y59950D01*
X835667Y59950D01*
X835659Y59952D01*
X835652Y59955D01*
X835645Y59959D01*
X835638Y59964D01*
X835633Y59970D01*
X835629Y59977D01*
X835625Y59984D01*
X835625Y59988D01*
X835621Y60000D01*
X835625Y60012D01*
X835625Y60016D01*
X835629Y60023D01*
X835633Y60030D01*
X835638Y60036D01*
X835645Y60041D01*
X835652Y60045D01*
X835659Y60048D01*
X835667Y60050D01*
X835675Y60050D01*
X835683Y60049D01*
D02*
G37*
G36*
X810007Y60050D02*
X810015Y60048D01*
X810022Y60045D01*
X810029Y60041D01*
X810036Y60036D01*
X810041Y60030D01*
X810045Y60023D01*
X810048Y60016D01*
X810049Y60012D01*
X810052Y60000D01*
X810049Y59988D01*
X810048Y59984D01*
X810045Y59977D01*
X810041Y59970D01*
X810036Y59964D01*
X810029Y59959D01*
X810022Y59955D01*
X810015Y59952D01*
X810007Y59950D01*
X809999Y59950D01*
X809990Y59951D01*
X809983Y59953D01*
X809975Y59956D01*
X809969Y59961D01*
X809963Y59966D01*
X809958Y59973D01*
X809954Y59980D01*
X809951Y59988D01*
X809950Y59996D01*
X809950Y60004D01*
X809951Y60012D01*
X809954Y60020D01*
X809958Y60027D01*
X809963Y60033D01*
X809969Y60039D01*
X809975Y60044D01*
X809983Y60047D01*
X809990Y60049D01*
X809999Y60050D01*
X810007Y60050D01*
D02*
G37*
G36*
X829179Y60000D02*
X828430Y59251D01*
X827174D01*
Y60749D01*
X828430D01*
X829179Y60000D01*
D02*
G37*
G36*
X818499Y59251D02*
X817243D01*
X816494Y60000D01*
X817243Y60749D01*
X818499D01*
Y59251D01*
D02*
G37*
G36*
X473832Y54773D02*
X473996Y54726D01*
X474149Y54654D01*
X474289Y54557D01*
X474412Y54440D01*
X474514Y54304D01*
X474593Y54154D01*
X474647Y53993D01*
X474674Y53825D01*
X474674Y53655D01*
X474647Y53488D01*
X474593Y53326D01*
X474514Y53176D01*
X474412Y53040D01*
X474289Y52923D01*
X474149Y52827D01*
X473996Y52754D01*
X473832Y52707D01*
X473664Y52687D01*
X473494Y52695D01*
X473328Y52729D01*
X473169Y52790D01*
X473022Y52875D01*
X472891Y52983D01*
X472779Y53111D01*
X472689Y53255D01*
X472623Y53411D01*
X472603Y53494D01*
X472602Y53498D01*
X472601Y53503D01*
X472585Y53558D01*
X472571Y53610D01*
X472570Y53615D01*
X472568Y53619D01*
X472549Y53674D01*
X472532Y53725D01*
X472530Y53729D01*
X472529Y53734D01*
X472526Y53740D01*
X472529Y53747D01*
X472530Y53751D01*
X472532Y53756D01*
X472550Y53809D01*
X472568Y53861D01*
X472570Y53865D01*
X472571Y53870D01*
X472586Y53923D01*
X472601Y53977D01*
X472602Y53982D01*
X472603Y53987D01*
X472623Y54069D01*
X472689Y54226D01*
X472779Y54370D01*
X472891Y54497D01*
X473022Y54605D01*
X473169Y54691D01*
X473328Y54751D01*
X473494Y54786D01*
X473664Y54793D01*
X473832Y54773D01*
D02*
G37*
G36*
X448081Y54786D02*
X448247Y54751D01*
X448406Y54691D01*
X448553Y54605D01*
X448684Y54497D01*
X448796Y54370D01*
X448886Y54226D01*
X448952Y54069D01*
X448972Y53987D01*
X448973Y53982D01*
X448974Y53977D01*
X448989Y53922D01*
X449004Y53870D01*
X449005Y53866D01*
X449007Y53861D01*
X449025Y53807D01*
X449043Y53755D01*
X449044Y53751D01*
X449046Y53747D01*
X449049Y53740D01*
X449046Y53734D01*
X449045Y53729D01*
X449043Y53725D01*
X449024Y53672D01*
X449007Y53619D01*
X449005Y53615D01*
X449004Y53610D01*
X448989Y53557D01*
X448974Y53503D01*
X448973Y53498D01*
X448972Y53494D01*
X448952Y53411D01*
X448886Y53255D01*
X448796Y53111D01*
X448684Y52983D01*
X448553Y52875D01*
X448406Y52790D01*
X448247Y52729D01*
X448081Y52694D01*
X447911Y52687D01*
X447743Y52707D01*
X447579Y52754D01*
X447426Y52827D01*
X447286Y52923D01*
X447163Y53040D01*
X447061Y53176D01*
X446982Y53326D01*
X446928Y53487D01*
X446901Y53655D01*
X446901Y53825D01*
X446928Y53993D01*
X446982Y54154D01*
X447061Y54304D01*
X447163Y54440D01*
X447286Y54557D01*
X447426Y54654D01*
X447579Y54726D01*
X447743Y54773D01*
X447911Y54793D01*
X448081Y54786D01*
D02*
G37*
G36*
X468544Y53740D02*
X466795Y51991D01*
X464125D01*
Y55489D01*
X466795D01*
X468544Y53740D01*
D02*
G37*
G36*
X457450Y51991D02*
X454780D01*
X453031Y53740D01*
X454780Y55489D01*
X457450D01*
Y51991D01*
D02*
G37*
G36*
X835683Y50049D02*
X835691Y50047D01*
X835699Y50044D01*
X835705Y50039D01*
X835711Y50033D01*
X835716Y50027D01*
X835720Y50020D01*
X835722Y50012D01*
X835724Y50004D01*
X835724Y49996D01*
X835722Y49988D01*
X835720Y49980D01*
X835716Y49973D01*
X835711Y49966D01*
X835705Y49961D01*
X835699Y49956D01*
X835691Y49953D01*
X835683Y49951D01*
X835675Y49950D01*
X835667Y49950D01*
X835659Y49952D01*
X835652Y49955D01*
X835645Y49959D01*
X835638Y49964D01*
X835633Y49970D01*
X835629Y49977D01*
X835625Y49984D01*
X835625Y49988D01*
X835621Y50000D01*
X835625Y50012D01*
X835625Y50016D01*
X835629Y50023D01*
X835633Y50030D01*
X835638Y50036D01*
X835645Y50041D01*
X835652Y50046D01*
X835659Y50048D01*
X835667Y50050D01*
X835675Y50050D01*
X835683Y50049D01*
D02*
G37*
G36*
X810007Y50050D02*
X810015Y50048D01*
X810022Y50046D01*
X810029Y50041D01*
X810036Y50036D01*
X810041Y50030D01*
X810045Y50023D01*
X810048Y50016D01*
X810049Y50012D01*
X810052Y50000D01*
X810049Y49988D01*
X810048Y49984D01*
X810045Y49977D01*
X810041Y49970D01*
X810036Y49964D01*
X810029Y49959D01*
X810022Y49955D01*
X810015Y49952D01*
X810007Y49950D01*
X809999Y49950D01*
X809990Y49951D01*
X809983Y49953D01*
X809975Y49956D01*
X809969Y49961D01*
X809963Y49966D01*
X809958Y49973D01*
X809954Y49980D01*
X809951Y49988D01*
X809950Y49996D01*
X809950Y50004D01*
X809951Y50012D01*
X809954Y50020D01*
X809958Y50027D01*
X809963Y50033D01*
X809969Y50039D01*
X809975Y50044D01*
X809983Y50047D01*
X809990Y50049D01*
X809999Y50050D01*
X810007Y50050D01*
D02*
G37*
G36*
X829179Y50000D02*
X828430Y49251D01*
X827174D01*
Y50749D01*
X828430D01*
X829179Y50000D01*
D02*
G37*
G36*
X818499Y49251D02*
X817243D01*
X816494Y50000D01*
X817243Y50749D01*
X818499D01*
Y49251D01*
D02*
G37*
G36*
X835683Y40049D02*
X835691Y40047D01*
X835699Y40044D01*
X835705Y40039D01*
X835711Y40034D01*
X835716Y40027D01*
X835720Y40020D01*
X835722Y40012D01*
X835724Y40004D01*
X835724Y39996D01*
X835722Y39988D01*
X835720Y39980D01*
X835716Y39973D01*
X835711Y39966D01*
X835705Y39961D01*
X835699Y39956D01*
X835691Y39953D01*
X835683Y39951D01*
X835675Y39950D01*
X835667Y39950D01*
X835659Y39952D01*
X835652Y39955D01*
X835645Y39959D01*
X835638Y39964D01*
X835633Y39970D01*
X835629Y39977D01*
X835625Y39984D01*
X835625Y39988D01*
X835621Y40000D01*
X835625Y40012D01*
X835625Y40016D01*
X835629Y40023D01*
X835633Y40030D01*
X835638Y40036D01*
X835645Y40041D01*
X835652Y40045D01*
X835659Y40048D01*
X835667Y40050D01*
X835675Y40050D01*
X835683Y40049D01*
D02*
G37*
G36*
X810007Y40050D02*
X810015Y40048D01*
X810022Y40045D01*
X810029Y40041D01*
X810036Y40036D01*
X810041Y40030D01*
X810045Y40023D01*
X810048Y40016D01*
X810049Y40012D01*
X810052Y40000D01*
X810049Y39988D01*
X810048Y39984D01*
X810045Y39977D01*
X810041Y39970D01*
X810036Y39964D01*
X810029Y39959D01*
X810022Y39955D01*
X810015Y39952D01*
X810007Y39950D01*
X809999Y39950D01*
X809990Y39950D01*
X809983Y39953D01*
X809975Y39956D01*
X809969Y39961D01*
X809963Y39966D01*
X809958Y39973D01*
X809954Y39980D01*
X809951Y39988D01*
X809950Y39996D01*
X809950Y40004D01*
X809951Y40012D01*
X809954Y40020D01*
X809958Y40027D01*
X809963Y40033D01*
X809969Y40039D01*
X809975Y40044D01*
X809983Y40047D01*
X809990Y40049D01*
X809999Y40050D01*
X810007Y40050D01*
D02*
G37*
G36*
X829179Y40000D02*
X828430Y39251D01*
X827174D01*
Y40749D01*
X828430D01*
X829179Y40000D01*
D02*
G37*
G36*
X818499Y39251D02*
X817243D01*
X816494Y40000D01*
X817243Y40749D01*
X818499D01*
Y39251D01*
D02*
G37*
G36*
X80851Y52287D02*
X80902Y52277D01*
X80952Y52260D01*
X80999Y52237D01*
X81042Y52208D01*
X81082Y52173D01*
X81116Y52134D01*
X81146Y52090D01*
X81169Y52043D01*
X81186Y51993D01*
X81196Y51942D01*
X81199Y51890D01*
Y35354D01*
X81196Y35302D01*
X81186Y35250D01*
X81169Y35201D01*
X81146Y35154D01*
X81116Y35110D01*
X81082Y35071D01*
X81042Y35036D01*
X80999Y35007D01*
X80952Y34984D01*
X80902Y34967D01*
X80851Y34957D01*
X80798Y34953D01*
X74499D01*
X74447Y34957D01*
X74396Y34967D01*
X74346Y34984D01*
X74299Y35007D01*
X74255Y35036D01*
X74216Y35071D01*
X74181Y35110D01*
X74152Y35154D01*
X74129Y35201D01*
X74112Y35250D01*
X74102Y35302D01*
X74098Y35354D01*
Y51890D01*
X74102Y51942D01*
X74112Y51993D01*
X74129Y52043D01*
X74152Y52090D01*
X74181Y52134D01*
X74216Y52173D01*
X74255Y52208D01*
X74299Y52237D01*
X74346Y52260D01*
X74396Y52277D01*
X74447Y52287D01*
X74499Y52290D01*
X80798D01*
X80851Y52287D01*
D02*
G37*
G36*
X70851D02*
X70902Y52277D01*
X70952Y52260D01*
X70999Y52237D01*
X71042Y52208D01*
X71082Y52173D01*
X71116Y52134D01*
X71145Y52090D01*
X71169Y52043D01*
X71185Y51993D01*
X71196Y51942D01*
X71199Y51890D01*
Y35354D01*
X71196Y35302D01*
X71185Y35250D01*
X71169Y35201D01*
X71145Y35154D01*
X71116Y35110D01*
X71082Y35071D01*
X71042Y35036D01*
X70999Y35007D01*
X70952Y34984D01*
X70902Y34967D01*
X70851Y34957D01*
X70798Y34953D01*
X64499D01*
X64447Y34957D01*
X64396Y34967D01*
X64346Y34984D01*
X64299Y35007D01*
X64255Y35036D01*
X64216Y35071D01*
X64181Y35110D01*
X64152Y35154D01*
X64129Y35201D01*
X64112Y35250D01*
X64102Y35302D01*
X64099Y35354D01*
Y51890D01*
X64102Y51942D01*
X64112Y51993D01*
X64129Y52043D01*
X64152Y52090D01*
X64181Y52134D01*
X64216Y52173D01*
X64255Y52208D01*
X64299Y52237D01*
X64346Y52260D01*
X64396Y52277D01*
X64447Y52287D01*
X64499Y52290D01*
X70798D01*
X70851Y52287D01*
D02*
G37*
G36*
X60851D02*
X60902Y52277D01*
X60952Y52260D01*
X60999Y52237D01*
X61042Y52208D01*
X61082Y52173D01*
X61116Y52134D01*
X61146Y52090D01*
X61169Y52043D01*
X61185Y51993D01*
X61196Y51942D01*
X61199Y51890D01*
Y35354D01*
X61196Y35302D01*
X61185Y35250D01*
X61169Y35201D01*
X61146Y35154D01*
X61116Y35110D01*
X61082Y35071D01*
X61042Y35036D01*
X60999Y35007D01*
X60952Y34984D01*
X60902Y34967D01*
X60851Y34957D01*
X60798Y34953D01*
X54499D01*
X54447Y34957D01*
X54396Y34967D01*
X54346Y34984D01*
X54299Y35007D01*
X54255Y35036D01*
X54216Y35071D01*
X54181Y35110D01*
X54152Y35154D01*
X54129Y35201D01*
X54112Y35250D01*
X54102Y35302D01*
X54098Y35354D01*
Y51890D01*
X54102Y51942D01*
X54112Y51993D01*
X54129Y52043D01*
X54152Y52090D01*
X54181Y52134D01*
X54216Y52173D01*
X54255Y52208D01*
X54299Y52237D01*
X54346Y52260D01*
X54396Y52277D01*
X54447Y52287D01*
X54499Y52290D01*
X60798D01*
X60851Y52287D01*
D02*
G37*
G36*
X50851D02*
X50902Y52277D01*
X50952Y52260D01*
X50999Y52237D01*
X51042Y52208D01*
X51082Y52173D01*
X51116Y52134D01*
X51145Y52090D01*
X51169Y52043D01*
X51186Y51993D01*
X51196Y51942D01*
X51199Y51890D01*
Y35354D01*
X51196Y35302D01*
X51186Y35250D01*
X51169Y35201D01*
X51145Y35154D01*
X51116Y35110D01*
X51082Y35071D01*
X51042Y35036D01*
X50999Y35007D01*
X50952Y34984D01*
X50902Y34967D01*
X50851Y34957D01*
X50798Y34953D01*
X44499D01*
X44447Y34957D01*
X44396Y34967D01*
X44346Y34984D01*
X44299Y35007D01*
X44255Y35036D01*
X44216Y35071D01*
X44181Y35110D01*
X44152Y35154D01*
X44129Y35201D01*
X44112Y35250D01*
X44102Y35302D01*
X44098Y35354D01*
Y51890D01*
X44102Y51942D01*
X44112Y51993D01*
X44129Y52043D01*
X44152Y52090D01*
X44181Y52134D01*
X44216Y52173D01*
X44255Y52208D01*
X44299Y52237D01*
X44346Y52260D01*
X44396Y52277D01*
X44447Y52287D01*
X44499Y52290D01*
X50798D01*
X50851Y52287D01*
D02*
G37*
G36*
X40851D02*
X40902Y52277D01*
X40952Y52260D01*
X40999Y52237D01*
X41042Y52208D01*
X41082Y52173D01*
X41116Y52134D01*
X41146Y52090D01*
X41169Y52043D01*
X41186Y51993D01*
X41196Y51942D01*
X41199Y51890D01*
Y35354D01*
X41196Y35302D01*
X41186Y35250D01*
X41169Y35201D01*
X41146Y35154D01*
X41116Y35110D01*
X41082Y35071D01*
X41042Y35036D01*
X40999Y35007D01*
X40952Y34984D01*
X40902Y34967D01*
X40851Y34957D01*
X40798Y34953D01*
X34499D01*
X34447Y34957D01*
X34396Y34967D01*
X34346Y34984D01*
X34299Y35007D01*
X34255Y35036D01*
X34216Y35071D01*
X34181Y35110D01*
X34152Y35154D01*
X34129Y35201D01*
X34112Y35250D01*
X34102Y35302D01*
X34099Y35354D01*
Y51890D01*
X34102Y51942D01*
X34112Y51993D01*
X34129Y52043D01*
X34152Y52090D01*
X34181Y52134D01*
X34216Y52173D01*
X34255Y52208D01*
X34299Y52237D01*
X34346Y52260D01*
X34396Y52277D01*
X34447Y52287D01*
X34499Y52290D01*
X40798D01*
X40851Y52287D01*
D02*
G37*
G36*
X30851D02*
X30902Y52277D01*
X30952Y52260D01*
X30999Y52237D01*
X31042Y52208D01*
X31082Y52173D01*
X31116Y52134D01*
X31146Y52090D01*
X31169Y52043D01*
X31185Y51993D01*
X31196Y51942D01*
X31199Y51890D01*
Y35354D01*
X31196Y35302D01*
X31185Y35250D01*
X31169Y35201D01*
X31146Y35154D01*
X31116Y35110D01*
X31082Y35071D01*
X31042Y35036D01*
X30999Y35007D01*
X30952Y34984D01*
X30902Y34967D01*
X30851Y34957D01*
X30798Y34953D01*
X24499D01*
X24447Y34957D01*
X24396Y34967D01*
X24346Y34984D01*
X24299Y35007D01*
X24255Y35036D01*
X24216Y35071D01*
X24181Y35110D01*
X24152Y35154D01*
X24129Y35201D01*
X24112Y35250D01*
X24102Y35302D01*
X24099Y35354D01*
Y51890D01*
X24102Y51942D01*
X24112Y51993D01*
X24129Y52043D01*
X24152Y52090D01*
X24181Y52134D01*
X24216Y52173D01*
X24255Y52208D01*
X24299Y52237D01*
X24346Y52260D01*
X24396Y52277D01*
X24447Y52287D01*
X24499Y52290D01*
X30798D01*
X30851Y52287D01*
D02*
G37*
G36*
X20851D02*
X20902Y52277D01*
X20952Y52260D01*
X20999Y52237D01*
X21042Y52208D01*
X21082Y52173D01*
X21116Y52134D01*
X21146Y52090D01*
X21169Y52043D01*
X21185Y51993D01*
X21196Y51942D01*
X21199Y51890D01*
Y35354D01*
X21196Y35302D01*
X21185Y35250D01*
X21169Y35201D01*
X21146Y35154D01*
X21116Y35110D01*
X21082Y35071D01*
X21042Y35036D01*
X20999Y35007D01*
X20952Y34984D01*
X20902Y34967D01*
X20851Y34957D01*
X20798Y34953D01*
X14499D01*
X14447Y34957D01*
X14396Y34967D01*
X14346Y34984D01*
X14299Y35007D01*
X14255Y35036D01*
X14216Y35071D01*
X14181Y35110D01*
X14152Y35154D01*
X14129Y35201D01*
X14112Y35250D01*
X14102Y35302D01*
X14098Y35354D01*
Y51890D01*
X14102Y51942D01*
X14112Y51993D01*
X14129Y52043D01*
X14152Y52090D01*
X14181Y52134D01*
X14216Y52173D01*
X14255Y52208D01*
X14299Y52237D01*
X14346Y52260D01*
X14396Y52277D01*
X14447Y52287D01*
X14499Y52290D01*
X20798D01*
X20851Y52287D01*
D02*
G37*
G36*
X835683Y30049D02*
X835691Y30047D01*
X835699Y30044D01*
X835705Y30039D01*
X835711Y30033D01*
X835716Y30027D01*
X835720Y30020D01*
X835722Y30012D01*
X835724Y30004D01*
X835724Y29996D01*
X835722Y29988D01*
X835720Y29980D01*
X835716Y29973D01*
X835711Y29967D01*
X835705Y29961D01*
X835699Y29956D01*
X835691Y29953D01*
X835683Y29951D01*
X835675Y29950D01*
X835667Y29950D01*
X835659Y29952D01*
X835652Y29954D01*
X835645Y29959D01*
X835638Y29964D01*
X835633Y29970D01*
X835629Y29977D01*
X835625Y29984D01*
X835625Y29988D01*
X835621Y30000D01*
X835625Y30012D01*
X835625Y30016D01*
X835629Y30023D01*
X835633Y30030D01*
X835638Y30036D01*
X835645Y30041D01*
X835652Y30046D01*
X835659Y30048D01*
X835667Y30050D01*
X835675Y30050D01*
X835683Y30049D01*
D02*
G37*
G36*
X810007Y30050D02*
X810015Y30048D01*
X810022Y30046D01*
X810029Y30041D01*
X810036Y30036D01*
X810041Y30030D01*
X810045Y30023D01*
X810048Y30016D01*
X810049Y30012D01*
X810052Y30000D01*
X810049Y29988D01*
X810048Y29984D01*
X810045Y29977D01*
X810041Y29970D01*
X810036Y29964D01*
X810029Y29959D01*
X810022Y29954D01*
X810015Y29952D01*
X810007Y29950D01*
X809999Y29950D01*
X809990Y29950D01*
X809983Y29953D01*
X809975Y29956D01*
X809969Y29961D01*
X809963Y29967D01*
X809958Y29973D01*
X809954Y29980D01*
X809951Y29988D01*
X809950Y29996D01*
X809950Y30004D01*
X809951Y30012D01*
X809954Y30020D01*
X809958Y30027D01*
X809963Y30033D01*
X809969Y30039D01*
X809975Y30044D01*
X809983Y30047D01*
X809990Y30049D01*
X809999Y30050D01*
X810007Y30050D01*
D02*
G37*
G36*
X829179Y30000D02*
X828430Y29251D01*
X827174D01*
Y30749D01*
X828430D01*
X829179Y30000D01*
D02*
G37*
G36*
X818499Y29251D02*
X817243D01*
X816494Y30000D01*
X817243Y30749D01*
X818499D01*
Y29251D01*
D02*
G37*
D30*
X162000Y120000D02*
G03*
X162000Y120000I-2000J0D01*
G01*
X136327D02*
G03*
X136327Y120000I-2000J0D01*
G01*
X318163Y145000D02*
G03*
X318163Y145000I-2000J0D01*
G01*
X343836D02*
G03*
X343836Y145000I-2000J0D01*
G01*
Y134000D02*
G03*
X343836Y134000I-2000J0D01*
G01*
X318163D02*
G03*
X318163Y134000I-2000J0D01*
G01*
X475624Y103740D02*
G03*
X475624Y103740I-2000J0D01*
G01*
X449951D02*
G03*
X449951Y103740I-2000J0D01*
G01*
X475624Y93740D02*
G03*
X475624Y93740I-2000J0D01*
G01*
X449951D02*
G03*
X449951Y93740I-2000J0D01*
G01*
X475624Y83740D02*
G03*
X475624Y83740I-2000J0D01*
G01*
X449951D02*
G03*
X449951Y83740I-2000J0D01*
G01*
X475624Y73740D02*
G03*
X475624Y73740I-2000J0D01*
G01*
X449951D02*
G03*
X449951Y73740I-2000J0D01*
G01*
X475624Y63740D02*
G03*
X475624Y63740I-2000J0D01*
G01*
X449951D02*
G03*
X449951Y63740I-2000J0D01*
G01*
X475624Y53740D02*
G03*
X475624Y53740I-2000J0D01*
G01*
X449951D02*
G03*
X449951Y53740I-2000J0D01*
G01*
X162000Y130000D02*
G03*
X162000Y130000I-2000J0D01*
G01*
X136327D02*
G03*
X136327Y130000I-2000J0D01*
G01*
X162000Y140000D02*
G03*
X162000Y140000I-2000J0D01*
G01*
X136327D02*
G03*
X136327Y140000I-2000J0D01*
G01*
X162000Y100000D02*
G03*
X162000Y100000I-2000J0D01*
G01*
X136327D02*
G03*
X136327Y100000I-2000J0D01*
G01*
X162000Y90000D02*
G03*
X162000Y90000I-2000J0D01*
G01*
X136327D02*
G03*
X136327Y90000I-2000J0D01*
G01*
X162000Y110000D02*
G03*
X162000Y110000I-2000J0D01*
G01*
X136327D02*
G03*
X136327Y110000I-2000J0D01*
G01*
X399286Y70067D02*
G03*
X399286Y70067I-2000J0D01*
G01*
Y95740D02*
G03*
X399286Y95740I-2000J0D01*
G01*
X622319Y122552D02*
G03*
X622319Y122552I-2000J0D01*
G01*
Y96879D02*
G03*
X622319Y96879I-2000J0D01*
G01*
X692318D02*
G03*
X692318Y96879I-2000J0D01*
G01*
Y122552D02*
G03*
X692318Y122552I-2000J0D01*
G01*
X682318Y96879D02*
G03*
X682318Y96879I-2000J0D01*
G01*
Y122552D02*
G03*
X682318Y122552I-2000J0D01*
G01*
X672319Y96879D02*
G03*
X672319Y96879I-2000J0D01*
G01*
Y122552D02*
G03*
X672319Y122552I-2000J0D01*
G01*
X662319Y96879D02*
G03*
X662319Y96879I-2000J0D01*
G01*
Y122552D02*
G03*
X662319Y122552I-2000J0D01*
G01*
X652318Y96879D02*
G03*
X652318Y96879I-2000J0D01*
G01*
Y122552D02*
G03*
X652318Y122552I-2000J0D01*
G01*
X642318Y96879D02*
G03*
X642318Y96879I-2000J0D01*
G01*
Y122552D02*
G03*
X642318Y122552I-2000J0D01*
G01*
X632318Y96879D02*
G03*
X632318Y96879I-2000J0D01*
G01*
Y122552D02*
G03*
X632318Y122552I-2000J0D01*
G01*
X612319Y96879D02*
G03*
X612319Y96879I-2000J0D01*
G01*
Y122552D02*
G03*
X612319Y122552I-2000J0D01*
G01*
X602318Y96879D02*
G03*
X602318Y96879I-2000J0D01*
G01*
Y122552D02*
G03*
X602318Y122552I-2000J0D01*
G01*
X592318Y96879D02*
G03*
X592318Y96879I-2000J0D01*
G01*
Y122552D02*
G03*
X592318Y122552I-2000J0D01*
G01*
X812000Y140001D02*
G03*
X812000Y140001I-2000J0D01*
G01*
X837673D02*
G03*
X837673Y140001I-2000J0D01*
G01*
X812000Y150001D02*
G03*
X812000Y150001I-2000J0D01*
G01*
X837673D02*
G03*
X837673Y150001I-2000J0D01*
G01*
Y30000D02*
G03*
X837673Y30000I-2000J0D01*
G01*
X812000D02*
G03*
X812000Y30000I-2000J0D01*
G01*
X837673Y90000D02*
G03*
X837673Y90000I-2000J0D01*
G01*
X812000D02*
G03*
X812000Y90000I-2000J0D01*
G01*
X837673Y110000D02*
G03*
X837673Y110000I-2000J0D01*
G01*
X812000D02*
G03*
X812000Y110000I-2000J0D01*
G01*
X837673Y130000D02*
G03*
X837673Y130000I-2000J0D01*
G01*
X812000D02*
G03*
X812000Y130000I-2000J0D01*
G01*
Y40000D02*
G03*
X812000Y40000I-2000J0D01*
G01*
X837673D02*
G03*
X837673Y40000I-2000J0D01*
G01*
X812000Y50000D02*
G03*
X812000Y50000I-2000J0D01*
G01*
X837673D02*
G03*
X837673Y50000I-2000J0D01*
G01*
X812000Y60000D02*
G03*
X812000Y60000I-2000J0D01*
G01*
X837673D02*
G03*
X837673Y60000I-2000J0D01*
G01*
X812000Y70000D02*
G03*
X812000Y70000I-2000J0D01*
G01*
X837673D02*
G03*
X837673Y70000I-2000J0D01*
G01*
X812000Y80000D02*
G03*
X812000Y80000I-2000J0D01*
G01*
X837673D02*
G03*
X837673Y80000I-2000J0D01*
G01*
X812000Y100000D02*
G03*
X812000Y100000I-2000J0D01*
G01*
X837673D02*
G03*
X837673Y100000I-2000J0D01*
G01*
X812000Y120000D02*
G03*
X812000Y120000I-2000J0D01*
G01*
X837673D02*
G03*
X837673Y120000I-2000J0D01*
G01*
D31*
X151375D02*
D03*
X142952D02*
D03*
X324788Y145000D02*
D03*
X333212D02*
D03*
Y134000D02*
D03*
X324788D02*
D03*
X464999Y103740D02*
D03*
X456576D02*
D03*
X464999Y93740D02*
D03*
X456576D02*
D03*
X464999Y83740D02*
D03*
X456576D02*
D03*
X464999Y73740D02*
D03*
X456576D02*
D03*
X464999Y63740D02*
D03*
X456576D02*
D03*
X464999Y53740D02*
D03*
X456576D02*
D03*
X151375Y130000D02*
D03*
X142952D02*
D03*
X151375Y140000D02*
D03*
X142952D02*
D03*
X151375Y100000D02*
D03*
X142952D02*
D03*
X151375Y90000D02*
D03*
X142952D02*
D03*
X151375Y110000D02*
D03*
X142952D02*
D03*
X818625Y140001D02*
D03*
X827048D02*
D03*
X818625Y150001D02*
D03*
X827048D02*
D03*
Y30000D02*
D03*
X818625D02*
D03*
X827046Y90000D02*
D03*
X818623D02*
D03*
X827046Y110000D02*
D03*
X818623D02*
D03*
X827046Y130000D02*
D03*
X818623D02*
D03*
X818625Y40000D02*
D03*
X827048D02*
D03*
X818625Y50000D02*
D03*
X827048D02*
D03*
X818625Y60000D02*
D03*
X827048D02*
D03*
X818625Y70000D02*
D03*
X827048D02*
D03*
X818625Y80000D02*
D03*
X827048D02*
D03*
X818625Y100000D02*
D03*
X827048D02*
D03*
X818625Y120000D02*
D03*
X827048D02*
D03*
D32*
X147163D02*
D03*
X329000Y145000D02*
D03*
Y134000D02*
D03*
X460787Y103740D02*
D03*
Y93740D02*
D03*
Y83740D02*
D03*
Y73740D02*
D03*
Y63740D02*
D03*
Y53740D02*
D03*
X147163Y130000D02*
D03*
Y140000D02*
D03*
Y100000D02*
D03*
Y90000D02*
D03*
Y110000D02*
D03*
X397286Y82903D02*
D03*
X620319Y109714D02*
D03*
X690318Y109715D02*
D03*
X680318D02*
D03*
X670319D02*
D03*
X660319D02*
D03*
X650318D02*
D03*
X640318D02*
D03*
X630318D02*
D03*
X610319D02*
D03*
X600318D02*
D03*
X590318D02*
D03*
X822837Y140001D02*
D03*
Y150001D02*
D03*
Y30000D02*
D03*
X822834Y90000D02*
D03*
Y110000D02*
D03*
Y130000D02*
D03*
X822837Y40000D02*
D03*
Y50000D02*
D03*
Y60000D02*
D03*
Y70000D02*
D03*
Y80000D02*
D03*
Y100000D02*
D03*
Y120000D02*
D03*
D33*
X397286Y78692D02*
D03*
Y87115D02*
D03*
X620319Y113926D02*
D03*
Y105503D02*
D03*
X690318Y105503D02*
D03*
Y113926D02*
D03*
X680318Y105503D02*
D03*
Y113926D02*
D03*
X670319Y105503D02*
D03*
Y113926D02*
D03*
X660319Y105503D02*
D03*
Y113926D02*
D03*
X650318Y105503D02*
D03*
Y113926D02*
D03*
X640318Y105503D02*
D03*
Y113926D02*
D03*
X630318Y105503D02*
D03*
Y113926D02*
D03*
X610319Y105503D02*
D03*
Y113926D02*
D03*
X600318Y105503D02*
D03*
Y113926D02*
D03*
X590318Y105503D02*
D03*
Y113926D02*
D03*
D34*
X667145Y61975D02*
D03*
Y51975D02*
D03*
X674645D02*
D03*
X682145D02*
D03*
X659645D02*
D03*
X667145Y56975D02*
D03*
X674645D02*
D03*
X682145D02*
D03*
X659645D02*
D03*
X674645Y61975D02*
D03*
X682145D02*
D03*
X659645D02*
D03*
X667145Y66975D02*
D03*
X674645D02*
D03*
X682145D02*
D03*
X659645D02*
D03*
X667145Y81975D02*
D03*
X674645D02*
D03*
Y76975D02*
D03*
X667145Y71975D02*
D03*
Y76975D02*
D03*
X674645Y71975D02*
D03*
X682145Y76975D02*
D03*
Y81975D02*
D03*
Y71975D02*
D03*
X659645Y81975D02*
D03*
Y76975D02*
D03*
Y71975D02*
D03*
D35*
X669645Y51975D02*
D03*
X677145D02*
D03*
X684645D02*
D03*
X662145D02*
D03*
X669645Y56975D02*
D03*
X677145D02*
D03*
X684645D02*
D03*
X662145D02*
D03*
X669645Y61975D02*
D03*
X677145D02*
D03*
X684645D02*
D03*
X662145D02*
D03*
X669645Y66975D02*
D03*
X677145D02*
D03*
X684645D02*
D03*
X662145D02*
D03*
X677145Y81975D02*
D03*
X662145D02*
D03*
X669645D02*
D03*
X677145Y76975D02*
D03*
X669645Y71975D02*
D03*
Y76975D02*
D03*
X677145Y71975D02*
D03*
X684645Y81975D02*
D03*
Y76975D02*
D03*
Y71975D02*
D03*
X662145D02*
D03*
Y76975D02*
D03*
D36*
X672145Y51975D02*
D03*
X679645D02*
D03*
X687145D02*
D03*
X664645D02*
D03*
X657145D02*
D03*
X672145Y56975D02*
D03*
X679645D02*
D03*
X687145D02*
D03*
X664645D02*
D03*
X657145D02*
D03*
X672145Y61975D02*
D03*
X679645D02*
D03*
X687145D02*
D03*
X664645D02*
D03*
X657145D02*
D03*
X672145Y66975D02*
D03*
X679645D02*
D03*
X687145D02*
D03*
X664645D02*
D03*
X657145D02*
D03*
X672145Y81975D02*
D03*
X664645D02*
D03*
X672145Y76975D02*
D03*
Y71975D02*
D03*
X679645Y81975D02*
D03*
X687145Y76975D02*
D03*
Y81975D02*
D03*
X679645Y76975D02*
D03*
Y71975D02*
D03*
X687145D02*
D03*
X657145Y81975D02*
D03*
X664645Y76975D02*
D03*
X657145D02*
D03*
X664645Y71975D02*
D03*
X657145D02*
D03*
D37*
X647145Y81975D02*
D03*
Y76975D02*
D03*
Y71975D02*
D03*
X632145Y81975D02*
D03*
X617145D02*
D03*
X632145Y76975D02*
D03*
X617145D02*
D03*
X632145Y71975D02*
D03*
X617145D02*
D03*
X602145Y76975D02*
D03*
Y71975D02*
D03*
Y81975D02*
D03*
X647145Y66975D02*
D03*
X632145D02*
D03*
X617145D02*
D03*
X602145D02*
D03*
X647145Y61975D02*
D03*
X632145D02*
D03*
X617145D02*
D03*
X602145D02*
D03*
X647145Y56975D02*
D03*
X632145D02*
D03*
X617145D02*
D03*
X602145D02*
D03*
X647145Y51975D02*
D03*
X632145D02*
D03*
X617145D02*
D03*
X602145D02*
D03*
D38*
X642145Y81975D02*
D03*
Y76975D02*
D03*
Y71975D02*
D03*
X627145Y81975D02*
D03*
X612145D02*
D03*
X627145Y76975D02*
D03*
X612145D02*
D03*
X627145Y71975D02*
D03*
X612145D02*
D03*
X597145Y76975D02*
D03*
Y81975D02*
D03*
Y71975D02*
D03*
X642145Y66975D02*
D03*
X627145D02*
D03*
X612145D02*
D03*
X597145D02*
D03*
X642145Y61975D02*
D03*
X627145D02*
D03*
X612145D02*
D03*
X597145D02*
D03*
X642145Y56975D02*
D03*
X627145D02*
D03*
X612145D02*
D03*
X597145D02*
D03*
X642145Y51975D02*
D03*
X627145D02*
D03*
X612145D02*
D03*
X597145D02*
D03*
D39*
X637145Y81975D02*
D03*
Y76975D02*
D03*
Y71975D02*
D03*
X622145Y81975D02*
D03*
Y76975D02*
D03*
Y71975D02*
D03*
X607145Y76975D02*
D03*
Y71975D02*
D03*
Y81975D02*
D03*
X637145Y66975D02*
D03*
X622145D02*
D03*
X607145D02*
D03*
X637145Y61975D02*
D03*
X622145D02*
D03*
X607145D02*
D03*
X637145Y56975D02*
D03*
X622145D02*
D03*
X607145D02*
D03*
X637145Y51975D02*
D03*
X622145D02*
D03*
X607145D02*
D03*
D40*
X592145Y81975D02*
D03*
Y71975D02*
D03*
Y76975D02*
D03*
Y66975D02*
D03*
Y61975D02*
D03*
Y56975D02*
D03*
Y51975D02*
D03*
X652145Y56975D02*
D03*
Y76975D02*
D03*
Y66975D02*
D03*
Y61975D02*
D03*
Y71975D02*
D03*
Y81975D02*
D03*
Y51975D02*
D03*
D41*
X382953Y67126D02*
D03*
X369961Y90354D02*
D03*
Y67126D02*
D03*
X382953Y90354D02*
D03*
X322953Y67126D02*
D03*
X309961Y90354D02*
D03*
Y67126D02*
D03*
X322953Y90354D02*
D03*
D42*
X358071Y115236D02*
D03*
X334842Y102244D02*
D03*
X358071D02*
D03*
X334842Y115236D02*
D03*
X358071Y85236D02*
D03*
X334842Y72244D02*
D03*
X358071D02*
D03*
X334842Y85236D02*
D03*
X358071Y55236D02*
D03*
X334842Y42244D02*
D03*
X358071D02*
D03*
X334842Y55236D02*
D03*
D43*
X353753Y147749D02*
D03*
X360259D02*
D03*
X360259Y130245D02*
D03*
X733253Y150000D02*
D03*
X353753Y130245D02*
D03*
X726747Y150000D02*
D03*
D44*
X758268Y140000D02*
D03*
X750000D02*
D03*
D45*
X700000Y110000D02*
D03*
Y118268D02*
D03*
X9548Y140010D02*
D03*
D46*
X216063Y92913D02*
D03*
Y64567D02*
D03*
X276063Y92913D02*
D03*
Y64567D02*
D03*
X287874Y92913D02*
D03*
Y64567D02*
D03*
X227874D02*
D03*
Y92913D02*
D03*
D47*
X237795Y102835D02*
D03*
X266142D02*
D03*
X237795Y42835D02*
D03*
X266142D02*
D03*
X237795Y72835D02*
D03*
X266142D02*
D03*
X237795Y54646D02*
D03*
X266142D02*
D03*
Y84646D02*
D03*
X237795D02*
D03*
X266142Y114646D02*
D03*
X237795D02*
D03*
D48*
X710000Y123494D02*
D03*
Y130000D02*
D03*
D49*
X112862Y141352D02*
D03*
X7500Y31000D02*
D03*
X112419Y153505D02*
D03*
X115908Y147657D02*
D03*
D50*
X394929Y152256D02*
D03*
X372882D02*
D03*
D51*
X389811Y137000D02*
D03*
X385874D02*
D03*
X378000D02*
D03*
X381937D02*
D03*
D52*
X742756Y140000D02*
D03*
X737244D02*
D03*
D53*
X700000Y127244D02*
D03*
Y132756D02*
D03*
D54*
X100000Y88000D02*
D03*
Y94000D02*
D03*
X106000Y104000D02*
D03*
Y98000D02*
D03*
X124197Y127000D02*
D03*
Y133000D02*
D03*
X112000Y108000D02*
D03*
Y114000D02*
D03*
X118098Y123000D02*
D03*
Y117000D02*
D03*
X94000Y78000D02*
D03*
Y84000D02*
D03*
X57802Y26256D02*
D03*
X67902D02*
D03*
Y32256D02*
D03*
X17649D02*
D03*
Y26256D02*
D03*
X27502Y32256D02*
D03*
Y26256D02*
D03*
X37602Y32256D02*
D03*
Y26256D02*
D03*
X57802Y32256D02*
D03*
D55*
X38582Y60551D02*
D03*
X46456D02*
D03*
X740000Y110000D02*
D03*
Y120000D02*
D03*
Y130000D02*
D03*
X565000Y125000D02*
D03*
X555000D02*
D03*
X545000D02*
D03*
X790000Y70000D02*
D03*
X780000Y70000D02*
D03*
X790000Y80000D02*
D03*
X780000Y80000D02*
D03*
X565000Y145000D02*
D03*
X545000D02*
D03*
X555000D02*
D03*
X730000Y130000D02*
D03*
Y120000D02*
D03*
Y110000D02*
D03*
X489843Y73740D02*
D03*
Y53740D02*
D03*
Y63740D02*
D03*
Y83740D02*
D03*
Y93740D02*
D03*
X720000Y110000D02*
D03*
Y120000D02*
D03*
Y130000D02*
D03*
X565000Y135000D02*
D03*
X555000D02*
D03*
X545000D02*
D03*
X500827Y73740D02*
D03*
Y53740D02*
D03*
Y63740D02*
D03*
Y93740D02*
D03*
Y83740D02*
D03*
X780000Y120000D02*
D03*
X790000Y120000D02*
D03*
X789991Y129977D02*
D03*
X779990Y129977D02*
D03*
X780000Y110000D02*
D03*
Y100000D02*
D03*
Y90000D02*
D03*
Y60000D02*
D03*
Y50000D02*
D03*
Y40000D02*
D03*
X850000Y150000D02*
D03*
Y140000D02*
D03*
Y130000D02*
D03*
Y120000D02*
D03*
Y110000D02*
D03*
Y100000D02*
D03*
Y90000D02*
D03*
Y80000D02*
D03*
Y70000D02*
D03*
Y60000D02*
D03*
Y50000D02*
D03*
Y40000D02*
D03*
X600318Y136879D02*
D03*
X610319D02*
D03*
X620319D02*
D03*
X630318D02*
D03*
X640318D02*
D03*
X650318D02*
D03*
X660319D02*
D03*
X670319D02*
D03*
X680318D02*
D03*
X690295Y136888D02*
D03*
X790000Y90000D02*
D03*
Y60000D02*
D03*
Y50000D02*
D03*
Y40000D02*
D03*
Y100000D02*
D03*
Y110000D02*
D03*
D56*
X740000Y100000D02*
D03*
X730000D02*
D03*
X489843Y103740D02*
D03*
X720000Y100000D02*
D03*
X500827Y103740D02*
D03*
X780000Y30000D02*
D03*
X850000Y30000D02*
D03*
X790000D02*
D03*
D57*
X575000Y125000D02*
D03*
Y145000D02*
D03*
Y135000D02*
D03*
X590318Y136879D02*
D03*
D58*
X9548Y147884D02*
D03*
D59*
X212246Y124883D02*
D03*
X199647Y94489D02*
D03*
X179647Y68387D02*
D03*
X153545Y48387D02*
D03*
X123151Y35788D02*
D03*
X90553Y31497D02*
D03*
M02*
