G04*
G04 #@! TF.GenerationSoftware,Altium Limited,Altium Designer,26.3.0 (6)*
G04*
G04 Layer_Color=16711935*
%FSLAX25Y25*%
%MOIN*%
G70*
G04*
G04 #@! TF.SameCoordinates,015A45BF-1CEB-4936-80CA-603E909B0F41*
G04*
G04*
G04 #@! TF.FilePolarity,Negative*
G04*
G01*
G75*
%ADD45R,0.05524X0.05524*%
%ADD55C,0.06902*%
%ADD56R,0.06902X0.06902*%
%ADD57R,0.06902X0.06902*%
%ADD58C,0.05524*%
%ADD59C,0.00800*%
%ADD91R,0.07099X0.07099*%
D45*
X9548Y140010D02*
D03*
D55*
X38582Y60551D02*
D03*
X46456D02*
D03*
X740000Y110000D02*
D03*
Y120000D02*
D03*
Y130000D02*
D03*
X565000Y125000D02*
D03*
X555000D02*
D03*
X545000D02*
D03*
X620319Y122552D02*
D03*
Y96879D02*
D03*
X790000Y70000D02*
D03*
X780000Y70000D02*
D03*
X790000Y80000D02*
D03*
X780000Y80000D02*
D03*
X565000Y145000D02*
D03*
X545000D02*
D03*
X555000D02*
D03*
X730000Y130000D02*
D03*
Y120000D02*
D03*
Y110000D02*
D03*
X489843Y73740D02*
D03*
Y53740D02*
D03*
Y63740D02*
D03*
Y83740D02*
D03*
Y93740D02*
D03*
X720000Y110000D02*
D03*
Y120000D02*
D03*
Y130000D02*
D03*
X565000Y135000D02*
D03*
X555000D02*
D03*
X545000D02*
D03*
X690318Y96879D02*
D03*
Y122552D02*
D03*
X680318Y96879D02*
D03*
Y122552D02*
D03*
X670319Y96879D02*
D03*
Y122552D02*
D03*
X660319Y96879D02*
D03*
Y122552D02*
D03*
X650318Y96879D02*
D03*
Y122552D02*
D03*
X640318Y96879D02*
D03*
Y122552D02*
D03*
X630318Y96879D02*
D03*
Y122552D02*
D03*
X610319Y96879D02*
D03*
Y122552D02*
D03*
X600318Y96879D02*
D03*
Y122552D02*
D03*
X590318Y96879D02*
D03*
Y122552D02*
D03*
X500827Y73740D02*
D03*
Y53740D02*
D03*
Y63740D02*
D03*
Y93740D02*
D03*
Y83740D02*
D03*
X780000Y120000D02*
D03*
X790000Y120000D02*
D03*
X789991Y129977D02*
D03*
X779990Y129977D02*
D03*
X780000Y110000D02*
D03*
Y100000D02*
D03*
Y90000D02*
D03*
Y60000D02*
D03*
Y50000D02*
D03*
Y40000D02*
D03*
X850000Y150000D02*
D03*
Y140000D02*
D03*
Y130000D02*
D03*
Y120000D02*
D03*
Y110000D02*
D03*
Y100000D02*
D03*
Y90000D02*
D03*
Y80000D02*
D03*
Y70000D02*
D03*
Y60000D02*
D03*
Y50000D02*
D03*
Y40000D02*
D03*
X810000Y140001D02*
D03*
X835673D02*
D03*
X810000Y150001D02*
D03*
X835673D02*
D03*
Y30000D02*
D03*
X810000D02*
D03*
X600318Y136879D02*
D03*
X610319D02*
D03*
X620319D02*
D03*
X630318D02*
D03*
X640318D02*
D03*
X650318D02*
D03*
X660319D02*
D03*
X670319D02*
D03*
X680318D02*
D03*
X690295Y136888D02*
D03*
X835673Y90000D02*
D03*
X810000D02*
D03*
X835673Y110000D02*
D03*
X810000D02*
D03*
X835673Y130000D02*
D03*
X810000D02*
D03*
X790000Y90000D02*
D03*
Y60000D02*
D03*
Y50000D02*
D03*
Y40000D02*
D03*
Y100000D02*
D03*
Y110000D02*
D03*
X810000Y40000D02*
D03*
X835673D02*
D03*
X810000Y50000D02*
D03*
X835673D02*
D03*
X810000Y60000D02*
D03*
X835673D02*
D03*
X810000Y70000D02*
D03*
X835673D02*
D03*
X810000Y80000D02*
D03*
X835673D02*
D03*
X810000Y100000D02*
D03*
X835673D02*
D03*
X810000Y120000D02*
D03*
X835673D02*
D03*
D56*
X740000Y100000D02*
D03*
X730000D02*
D03*
X489843Y103740D02*
D03*
X720000Y100000D02*
D03*
X500827Y103740D02*
D03*
X780000Y30000D02*
D03*
X850000Y30000D02*
D03*
X790000D02*
D03*
D57*
X575000Y125000D02*
D03*
Y145000D02*
D03*
Y135000D02*
D03*
X590318Y136879D02*
D03*
D58*
X9548Y147884D02*
D03*
D59*
X212246Y124883D02*
D03*
X199647Y94489D02*
D03*
X179647Y68387D02*
D03*
X153545Y48387D02*
D03*
X123151Y35788D02*
D03*
X90553Y31497D02*
D03*
D91*
X17649Y108740D02*
D03*
X27649D02*
D03*
X37649D02*
D03*
X47649D02*
D03*
X57649D02*
D03*
X67649D02*
D03*
X77649D02*
D03*
Y48740D02*
D03*
X67649D02*
D03*
X57649D02*
D03*
X47649D02*
D03*
X37649D02*
D03*
X27649D02*
D03*
X17649D02*
D03*
M02*
